<svg width="140" height="140" viewBox="0 0 140 140" fill="none" xmlns="http://www.w3.org/2000/svg">
<circle cx="70" cy="70" r="70" fill="#F6F8FA"/>
<path d="M102.294 120.96H37.1201C37.1201 117.667 38.8901 114.153 40.257 111.934L41.8982 104.363L48.303 88.611L48.7537 87.5014L51.0057 86.9498L87.8104 77.9258L91.2631 88.2757L99.1575 111.934C100.524 114.153 102.294 117.667 102.294 120.96Z" fill="#FC3552"/>
<path d="M91.2646 88.2759C88.5119 94.4751 84.1388 99.6147 77.489 101.852C75.1808 102.631 72.5966 103.058 69.7089 103.058C66.8628 103.058 64.3118 102.643 62.0265 101.888C55.443 99.7061 51.0783 94.6914 48.3047 88.6109L48.7554 87.5012L51.0073 86.9496L87.8119 77.9258L91.2646 88.2759Z" fill="#E21E43"/>
<path d="M66.9141 91.1627C57.6507 94.4081 54.1563 115.604 54.1563 120.96H37.1211C37.1211 117.666 38.8911 114.153 40.258 111.934L41.8992 104.363L48.7549 87.5013L51.0068 86.9497C62.1213 88.1798 71.0877 89.7014 66.9141 91.1627Z" fill="#E21E43"/>
<path d="M94.0845 107.872C94.1386 108.062 96.2762 115.524 89.6574 115.524C82.9555 115.524 80.6766 106.523 80.6766 106.523C79.4468 102.535 78.3062 97.9573 77.5603 94.7806L77.4876 94.5725C85.3384 91.9309 74.9427 90.8068 66.9133 91.1628C60.7182 91.4355 55.9339 92.5909 62.0251 94.608C61.2792 97.7908 60.1199 102.464 58.8673 106.526C58.8673 106.526 56.5883 115.524 49.8864 115.524C43.2676 115.524 45.4053 108.06 45.4593 107.872C43.3092 112.571 28.9081 116.328 34.1349 108.674C44.5908 90.7425 27.6137 50.171 40.3674 32.7142C44.4642 27.1082 53.0359 28.0804 53.0359 28.0804C53.0359 28.0804 55.1071 18.5757 66.1052 19.0148C91.2509 20.014 104.14 38.6094 103.146 46.986L103.248 46.9985C105.195 66.8263 97.2381 94.6601 105.409 108.674C110.634 116.328 96.2347 112.57 94.0845 107.872Z" fill="#FEC755"/>
<path d="M62.0251 94.6082C61.2792 97.7911 60.1199 102.464 58.8673 106.526C58.8673 106.526 56.5883 115.525 49.8864 115.525C43.2676 115.525 45.4053 108.06 45.4593 107.873C43.3092 112.571 28.9081 116.328 34.1349 108.674C44.5908 90.7427 27.6137 50.1712 40.3674 32.7144C44.4642 27.1084 53.0359 28.0806 53.0359 28.0806C48.5257 28.2491 45.4303 51.9049 56.0253 58.3581C61.9253 61.951 65.1848 77.8133 66.9133 91.1629C60.7183 91.4357 55.9339 92.5909 62.0251 94.6082Z" fill="#E5AA41"/>
<path d="M103.442 59.5328C101.057 60.326 96.6132 59.3747 95.3065 57.828V57.826C95.2627 57.0018 95.186 56.1793 95.0759 55.3613L94.5586 50.2342C97.4026 51.3042 100.062 51.6809 101.898 49.8407C102.594 49.1433 103.008 48.1671 103.147 46.9868L103.248 46.9994C103.633 50.921 103.631 55.1551 103.442 59.5328Z" fill="#E5AA41"/>
<path d="M95.3429 59.3078C95.3429 72.5244 91.3957 89.8936 77.4871 94.5732C75.179 95.3518 72.5948 95.7784 69.7071 95.7784C66.8609 95.7784 64.3099 95.3642 62.0246 94.6084C48.0391 89.9746 44.0732 72.5555 44.0732 59.3077L44.0752 59.3057C47.6339 60.1841 61.4139 51.9906 62.0848 43.3936C62.6604 45.2483 63.8757 47.0448 65.4773 48.6955C67.9745 51.2664 71.4105 53.4874 74.826 55.0257C79.9324 57.3302 84.9973 58.1128 86.8172 56.2893C90.6375 52.4612 78.7068 52.5277 80.1816 48.2291C81.9558 43.054 88.2318 47.6836 93.9489 49.9964L94.3001 51.4703C94.9772 54.0328 95.3429 56.6704 95.3429 59.3078Z" fill="#FFE2C7"/>
<path d="M69.7071 95.778C66.8609 95.778 64.3099 95.3638 62.0246 94.608C48.0391 89.9743 44.0732 72.5551 44.0732 59.3072L44.0752 59.3053C46.028 59.7882 51.0617 57.5359 55.3163 53.9846C49.9629 68.4376 51.1116 90.8509 69.7071 95.778Z" fill="#E8C5A7"/>
<path d="M61.4754 65.3336C61.0767 65.3336 60.6779 65.1812 60.3738 64.8761C59.5107 64.0115 58.3627 63.5351 57.1423 63.5351C55.9216 63.5351 54.7741 64.0115 53.911 64.8761C53.3022 65.4859 52.3157 65.4861 51.7076 64.8761C51.0988 64.2664 51.0988 63.278 51.7074 62.6683C53.159 61.2135 55.0891 60.4126 57.1423 60.4126C59.1953 60.4126 61.1254 61.2135 62.577 62.6683C63.1858 63.278 63.1858 64.2664 62.5772 64.8761C62.2729 65.181 61.8741 65.3336 61.4754 65.3336Z" fill="#3B4C5B"/>
<path d="M88.1971 65.3334C87.7984 65.3334 87.3995 65.1811 87.0955 64.876C85.3136 63.0909 82.4148 63.0905 80.6325 64.876C80.0239 65.486 79.0374 65.4858 78.429 64.876C77.8205 64.2662 77.8205 63.2777 78.4292 62.6681C81.426 59.6651 86.3025 59.6655 89.2987 62.6681C89.9074 63.2779 89.9074 64.2662 89.2989 64.876C88.9946 65.1809 88.5958 65.3334 88.1971 65.3334Z" fill="#3B4C5B"/>
<path d="M70.503 86.9821C64.0813 86.9821 58.2616 83.1756 55.6772 77.2848C55.3306 76.4954 55.6886 75.5744 56.4764 75.2273C57.2648 74.8806 58.1833 75.2386 58.5299 76.028C60.6173 80.7855 65.3173 83.8596 70.5032 83.8596C75.6893 83.8596 80.3893 80.7855 82.4769 76.028C82.8229 75.2386 83.7428 74.8806 84.5302 75.2273C85.318 75.5744 85.676 76.4954 85.3294 77.2848C82.7446 83.1758 76.9247 86.9821 70.503 86.9821Z" fill="#E8C5A7"/>
<path opacity="0.5" d="M86.7245 73.0393C89.2787 73.0393 91.3493 72.0171 91.3493 70.756C91.3493 69.4949 89.2787 68.4727 86.7245 68.4727C84.1702 68.4727 82.0996 69.4949 82.0996 70.756C82.0996 72.0171 84.1702 73.0393 86.7245 73.0393Z" fill="#F995A9"/>
<path opacity="0.5" d="M54.2831 73.0398C56.8373 73.0398 58.9079 72.0175 58.9079 70.7565C58.9079 69.4954 56.8373 68.4731 54.2831 68.4731C51.7288 68.4731 49.6582 69.4954 49.6582 70.7565C49.6582 72.0175 51.7288 73.0398 54.2831 73.0398Z" fill="#F995A9"/>
<path d="M73.1004 74.4912H67.9068C67.046 74.4912 66.3486 73.7922 66.3486 72.9299C66.3486 72.0676 67.046 71.3687 67.9068 71.3687H73.1004C73.9612 71.3687 74.6585 72.0676 74.6585 72.9299C74.6585 73.792 73.9612 74.4912 73.1004 74.4912Z" fill="#E8C5A7"/>
</svg>
