<svg width="110" height="105" viewBox="0 0 110 105" fill="none" xmlns="http://www.w3.org/2000/svg">
<path d="M10.0002 0H99.9998C105.523 0 110 4.47702 110 10.0002V85.0001C110 90.5233 105.523 95.0003 99.9998 95.0003H10.0002C4.47702 95.0003 0 90.5233 0 85.0001V10.0002C0 4.47769 4.47702 0 10.0002 0Z" fill="#14A142"/>
<path d="M22.5001 5.00012H42.4999C43.881 5.00012 44.9999 6.11971 44.9999 7.50018C44.9999 8.88065 43.881 10.0002 42.4999 10.0002H22.5001C21.1196 10.0002 20 8.88065 20 7.50018C20 6.11971 21.1196 5.00012 22.5001 5.00012Z" fill="#66CE83"/>
<path d="M52.5001 5.00012H57.5002C58.8807 5.00012 60.0002 6.11971 60.0002 7.50018C60.0002 8.88065 58.8807 10.0002 57.5002 10.0002H52.5001C51.1196 10.0002 50 8.88065 50 7.50018C50 6.11971 51.1196 5.00012 52.5001 5.00012Z" fill="#66CE83"/>
<path d="M50 85L57.9292 92.9292C59.2556 94.255 61.0538 95.0002 62.9293 95.0002C68.3318 95.0002 71.383 89.4056 69.3433 85H50Z" fill="#008732"/>
<path d="M10 10.0002H99.9995V85.0001H10V10.0002Z" fill="#008732"/>
<path d="M17.4994 80H97.5C98.8805 80 99.9994 81.1196 99.9994 82.5001C99.9994 83.8812 98.8805 85.0001 97.5 85.0001H17.4994C16.1189 85.0001 15 83.8812 15 82.5001C14.9993 81.1196 16.1189 80 17.4994 80Z" fill="#006236"/>
<path d="M15 15.0004H95V80H15V15.0004Z" fill="#163969"/>
<path d="M57.0714 72.0715C54.3098 69.3098 49.8328 69.3098 47.0718 72.0715H47.0711C44.9941 74.1638 44.445 77.3305 45.6967 80.0007H65.0006L57.0714 72.0715Z" fill="#002755"/>
<path d="M87.5004 15.0004H15V72.5004C15 73.8809 16.1196 74.9998 17.5001 74.9998C18.8805 74.9998 20.0001 73.8809 20.0001 72.5004V20.0005H87.5004C88.8809 20.0005 89.9998 18.8809 89.9998 17.5004C89.9998 16.1193 88.8809 15.0004 87.5004 15.0004Z" fill="#002755"/>
<path d="M52.0707 62.0712C54.8323 59.3096 59.3093 59.3096 62.0709 62.0712L92.9284 92.9293C95.69 95.6909 95.69 100.168 92.9284 102.93C90.1674 105.69 85.6897 105.69 82.9288 102.93L52.0707 72.0714C49.3098 69.3098 49.3098 64.8328 52.0707 62.0712Z" fill="#DFE5FF"/>
<path d="M37.4998 54.9999C36.1186 54.9999 34.9997 53.881 34.9997 52.5005V43.5351L24.2675 54.268C23.2914 55.2441 21.7081 55.2441 20.7319 54.268C20.2629 53.7989 20 53.1631 20 52.4999V37.5002C19.998 36.1197 21.1163 34.9988 22.4974 34.9974C23.8779 34.9961 24.9981 36.1144 24.9995 37.4948C24.9995 37.4968 24.9995 37.4982 24.9995 37.5002V46.4649L35.7323 35.7327C36.7084 34.7566 38.2911 34.7559 39.2672 35.732C39.7363 36.2011 39.9998 36.837 39.9998 37.5002V46.4656L50.732 35.7327C51.7081 34.7566 53.2908 34.7566 54.2676 35.7327C54.736 36.2011 54.9995 36.8376 54.9995 37.5002V50.0005H77.4994C78.8805 50.0005 79.9994 51.1194 79.9994 52.5005C79.9994 53.881 78.8805 55.0006 77.4994 55.0006H52.4994C51.1196 55.0013 50.0001 53.883 49.9994 52.5032C49.9994 52.5025 49.9994 52.5012 49.9994 52.5005V43.5358L39.2672 54.268C38.7982 54.737 38.1623 54.9999 37.4998 54.9999Z" fill="#EBEFFF"/>
<path d="M90.0001 52.4999C90.0001 53.8811 88.8805 55 87.5001 55C86.1196 55 85 53.8811 85 52.4999C85 51.1195 86.1196 49.9999 87.5001 49.9999C88.8805 49.9999 90.0001 51.1195 90.0001 52.4999Z" fill="#DFE5FF"/>
<path d="M10.0005 15.0003L6.03585 11.0357C4.65472 9.65525 4.65472 7.41674 6.03585 6.0356C7.41633 4.65513 9.65484 4.65513 11.036 6.0356L14.9999 10.0002L10.0005 15.0003Z" fill="#008732"/>
<path d="M99.9995 15.0003L103.964 11.0357C105.345 9.65525 105.345 7.41674 103.964 6.0356C102.584 4.65513 100.345 4.65513 98.9639 6.0356L95 10.0002L99.9995 15.0003Z" fill="#008732"/>
<path d="M10.0005 80L6.03585 83.9646C4.65472 85.3457 4.65472 87.5843 6.03585 88.9647C7.41633 90.3452 9.65484 90.3452 11.036 88.9647L14.9999 85.0001L10.0005 80Z" fill="#008732"/>
<path d="M99.9995 80L103.964 83.9646C105.345 85.3457 105.345 87.5843 103.964 88.9647C102.584 90.3452 100.345 90.3452 98.9639 88.9647L95 85.0001L99.9995 80Z" fill="#006236"/>
<path d="M51.0354 66.0357C52.4165 64.6552 54.655 64.6552 56.0355 66.0357L88.9646 98.9649C90.3451 100.345 90.3451 102.584 88.9646 103.964C87.5835 105.345 85.345 105.345 83.9645 103.964L51.0354 71.0358C49.6549 69.6554 49.6549 67.4162 51.0354 66.0357Z" fill="#CCD4FF"/>
<path d="M97.5001 15.0004C98.8805 15.0004 99.9995 16.1193 99.9995 17.5004V82.5C99.9995 83.8811 98.8805 85.0001 97.5001 85.0001C96.1189 85.0001 95 83.8811 95 82.5V17.5004C94.9993 16.1193 96.1189 15.0004 97.5001 15.0004Z" fill="#006236"/>
</svg>
