<svg width="110" height="110" viewBox="0 0 110 110" fill="none" xmlns="http://www.w3.org/2000/svg">
<path d="M10.0002 9.99951C4.47702 9.99951 0 14.4765 0 19.9997V99.9996C0 105.523 4.47702 110 10.0002 110H99.9996C105.523 110 110 105.523 110 99.9996V19.9997C110 14.4765 105.523 9.99951 99.9996 9.99951H10.0002Z" fill="#CCD4FF"/>
<path d="M14.9994 94.9995H104.999C107.761 94.9995 110 97.238 110 99.9996C110 102.761 107.761 104.999 104.999 104.999H14.9994C12.2385 104.999 10 102.761 10 99.9996C10 97.238 12.2385 94.9995 14.9994 94.9995Z" fill="#B8C2FF"/>
<path d="M82.0712 92.9284L97.9289 77.0707C100.691 74.3091 105.168 74.3091 107.929 77.0707C110.691 79.8317 110.691 84.3093 107.929 87.0703L92.0714 102.929C89.3098 105.69 84.8328 105.69 82.0712 102.929C79.3096 100.167 79.3096 95.69 82.0712 92.9284Z" fill="#889AFF"/>
<path d="M10.0002 9.99951C4.47702 9.99951 0 14.4765 0 19.9997V89.9993C0 95.5226 4.47702 99.9996 10.0002 99.9996H85.858C88.5102 99.9996 91.0536 98.946 92.9291 97.0705L107.071 82.9289C108.946 81.0533 110 78.5099 110 75.8577V19.9997C110 14.4765 105.523 9.99951 99.9996 9.99951H10.0002Z" fill="#DFE5FF"/>
<path d="M7.50006 89.9994H67.5001C68.8806 89.9994 69.9995 91.119 69.9995 92.4994C69.9995 93.8806 68.8806 94.9995 67.5001 94.9995H7.50006C6.11892 94.9995 5 93.8806 5 92.4994C5 91.119 6.11892 89.9994 7.50006 89.9994Z" fill="#EFF2FF"/>
<path d="M82.5002 69.9996C86.6422 69.9996 90.0003 73.3577 90.0003 77.4998V87.5C90.0003 91.6421 86.6422 94.9995 82.5002 94.9995C78.3581 94.9995 75 91.6421 75 87.5V77.4998C75 73.3577 78.3581 69.9996 82.5002 69.9996Z" fill="#B8C2FF"/>
<path d="M5.00011 35.0001H105C107.761 35.0001 110 37.2386 110 39.9996C110 42.7612 107.761 44.9997 105 44.9997H5.00011C2.23851 44.9997 0 42.7612 0 39.9996C0 37.2386 2.23851 35.0001 5.00011 35.0001Z" fill="#B8C2FF"/>
<path d="M34.9998 84.9993C34.9998 90.5225 30.5228 94.9995 24.9996 94.9995C19.477 94.9995 15 90.5225 15 84.9993C15 79.4768 19.477 74.9998 24.9996 74.9998C30.5228 74.9998 34.9998 79.4768 34.9998 84.9993Z" fill="#4CC66E"/>
<path d="M34.9998 54.9999C34.9998 60.5224 30.5228 64.9994 24.9996 64.9994C19.477 64.9994 15 60.5224 15 54.9999C15 49.4767 19.477 44.9996 24.9996 44.9996C30.5228 44.9996 34.9998 49.4767 34.9998 54.9999Z" fill="#4CC66E"/>
<path d="M65.0005 54.9999C65.0005 60.5224 60.5234 64.9994 55.0002 64.9994C49.4777 64.9994 45 60.5224 45 54.9999C45 49.4767 49.4777 44.9996 55.0002 44.9996C60.5234 44.9996 65.0005 49.4767 65.0005 54.9999Z" fill="#4CC66E"/>
<path d="M94.9998 54.9999C94.9998 60.5224 90.5228 64.9994 85.0002 64.9994C79.477 64.9994 75 60.5224 75 54.9999C75 49.4767 79.477 44.9996 85.0002 44.9996C90.5228 44.9996 94.9998 49.4767 94.9998 54.9999Z" fill="#4CC66E"/>
<path d="M72.9288 82.0702L63.5357 91.4639C58.8212 96.1778 51.1789 96.1778 46.4643 91.4639L42.0707 87.0703C39.3098 84.3093 39.3098 79.8323 42.0707 77.0707H42.0714C44.8323 74.3091 49.3093 74.3091 52.0709 77.0707L55 79.9998L62.9292 72.0706C65.6901 69.309 70.1678 69.309 72.9288 72.0706C75.6904 74.8322 75.6904 79.3092 72.9288 82.0702Z" fill="#FFA300"/>
<path d="M10.0002 9.99951H99.9996C105.523 9.99951 110 14.4765 110 19.9997V34.9994C110 37.761 107.761 39.9995 105 39.9995H5.00011C2.23851 39.9995 0 37.761 0 35.0001V19.9997C0 14.4765 4.47702 9.99951 10.0002 9.99951Z" fill="#BC5CF3"/>
<path d="M10.0001 14.9996H15.0002C17.7612 14.9996 19.9997 17.2381 19.9997 19.9997C19.9997 22.7614 17.7612 24.9999 15.0002 24.9999H10.0001C7.23851 24.9999 5 22.7614 5 19.9997C5 17.2381 7.23851 14.9996 10.0001 14.9996Z" fill="#D39CFF"/>
<path d="M40.0001 14.9996H44.9996C47.7612 14.9996 49.9997 17.2381 49.9997 19.9997C49.9997 22.7614 47.7612 24.9999 44.9996 24.9999H40.0001C37.2385 24.9999 35 22.7614 35 19.9997C35 17.2381 37.2385 14.9996 40.0001 14.9996Z" fill="#D39CFF"/>
<path d="M29.9996 24.9999C29.9996 27.7615 27.7611 30 24.9994 30C22.2385 30 20 27.7615 20 24.9999C20 22.2383 22.2385 19.9998 24.9994 19.9998C27.7611 19.9998 29.9996 22.2383 29.9996 24.9999Z" fill="#9D11EE"/>
<path d="M90.0002 24.9999C90.0002 27.7615 87.7617 30 85.0001 30C82.2385 30 80 27.7615 80 24.9999C80 22.2383 82.2385 19.9998 85.0001 19.9998C87.7617 19.9998 90.0002 22.2383 90.0002 24.9999Z" fill="#9D11EE"/>
<path d="M24.9994 0C27.7611 0 29.9996 2.23851 29.9996 4.99945V19.9998C29.9996 22.7614 27.7611 24.9999 24.9994 24.9999C22.2385 24.9999 20 22.7614 20 19.9998V4.99945C19.9993 2.23851 22.2378 0 24.9994 0Z" fill="#FFD700"/>
<path d="M85.0001 0C87.7611 0 90.0002 2.23851 90.0002 4.99945V19.9998C90.0002 22.7614 87.7617 24.9999 85.0001 24.9999C82.2385 24.9999 80 22.7614 80 19.9998V4.99945C80 2.23851 82.2385 0 85.0001 0Z" fill="#FFD700"/>
<path d="M10.0001 30H99.9995C102.761 30 105 32.2385 105 34.9994C105 37.7611 102.761 39.9996 99.9995 39.9996H10.0001C7.23851 39.9996 5 37.7611 5 34.9994C5 32.2385 7.23851 30 10.0001 30Z" fill="#9D11EE"/>
<path d="M37.5001 24.9999H77.4996C78.8808 24.9999 79.9997 26.1188 79.9997 27.4999C79.9997 28.8804 78.8808 30 77.4996 30H37.5001C36.1189 30 35 28.8804 35 27.4999C35 26.1188 36.1189 24.9999 37.5001 24.9999Z" fill="#C175FF"/>
<path d="M7.50006 24.9999H12.5002C13.8806 24.9999 15.0002 26.1188 15.0002 27.4999C15.0002 28.8804 13.8806 30 12.5002 30H7.50006C6.11892 30 5 28.8804 5 27.4999C5 26.1188 6.11892 24.9999 7.50006 24.9999Z" fill="#C175FF"/>
<path d="M87.0712 69.9996H102.929C106.834 69.9996 110 73.1656 110 77.0708C110 78.9463 109.255 80.7445 107.929 82.0709L92.0713 97.9286C90.7455 99.2544 88.9467 99.9997 87.0712 99.9997C83.1659 99.9997 80 96.8337 80 92.9285V77.0708C80 73.1656 83.1659 69.9996 87.0712 69.9996Z" fill="#EFF2FF"/>
<path d="M22.5001 5.00012C23.8805 5.00012 25.0001 6.11904 25.0001 7.49951V17.4997C25.0001 18.8802 23.8805 19.9998 22.5001 19.9998C21.1196 19.9998 20 18.8802 20 17.4997V7.49951C20 6.11904 21.1196 5.00012 22.5001 5.00012Z" fill="#FFBE00"/>
<path d="M82.5001 5.00012C83.8805 5.00012 85.0001 6.11904 85.0001 7.49951V17.4997C85.0001 18.8802 83.8805 19.9998 82.5001 19.9998C81.1196 19.9998 80 18.8802 80 17.4997V7.49951C80 6.11904 81.1196 5.00012 82.5001 5.00012Z" fill="#FFBE00"/>
<path d="M24.9996 49.9997C24.9996 52.7607 22.7611 54.9999 19.9994 54.9999C17.2385 54.9999 15 52.7607 15 49.9997C15 47.2381 17.2385 44.9996 19.9994 44.9996C22.7611 44.9996 24.9996 47.2381 24.9996 49.9997Z" fill="#84D89C"/>
<path d="M25.0002 79.9999C25.0002 82.7615 22.7617 85 20.0001 85C17.2385 85 15 82.7615 15 79.9999C15 77.2383 17.2385 74.9998 20.0001 74.9998C22.7617 74.9998 25.0002 77.2383 25.0002 79.9999Z" fill="#84D89C"/>
<path d="M55.0002 49.9997C55.0002 52.7607 52.7617 54.9999 50.0001 54.9999C47.2392 54.9999 45 52.7607 45 49.9997C45 47.2381 47.2392 44.9996 50.0001 44.9996C52.7617 44.9996 55.0002 47.2381 55.0002 49.9997Z" fill="#84D89C"/>
<path d="M85.0002 49.9997C85.0002 52.7614 82.7617 54.9999 80.0001 54.9999C77.2385 54.9999 75 52.7614 75 49.9997C75 47.2381 77.2385 44.9996 80.0001 44.9996C82.7617 44.9996 85.0002 47.2381 85.0002 49.9997Z" fill="#84D89C"/>
<path d="M57.5002 87.4999L67.5004 77.4997C68.8809 76.1192 71.1194 76.1192 72.4999 77.4997C73.881 78.8802 73.881 81.1187 72.4999 82.4998L62.5003 92.4994C61.1192 93.8805 58.8807 93.8805 57.5002 92.4994C56.1197 91.1189 56.1197 88.8804 57.5002 87.4999Z" fill="#F98B00"/>
<path d="M46.0354 76.0352C47.4165 74.6548 49.655 74.6548 51.0355 76.0352L53.9645 78.9643C55.345 80.3448 55.345 82.5833 53.9645 83.9638C52.5834 85.3449 50.3449 85.3449 48.9644 83.9638L46.0354 81.0353C44.6549 79.6549 44.6549 77.4157 46.0354 76.0352Z" fill="#FFBE00"/>
</svg>
