<svg width="115" height="40" viewBox="0 0 115 40" fill="none" xmlns="http://www.w3.org/2000/svg">
<path d="M54.2294 16.5759C54.2294 17.0346 54.592 17.3973 55.0507 17.3973C55.5094 17.3973 55.872 17.0346 55.872 16.5759V14.9439H57.184L58.784 16.9706C58.976 17.2159 59.2214 17.3973 59.5947 17.3973C59.9894 17.3973 60.3734 17.0986 60.3734 16.6399C60.3734 16.3839 60.2667 16.2133 60.1067 16.0106L58.9654 14.6239C59.872 14.2506 60.4587 13.5253 60.4587 12.3519V12.3306C60.4587 11.6266 60.2347 11.0399 59.8187 10.6239C59.328 10.1333 58.592 9.8666 57.6427 9.8666H55.0507C54.592 9.8666 54.2294 10.2293 54.2294 10.6879V16.5759ZM55.872 13.4933V11.3493H57.504C58.304 11.3493 58.7947 11.7119 58.7947 12.4159V12.4373C58.7947 13.0666 58.336 13.4933 57.536 13.4933H55.872Z" fill="#333333"/>
<path d="M67.1857 17.4506C69.191 17.4506 70.4604 16.3413 70.4604 14.0799V10.6239C70.4604 10.1653 70.0977 9.8026 69.639 9.8026C69.1804 9.8026 68.8177 10.1653 68.8177 10.6239V14.1439C68.8177 15.3279 68.2097 15.9359 67.207 15.9359C66.2044 15.9359 65.5964 15.3066 65.5964 14.0906V10.6239C65.5964 10.1653 65.2337 9.8026 64.775 9.8026C64.3164 9.8026 63.9537 10.1653 63.9537 10.6239V14.1333C63.9537 16.3306 65.1804 17.4506 67.1857 17.4506Z" fill="#333333"/>
<path d="M76.9229 17.4399C78.5335 17.4399 79.6642 16.6079 79.6642 15.1253V15.1039C79.6642 13.8026 78.8109 13.2586 77.2962 12.8639C76.0055 12.5333 75.6855 12.3733 75.6855 11.8826V11.8613C75.6855 11.4986 76.0162 11.2106 76.6455 11.2106C77.1575 11.2106 77.6695 11.3919 78.2135 11.7119C78.3415 11.7866 78.4695 11.8293 78.6295 11.8293C79.0562 11.8293 79.3975 11.4986 79.3975 11.0719C79.3975 10.7519 79.2162 10.5279 79.0349 10.4213C78.3629 9.9946 77.5735 9.75993 76.6669 9.75993C75.1415 9.75993 74.0535 10.6559 74.0535 12.0106V12.0319C74.0535 13.5146 75.0242 13.9306 76.5282 14.3146C77.7762 14.6346 78.0322 14.8479 78.0322 15.2639V15.2853C78.0322 15.7226 77.6269 15.9893 76.9549 15.9893C76.2295 15.9893 75.6109 15.7333 75.0455 15.3173C74.9389 15.2426 74.7895 15.1679 74.5762 15.1679C74.1495 15.1679 73.8082 15.4986 73.8082 15.9253C73.8082 16.1813 73.9362 16.4159 74.1175 16.5439C74.9495 17.1413 75.9415 17.4399 76.9229 17.4399Z" fill="#333333"/>
<path d="M85.775 17.4399C87.3856 17.4399 88.5163 16.6079 88.5163 15.1253V15.1039C88.5163 13.8026 87.663 13.2586 86.1483 12.8639C84.8576 12.5333 84.5376 12.3733 84.5376 11.8826V11.8613C84.5376 11.4986 84.8683 11.2106 85.4976 11.2106C86.0096 11.2106 86.5216 11.3919 87.0656 11.7119C87.1936 11.7866 87.3216 11.8293 87.4816 11.8293C87.9083 11.8293 88.2496 11.4986 88.2496 11.0719C88.2496 10.7519 88.0683 10.5279 87.887 10.4213C87.215 9.9946 86.4256 9.75993 85.519 9.75993C83.9936 9.75993 82.9056 10.6559 82.9056 12.0106V12.0319C82.9056 13.5146 83.8763 13.9306 85.3803 14.3146C86.6283 14.6346 86.8843 14.8479 86.8843 15.2639V15.2853C86.8843 15.7226 86.479 15.9893 85.807 15.9893C85.0816 15.9893 84.463 15.7333 83.8976 15.3173C83.791 15.2426 83.6416 15.1679 83.4283 15.1679C83.0016 15.1679 82.6603 15.4986 82.6603 15.9253C82.6603 16.1813 82.7883 16.4159 82.9696 16.5439C83.8016 17.1413 84.7936 17.4399 85.775 17.4399Z" fill="#333333"/>
<path d="M92.1499 16.5759C92.1499 17.0346 92.5126 17.3973 92.9712 17.3973C93.4299 17.3973 93.7926 17.0346 93.7926 16.5759V10.6239C93.7926 10.1653 93.4299 9.8026 92.9712 9.8026C92.5126 9.8026 92.1499 10.1653 92.1499 10.6239V16.5759Z" fill="#333333"/>
<path d="M97.2799 16.6293C97.2799 17.0559 97.6105 17.3973 98.0372 17.3973C98.3786 17.3973 98.6559 17.2053 98.7946 16.8853L99.3172 15.6586H102.603L103.104 16.8319C103.253 17.1733 103.509 17.3973 103.893 17.3973C104.331 17.3973 104.672 17.0453 104.672 16.6079C104.672 16.5013 104.64 16.3946 104.587 16.2773L101.984 10.3999C101.803 9.9946 101.483 9.74927 101.035 9.74927H100.939C100.491 9.74927 100.16 9.9946 99.9786 10.3999L97.3759 16.2773C97.3226 16.3946 97.2799 16.5119 97.2799 16.6293ZM99.9252 14.2079L100.96 11.7439L101.995 14.2079H99.9252Z" fill="#333333"/>
<path d="M108.092 16.5866C108.092 17.0346 108.455 17.3973 108.903 17.3973C109.351 17.3973 109.713 17.0346 109.713 16.5866V12.5866L112.999 16.8959C113.223 17.1839 113.457 17.3759 113.852 17.3759H113.905C114.364 17.3759 114.727 17.0133 114.727 16.5546V10.6133C114.727 10.1653 114.364 9.8026 113.916 9.8026C113.468 9.8026 113.105 10.1653 113.105 10.6133V14.4639L109.937 10.3039C109.713 10.0159 109.479 9.82393 109.084 9.82393H108.913C108.455 9.82393 108.092 10.1866 108.092 10.6453V16.5866Z" fill="#333333"/>
<path d="M54.0054 28.7653C54.0054 29.1093 54.2774 29.3813 54.6214 29.3813C54.9654 29.3813 55.2374 29.1093 55.2374 28.7653V27.1653H57.3974C57.7094 27.1653 57.9574 26.9173 57.9574 26.6053C57.9574 26.2933 57.7094 26.0453 57.3974 26.0453H55.2374V24.8533H57.7574C58.0694 24.8533 58.3174 24.6053 58.3174 24.2933C58.3174 23.9813 58.0694 23.7333 57.7574 23.7333H54.6214C54.2774 23.7333 54.0054 24.0053 54.0054 24.3493V28.7653Z" fill="#333333"/>
<path d="M62.7754 29.4293C64.5034 29.4293 65.7594 28.1253 65.7594 26.5333V26.5173C65.7594 24.9253 64.5194 23.6373 62.7914 23.6373C61.0634 23.6373 59.8074 24.9413 59.8074 26.5333V26.5493C59.8074 28.1413 61.0474 29.4293 62.7754 29.4293ZM62.7914 28.2933C61.7994 28.2933 61.0954 27.4933 61.0954 26.5333V26.5173C61.0954 25.5573 61.7834 24.7733 62.7754 24.7733C63.7674 24.7733 64.4714 25.5733 64.4714 26.5333V26.5493C64.4714 27.5093 63.7834 28.2933 62.7914 28.2933Z" fill="#333333"/>
<path d="M67.6523 28.7653C67.6523 29.1093 67.9243 29.3813 68.2683 29.3813C68.6123 29.3813 68.8843 29.1093 68.8843 28.7653V27.5413H69.8683L71.0683 29.0613C71.2123 29.2453 71.3963 29.3813 71.6763 29.3813C71.9723 29.3813 72.2603 29.1573 72.2603 28.8133C72.2603 28.6213 72.1803 28.4933 72.0603 28.3413L71.2043 27.3013C71.8843 27.0213 72.3243 26.4773 72.3243 25.5973V25.5813C72.3243 25.0533 72.1563 24.6133 71.8443 24.3013C71.4763 23.9333 70.9243 23.7333 70.2123 23.7333H68.2683C67.9243 23.7333 67.6523 24.0053 67.6523 24.3493V28.7653ZM68.8843 26.4533V24.8453H70.1083C70.7083 24.8453 71.0763 25.1173 71.0763 25.6453V25.6613C71.0763 26.1333 70.7323 26.4533 70.1323 26.4533H68.8843Z" fill="#333333"/>
<path d="M78.8959 28.7653C78.8959 29.1093 79.1679 29.3813 79.5119 29.3813C79.8559 29.3813 80.1279 29.1093 80.1279 28.7653V27.1493L81.9359 24.7093C82.0159 24.5973 82.0959 24.4453 82.0959 24.2773C82.0959 23.9413 81.8719 23.6773 81.4959 23.6773C81.2399 23.6773 81.0559 23.8213 80.9039 24.0453L79.5199 26.0213L78.1599 24.0613C78.0079 23.8373 77.8319 23.6853 77.5519 23.6853C77.2079 23.6853 76.9359 23.9493 76.9359 24.2773C76.9359 24.4533 76.9999 24.5973 77.0879 24.7173L78.8959 27.1733V28.7653Z" fill="#333333"/>
<path d="M86.1785 29.4293C87.9065 29.4293 89.1625 28.1253 89.1625 26.5333V26.5173C89.1625 24.9253 87.9225 23.6373 86.1945 23.6373C84.4665 23.6373 83.2105 24.9413 83.2105 26.5333V26.5493C83.2105 28.1413 84.4505 29.4293 86.1785 29.4293ZM86.1945 28.2933C85.2025 28.2933 84.4985 27.4933 84.4985 26.5333V26.5173C84.4985 25.5573 85.1865 24.7733 86.1785 24.7733C87.1705 24.7733 87.8745 25.5733 87.8745 26.5333V26.5493C87.8745 27.5093 87.1865 28.2933 86.1945 28.2933Z" fill="#333333"/>
<path d="M93.3914 29.4213C94.8954 29.4213 95.8474 28.5893 95.8474 26.8933V24.3013C95.8474 23.9573 95.5754 23.6853 95.2314 23.6853C94.8874 23.6853 94.6154 23.9573 94.6154 24.3013V26.9413C94.6154 27.8293 94.1594 28.2853 93.4074 28.2853C92.6554 28.2853 92.1994 27.8133 92.1994 26.9013V24.3013C92.1994 23.9573 91.9274 23.6853 91.5834 23.6853C91.2394 23.6853 90.9674 23.9573 90.9674 24.3013V26.9333C90.9674 28.5813 91.8874 29.4213 93.3914 29.4213Z" fill="#333333"/>
<path d="M33.5653 34.8509L6.55225 2.23279L18.3662 4.04369L38.7323 28.64L33.5653 34.8509Z" fill="#0F3CC0"/>
<path opacity="0.9" d="M10.0811 18.5383L25.1686 36.7565L40.0001 40.0001L23.136 19.7965L10.0811 18.5383Z" fill="#FF0C06"/>
<path d="M5.48145 0L24.445 22.8945L15.1385 22.0145L0 3.85453L5.48145 0Z" fill="#29A6FC"/>
</svg>
