<svg width="115" height="40" viewBox="0 0 115 40" fill="none" xmlns="http://www.w3.org/2000/svg">
<path d="M54.2294 16.5762C54.2294 17.0348 54.592 17.3975 55.0507 17.3975C55.5094 17.3975 55.872 17.0348 55.872 16.5762V14.9442H57.184L58.784 16.9708C58.976 17.2162 59.2214 17.3975 59.5947 17.3975C59.9894 17.3975 60.3734 17.0988 60.3734 16.6402C60.3734 16.3842 60.2667 16.2135 60.1067 16.0108L58.9654 14.6242C59.872 14.2508 60.4587 13.5255 60.4587 12.3522V12.3308C60.4587 11.6268 60.2347 11.0402 59.8187 10.6242C59.328 10.1335 58.592 9.86684 57.6427 9.86684H55.0507C54.592 9.86684 54.2294 10.2295 54.2294 10.6882V16.5762ZM55.872 13.4935V11.3495H57.504C58.304 11.3495 58.7947 11.7122 58.7947 12.4162V12.4375C58.7947 13.0668 58.336 13.4935 57.536 13.4935H55.872Z" fill="white"/>
<path d="M67.1857 17.4508C69.191 17.4508 70.4604 16.3415 70.4604 14.0802V10.6242C70.4604 10.1655 70.0977 9.80285 69.639 9.80285C69.1804 9.80285 68.8177 10.1655 68.8177 10.6242V14.1442C68.8177 15.3282 68.2097 15.9362 67.207 15.9362C66.2044 15.9362 65.5964 15.3068 65.5964 14.0908V10.6242C65.5964 10.1655 65.2337 9.80285 64.775 9.80285C64.3164 9.80285 63.9537 10.1655 63.9537 10.6242V14.1335C63.9537 16.3308 65.1804 17.4508 67.1857 17.4508Z" fill="white"/>
<path d="M76.9229 17.4402C78.5335 17.4402 79.6642 16.6082 79.6642 15.1255V15.1042C79.6642 13.8028 78.8109 13.2588 77.2962 12.8642C76.0055 12.5335 75.6855 12.3735 75.6855 11.8828V11.8615C75.6855 11.4988 76.0162 11.2108 76.6455 11.2108C77.1575 11.2108 77.6695 11.3922 78.2135 11.7122C78.3415 11.7868 78.4695 11.8295 78.6295 11.8295C79.0562 11.8295 79.3975 11.4988 79.3975 11.0722C79.3975 10.7522 79.2162 10.5282 79.0349 10.4215C78.3629 9.99485 77.5735 9.76018 76.6669 9.76018C75.1415 9.76018 74.0535 10.6562 74.0535 12.0108V12.0322C74.0535 13.5148 75.0242 13.9308 76.5282 14.3148C77.7762 14.6348 78.0322 14.8482 78.0322 15.2642V15.2855C78.0322 15.7228 77.6269 15.9895 76.9549 15.9895C76.2295 15.9895 75.6109 15.7335 75.0455 15.3175C74.9389 15.2428 74.7895 15.1682 74.5762 15.1682C74.1495 15.1682 73.8082 15.4988 73.8082 15.9255C73.8082 16.1815 73.9362 16.4162 74.1175 16.5442C74.9495 17.1415 75.9415 17.4402 76.9229 17.4402Z" fill="white"/>
<path d="M85.775 17.4402C87.3856 17.4402 88.5163 16.6082 88.5163 15.1255V15.1042C88.5163 13.8028 87.663 13.2588 86.1483 12.8642C84.8576 12.5335 84.5376 12.3735 84.5376 11.8828V11.8615C84.5376 11.4988 84.8683 11.2108 85.4976 11.2108C86.0096 11.2108 86.5216 11.3922 87.0656 11.7122C87.1936 11.7868 87.3216 11.8295 87.4816 11.8295C87.9083 11.8295 88.2496 11.4988 88.2496 11.0722C88.2496 10.7522 88.0683 10.5282 87.887 10.4215C87.215 9.99485 86.4256 9.76018 85.519 9.76018C83.9936 9.76018 82.9056 10.6562 82.9056 12.0108V12.0322C82.9056 13.5148 83.8763 13.9308 85.3803 14.3148C86.6283 14.6348 86.8843 14.8482 86.8843 15.2642V15.2855C86.8843 15.7228 86.479 15.9895 85.807 15.9895C85.0816 15.9895 84.463 15.7335 83.8976 15.3175C83.791 15.2428 83.6416 15.1682 83.4283 15.1682C83.0016 15.1682 82.6603 15.4988 82.6603 15.9255C82.6603 16.1815 82.7883 16.4162 82.9696 16.5442C83.8016 17.1415 84.7936 17.4402 85.775 17.4402Z" fill="white"/>
<path d="M92.1499 16.5762C92.1499 17.0348 92.5126 17.3975 92.9712 17.3975C93.4299 17.3975 93.7926 17.0348 93.7926 16.5762V10.6242C93.7926 10.1655 93.4299 9.80285 92.9712 9.80285C92.5126 9.80285 92.1499 10.1655 92.1499 10.6242V16.5762Z" fill="white"/>
<path d="M97.2799 16.6295C97.2799 17.0562 97.6105 17.3975 98.0372 17.3975C98.3786 17.3975 98.6559 17.2055 98.7946 16.8855L99.3172 15.6588H102.603L103.104 16.8322C103.253 17.1735 103.509 17.3975 103.893 17.3975C104.331 17.3975 104.672 17.0455 104.672 16.6082C104.672 16.5015 104.64 16.3948 104.587 16.2775L101.984 10.4002C101.803 9.99485 101.483 9.74951 101.035 9.74951H100.939C100.491 9.74951 100.16 9.99485 99.9786 10.4002L97.3759 16.2775C97.3226 16.3948 97.2799 16.5122 97.2799 16.6295ZM99.9252 14.2082L100.96 11.7442L101.995 14.2082H99.9252Z" fill="white"/>
<path d="M108.092 16.5868C108.092 17.0348 108.455 17.3975 108.903 17.3975C109.351 17.3975 109.713 17.0348 109.713 16.5868V12.5868L112.999 16.8962C113.223 17.1842 113.457 17.3762 113.852 17.3762H113.905C114.364 17.3762 114.727 17.0135 114.727 16.5548V10.6135C114.727 10.1655 114.364 9.80285 113.916 9.80285C113.468 9.80285 113.105 10.1655 113.105 10.6135V14.4642L109.937 10.3042C109.713 10.0162 109.479 9.82418 109.084 9.82418H108.913C108.455 9.82418 108.092 10.1868 108.092 10.6455V16.5868Z" fill="white"/>
<path d="M54.0054 28.7655C54.0054 29.1095 54.2774 29.3815 54.6214 29.3815C54.9654 29.3815 55.2374 29.1095 55.2374 28.7655V27.1655H57.3974C57.7094 27.1655 57.9574 26.9175 57.9574 26.6055C57.9574 26.2935 57.7094 26.0455 57.3974 26.0455H55.2374V24.8535H57.7574C58.0694 24.8535 58.3174 24.6055 58.3174 24.2935C58.3174 23.9815 58.0694 23.7335 57.7574 23.7335H54.6214C54.2774 23.7335 54.0054 24.0055 54.0054 24.3495V28.7655Z" fill="white"/>
<path d="M62.7754 29.4295C64.5034 29.4295 65.7594 28.1255 65.7594 26.5335V26.5175C65.7594 24.9255 64.5194 23.6375 62.7914 23.6375C61.0634 23.6375 59.8074 24.9415 59.8074 26.5335V26.5495C59.8074 28.1415 61.0474 29.4295 62.7754 29.4295ZM62.7914 28.2935C61.7994 28.2935 61.0954 27.4935 61.0954 26.5335V26.5175C61.0954 25.5575 61.7834 24.7735 62.7754 24.7735C63.7674 24.7735 64.4714 25.5735 64.4714 26.5335V26.5495C64.4714 27.5095 63.7834 28.2935 62.7914 28.2935Z" fill="white"/>
<path d="M67.6523 28.7655C67.6523 29.1095 67.9243 29.3815 68.2683 29.3815C68.6123 29.3815 68.8843 29.1095 68.8843 28.7655V27.5415H69.8683L71.0683 29.0615C71.2123 29.2455 71.3963 29.3815 71.6763 29.3815C71.9723 29.3815 72.2603 29.1575 72.2603 28.8135C72.2603 28.6215 72.1803 28.4935 72.0603 28.3415L71.2043 27.3015C71.8843 27.0215 72.3243 26.4775 72.3243 25.5975V25.5815C72.3243 25.0535 72.1563 24.6135 71.8443 24.3015C71.4763 23.9335 70.9243 23.7335 70.2123 23.7335H68.2683C67.9243 23.7335 67.6523 24.0055 67.6523 24.3495V28.7655ZM68.8843 26.4535V24.8455H70.1083C70.7083 24.8455 71.0763 25.1175 71.0763 25.6455V25.6615C71.0763 26.1335 70.7323 26.4535 70.1323 26.4535H68.8843Z" fill="white"/>
<path d="M78.8959 28.7655C78.8959 29.1095 79.1679 29.3815 79.5119 29.3815C79.8559 29.3815 80.1279 29.1095 80.1279 28.7655V27.1495L81.9359 24.7095C82.0159 24.5975 82.0959 24.4455 82.0959 24.2775C82.0959 23.9415 81.8719 23.6775 81.4959 23.6775C81.2399 23.6775 81.0559 23.8215 80.9039 24.0455L79.5199 26.0215L78.1599 24.0615C78.0079 23.8375 77.8319 23.6855 77.5519 23.6855C77.2079 23.6855 76.9359 23.9495 76.9359 24.2775C76.9359 24.4535 76.9999 24.5975 77.0879 24.7175L78.8959 27.1735V28.7655Z" fill="white"/>
<path d="M86.1785 29.4295C87.9065 29.4295 89.1625 28.1255 89.1625 26.5335V26.5175C89.1625 24.9255 87.9225 23.6375 86.1945 23.6375C84.4665 23.6375 83.2105 24.9415 83.2105 26.5335V26.5495C83.2105 28.1415 84.4505 29.4295 86.1785 29.4295ZM86.1945 28.2935C85.2025 28.2935 84.4985 27.4935 84.4985 26.5335V26.5175C84.4985 25.5575 85.1865 24.7735 86.1785 24.7735C87.1705 24.7735 87.8745 25.5735 87.8745 26.5335V26.5495C87.8745 27.5095 87.1865 28.2935 86.1945 28.2935Z" fill="white"/>
<path d="M93.3914 29.4215C94.8954 29.4215 95.8474 28.5895 95.8474 26.8935V24.3015C95.8474 23.9575 95.5754 23.6855 95.2314 23.6855C94.8874 23.6855 94.6154 23.9575 94.6154 24.3015V26.9415C94.6154 27.8295 94.1594 28.2855 93.4074 28.2855C92.6554 28.2855 92.1994 27.8135 92.1994 26.9015V24.3015C92.1994 23.9575 91.9274 23.6855 91.5834 23.6855C91.2394 23.6855 90.9674 23.9575 90.9674 24.3015V26.9335C90.9674 28.5815 91.8874 29.4215 93.3914 29.4215Z" fill="white"/>
<path d="M33.5653 34.851L6.55225 2.23291L18.3662 4.04381L38.7323 28.6401L33.5653 34.851Z" fill="white"/>
<path opacity="0.9" d="M10.0811 18.5381L25.1686 36.7562L40.0001 39.9998L23.136 19.7963L10.0811 18.5381Z" fill="#FF0C06"/>
<path d="M5.48145 0L24.445 22.8945L15.1385 22.0145L0 3.85453L5.48145 0Z" fill="#29A6FC"/>
</svg>
