<svg width="92" height="31" viewBox="0 0 92 31" fill="none" xmlns="http://www.w3.org/2000/svg">
<path d="M0.344 10.864C0.344 11.552 0.888 12.096 1.576 12.096C2.264 12.096 2.808 11.552 2.808 10.864V8.416H4.776L7.176 11.456C7.464 11.824 7.832 12.096 8.392 12.096C8.984 12.096 9.56 11.648 9.56 10.96C9.56 10.576 9.4 10.32 9.16 10.016L7.448 7.936C8.808 7.376 9.688 6.288 9.688 4.528V4.496C9.688 3.44 9.352 2.56 8.728 1.936C7.992 1.2 6.888 0.799999 5.464 0.799999H1.576C0.888 0.799999 0.344 1.344 0.344 2.032V10.864ZM2.808 6.24V3.024H5.256C6.456 3.024 7.192 3.568 7.192 4.624V4.656C7.192 5.6 6.504 6.24 5.304 6.24H2.808ZM19.7785 12.176C22.7865 12.176 24.6905 10.512 24.6905 7.12V1.936C24.6905 1.248 24.1465 0.704 23.4585 0.704C22.7705 0.704 22.2265 1.248 22.2265 1.936V7.216C22.2265 8.992 21.3145 9.904 19.8105 9.904C18.3065 9.904 17.3945 8.96 17.3945 7.136V1.936C17.3945 1.248 16.8505 0.704 16.1625 0.704C15.4745 0.704 14.9305 1.248 14.9305 1.936V7.2C14.9305 10.496 16.7705 12.176 19.7785 12.176ZM34.3842 12.16C36.8003 12.16 38.4963 10.912 38.4963 8.688V8.656C38.4963 6.704 37.2163 5.888 34.9443 5.296C33.0082 4.8 32.5282 4.56 32.5282 3.824V3.792C32.5282 3.248 33.0242 2.816 33.9682 2.816C34.7362 2.816 35.5043 3.088 36.3203 3.568C36.5122 3.68 36.7042 3.744 36.9443 3.744C37.5843 3.744 38.0962 3.248 38.0962 2.608C38.0962 2.128 37.8243 1.792 37.5522 1.632C36.5443 0.992 35.3602 0.639999 34.0002 0.639999C31.7122 0.639999 30.0802 1.984 30.0802 4.016V4.048C30.0802 6.272 31.5362 6.896 33.7922 7.472C35.6642 7.952 36.0482 8.272 36.0482 8.896V8.928C36.0482 9.584 35.4402 9.984 34.4323 9.984C33.3442 9.984 32.4162 9.6 31.5682 8.976C31.4082 8.864 31.1842 8.752 30.8642 8.752C30.2242 8.752 29.7122 9.248 29.7122 9.888C29.7122 10.272 29.9042 10.624 30.1762 10.816C31.4242 11.712 32.9122 12.16 34.3842 12.16ZM47.6624 12.16C50.0784 12.16 51.7744 10.912 51.7744 8.688V8.656C51.7744 6.704 50.4944 5.888 48.2224 5.296C46.2864 4.8 45.8064 4.56 45.8064 3.824V3.792C45.8064 3.248 46.3024 2.816 47.2464 2.816C48.0144 2.816 48.7824 3.088 49.5984 3.568C49.7904 3.68 49.9824 3.744 50.2224 3.744C50.8624 3.744 51.3744 3.248 51.3744 2.608C51.3744 2.128 51.1024 1.792 50.8304 1.632C49.8224 0.992 48.6384 0.639999 47.2784 0.639999C44.9904 0.639999 43.3584 1.984 43.3584 4.016V4.048C43.3584 6.272 44.8144 6.896 47.0704 7.472C48.9424 7.952 49.3264 8.272 49.3264 8.896V8.928C49.3264 9.584 48.7184 9.984 47.7104 9.984C46.6224 9.984 45.6944 9.6 44.8464 8.976C44.6864 8.864 44.4624 8.752 44.1424 8.752C43.5024 8.752 42.9904 9.248 42.9904 9.888C42.9904 10.272 43.1824 10.624 43.4544 10.816C44.7024 11.712 46.1904 12.16 47.6624 12.16ZM57.2247 10.864C57.2247 11.552 57.7687 12.096 58.4567 12.096C59.1447 12.096 59.6887 11.552 59.6887 10.864V1.936C59.6887 1.248 59.1447 0.704 58.4567 0.704C57.7687 0.704 57.2247 1.248 57.2247 1.936V10.864ZM64.9198 10.944C64.9198 11.584 65.4158 12.096 66.0558 12.096C66.5678 12.096 66.9838 11.808 67.1918 11.328L67.9758 9.488H72.9038L73.6558 11.248C73.8798 11.76 74.2638 12.096 74.8398 12.096C75.4958 12.096 76.0078 11.568 76.0078 10.912C76.0078 10.752 75.9598 10.592 75.8798 10.416L71.9758 1.6C71.7038 0.992 71.2238 0.624 70.5518 0.624H70.4078C69.7358 0.624 69.2398 0.992 68.9678 1.6L65.0638 10.416C64.9838 10.592 64.9198 10.768 64.9198 10.944ZM68.8878 7.312L70.4398 3.616L71.9918 7.312H68.8878ZM81.1377 10.88C81.1377 11.552 81.6817 12.096 82.3537 12.096C83.0257 12.096 83.5697 11.552 83.5697 10.88V4.88L88.4977 11.344C88.8337 11.776 89.1857 12.064 89.7777 12.064H89.8577C90.5457 12.064 91.0897 11.52 91.0897 10.832V1.92C91.0897 1.248 90.5457 0.704 89.8737 0.704C89.2017 0.704 88.6577 1.248 88.6577 1.92V7.696L83.9057 1.456C83.5697 1.024 83.2177 0.735999 82.6257 0.735999H82.3697C81.6817 0.735999 81.1377 1.28 81.1377 1.968V10.88Z" fill="#1A1A1A"/>
<path d="M0.00800008 29.148C0.00800008 29.664 0.416 30.072 0.932 30.072C1.448 30.072 1.856 29.664 1.856 29.148V26.748H5.096C5.564 26.748 5.936 26.376 5.936 25.908C5.936 25.44 5.564 25.068 5.096 25.068H1.856V23.28H5.636C6.104 23.28 6.476 22.908 6.476 22.44C6.476 21.972 6.104 21.6 5.636 21.6H0.932C0.416 21.6 0.00800008 22.008 0.00800008 22.524V29.148ZM13.163 30.144C15.755 30.144 17.639 28.188 17.639 25.8V25.776C17.639 23.388 15.779 21.456 13.187 21.456C10.595 21.456 8.711 23.412 8.711 25.8V25.824C8.711 28.212 10.571 30.144 13.163 30.144ZM13.187 28.44C11.699 28.44 10.643 27.24 10.643 25.8V25.776C10.643 24.336 11.675 23.16 13.163 23.16C14.651 23.16 15.707 24.36 15.707 25.8V25.824C15.707 27.264 14.675 28.44 13.187 28.44ZM20.4783 29.148C20.4783 29.664 20.8863 30.072 21.4023 30.072C21.9183 30.072 22.3263 29.664 22.3263 29.148V27.312H23.8023L25.6023 29.592C25.8183 29.868 26.0943 30.072 26.5143 30.072C26.9583 30.072 27.3903 29.736 27.3903 29.22C27.3903 28.932 27.2703 28.74 27.0903 28.512L25.8063 26.952C26.8263 26.532 27.4863 25.716 27.4863 24.396V24.372C27.4863 23.58 27.2343 22.92 26.7663 22.452C26.2143 21.9 25.3863 21.6 24.3183 21.6H21.4023C20.8863 21.6 20.4783 22.008 20.4783 22.524V29.148ZM22.3263 25.68V23.268H24.1623C25.0623 23.268 25.6143 23.676 25.6143 24.468V24.492C25.6143 25.2 25.0983 25.68 24.1983 25.68H22.3263ZM37.3438 29.148C37.3438 29.664 37.7518 30.072 38.2678 30.072C38.7838 30.072 39.1918 29.664 39.1918 29.148V26.724L41.9038 23.064C42.0238 22.896 42.1438 22.668 42.1438 22.416C42.1438 21.912 41.8078 21.516 41.2438 21.516C40.8598 21.516 40.5838 21.732 40.3558 22.068L38.2798 25.032L36.2398 22.092C36.0118 21.756 35.7478 21.528 35.3278 21.528C34.8118 21.528 34.4038 21.924 34.4038 22.416C34.4038 22.68 34.4998 22.896 34.6318 23.076L37.3438 26.76V29.148ZM48.2677 30.144C50.8597 30.144 52.7437 28.188 52.7437 25.8V25.776C52.7437 23.388 50.8837 21.456 48.2917 21.456C45.6997 21.456 43.8157 23.412 43.8157 25.8V25.824C43.8157 28.212 45.6757 30.144 48.2677 30.144ZM48.2917 28.44C46.8037 28.44 45.7477 27.24 45.7477 25.8V25.776C45.7477 24.336 46.7797 23.16 48.2677 23.16C49.7557 23.16 50.8117 24.36 50.8117 25.8V25.824C50.8117 27.264 49.7797 28.44 48.2917 28.44ZM59.087 30.132C61.343 30.132 62.771 28.884 62.771 26.34V22.452C62.771 21.936 62.363 21.528 61.847 21.528C61.331 21.528 60.923 21.936 60.923 22.452V26.412C60.923 27.744 60.239 28.428 59.111 28.428C57.983 28.428 57.299 27.72 57.299 26.352V22.452C57.299 21.936 56.891 21.528 56.375 21.528C55.859 21.528 55.451 21.936 55.451 22.452V26.4C55.451 28.872 56.831 30.132 59.087 30.132Z" fill="#8194A6"/>
</svg>
