<svg width="60" height="60" viewBox="0 0 60 60" fill="none" xmlns="http://www.w3.org/2000/svg">
<g clip-path="url(#clip0_667_853)">
<path d="M60 30C60 39.9048 52 48 42 48C32.0952 48 24 39.9048 24 30C24 20.0952 32 12 41.9047 12C52 12 60 20.0952 60 30Z" fill="#FFB600"/>
<path d="M42 12C51.9047 12 60 20.0952 60 30C60 39.9048 52 48 42 48C32.0952 48 24 39.9048 24 30" fill="#F7981D"/>
<path d="M42 12C51.9048 12 60 20.0952 60 30C60 39.9048 52 48 42 48" fill="#FF8500"/>
<path d="M17.8095 12C8 12.0952 0 20.0952 0 30C0 39.9048 8 48 18 48C22.6667 48 26.8571 46.1905 30.0952 43.3333C30.7619 42.7619 31.3333 42.0952 31.9048 41.4286H28.1905C27.7143 40.8571 27.2381 40.1905 26.8571 39.619H33.2381C33.619 39.0476 34 38.3809 34.2857 37.7143H25.8095C25.5238 37.1429 25.2381 36.4762 25.0476 35.8095H34.9524C35.5238 34 35.9048 32.0952 35.9048 30.0952C35.9048 28.7619 35.7143 27.5238 35.5238 26.2857H24.4762C24.5714 25.619 24.7619 25.0476 24.9524 24.381H34.8571C34.6667 23.7143 34.381 23.0476 34.0952 22.4762H25.7143C26 21.8095 26.381 21.2381 26.7619 20.5714H33.1429C32.7619 19.9048 32.2857 19.2381 31.7143 18.6667H28.1905C28.7619 18 29.3333 17.4286 30 16.8571C26.8571 13.9048 22.5714 12.1905 17.9048 12.1905C17.9048 12 17.9048 12 17.8095 12Z" fill="#FF5050"/>
<path d="M0 30.0002C0 39.905 8 48.0002 18 48.0002C22.6667 48.0002 26.8571 46.1907 30.0952 43.3335C30.7619 42.7621 31.3333 42.0954 31.9048 41.4288H28.1905C27.7143 40.8573 27.2381 40.1907 26.8571 39.6192H33.2381C33.619 39.0478 34 38.3811 34.2857 37.7145H25.8095C25.5238 37.1431 25.2381 36.4764 25.0476 35.8097H34.9524C35.5238 34.0002 35.9048 32.0954 35.9048 30.0954C35.9048 28.7621 35.7143 27.524 35.5238 26.2859H24.4762C24.5714 25.6192 24.7619 25.0478 24.9524 24.3811H34.8571C34.6667 23.7145 34.381 23.0478 34.0952 22.4764H25.7143C26 21.8097 26.381 21.2383 26.7619 20.5716H33.1429C32.7619 19.905 32.2857 19.2383 31.7143 18.6669H28.1905C28.7619 18.0002 29.3333 17.4288 30 16.8573C26.8571 13.905 22.5714 12.1907 17.9048 12.1907H17.8095" fill="#E52836"/>
<path d="M18 48.0002C22.6667 48.0002 26.8572 46.1907 30.0953 43.3335C30.762 42.7621 31.3334 42.0954 31.9048 41.4288H28.1905C27.7143 40.8573 27.2381 40.1907 26.8572 39.6192H33.2381C33.6191 39.0478 34 38.3811 34.2858 37.7145H25.8096C25.5239 37.1431 25.2381 36.4764 25.0477 35.8097H34.9524C35.5239 34.0002 35.9048 32.0954 35.9048 30.0954C35.9048 28.7621 35.7143 27.524 35.5239 26.2859H24.4762C24.5715 25.6192 24.762 25.0478 24.9524 24.3811H34.8572C34.6667 23.7145 34.381 23.0478 34.0953 22.4764H25.7143C26 21.8097 26.381 21.2383 26.762 20.5716H33.1429C32.7619 19.905 32.2858 19.2383 31.7143 18.6669H28.1905C28.762 18.0002 29.3334 17.4288 30 16.8573C26.8572 13.905 22.5715 12.1907 17.9048 12.1907H17.8096" fill="#CB2026"/>
<path d="M24.381 34.5714L24.6668 32.9523C24.5715 32.9523 24.381 33.0476 24.1906 33.0476C23.5239 33.0476 23.4287 32.6666 23.5239 32.4761L24.0953 29.1428H25.1429L25.4287 27.3333H24.4763L24.6668 26.1904H22.762C22.762 26.1904 21.6191 32.4761 21.6191 33.238C21.6191 34.3809 22.2858 34.8571 23.1429 34.8571C23.7144 34.8571 24.1906 34.6666 24.381 34.5714Z" fill="white"/>
<path d="M25.0479 31.5238C25.0479 34.1905 26.8574 34.8572 28.3812 34.8572C29.8098 34.8572 30.3812 34.5715 30.3812 34.5715L30.7621 32.7619C30.7621 32.7619 29.7145 33.2381 28.7621 33.2381C26.6669 33.2381 27.0479 31.7143 27.0479 31.7143H30.9526C30.9526 31.7143 31.2383 30.4762 31.2383 30C31.2383 28.7619 30.5717 27.2381 28.4764 27.2381C26.4764 27.0477 25.0479 29.1429 25.0479 31.5238ZM28.3812 28.7619C29.4288 28.7619 29.2383 30 29.2383 30.0953H27.1431C27.1431 30 27.3336 28.7619 28.3812 28.7619Z" fill="white"/>
<path d="M40.4764 34.5713L40.8573 32.4761C40.8573 32.4761 39.9049 32.9523 39.2383 32.9523C37.9049 32.9523 37.3335 31.9047 37.3335 30.7618C37.3335 28.4761 38.4764 27.238 39.8097 27.238C40.7621 27.238 41.524 27.8094 41.524 27.8094L41.8097 25.8094C41.8097 25.8094 40.6668 25.3333 39.6192 25.3333C37.4288 25.3333 35.2383 27.238 35.2383 30.8571C35.2383 33.238 36.3811 34.857 38.6668 34.857C39.4288 34.857 40.4764 34.5713 40.4764 34.5713Z" fill="white"/>
<path d="M13.9052 27.0476C12.5718 27.0476 11.6195 27.4286 11.6195 27.4286L11.3338 29.0476C11.3338 29.0476 12.1909 28.6667 13.429 28.6667C14.0957 28.6667 14.6671 28.7619 14.6671 29.3333C14.6671 29.7143 14.5718 29.8095 14.5718 29.8095C14.5718 29.8095 14.0004 29.8095 13.7147 29.8095C12.0957 29.8095 10.2861 30.4762 10.2861 32.6666C10.2861 34.3809 11.429 34.7619 12.0957 34.7619C13.429 34.7619 14.0004 33.9047 14.0957 33.9047L14.0004 34.6666H15.7147L16.4766 29.4286C16.4766 27.1428 14.5718 27.0476 13.9052 27.0476ZM14.2861 31.3333C14.2861 31.619 14.0957 33.1428 12.9528 33.1428C12.3814 33.1428 12.1909 32.6666 12.1909 32.3809C12.1909 31.9047 12.4766 31.2381 13.9052 31.2381C14.1909 31.3333 14.2861 31.3333 14.2861 31.3333Z" fill="white"/>
<path d="M18.2862 34.7617C18.7624 34.7617 21.1433 34.8569 21.1433 32.2855C21.1433 29.9045 18.8576 30.3807 18.8576 29.4283C18.8576 28.9521 19.2386 28.7617 19.9052 28.7617C20.1909 28.7617 21.2386 28.8569 21.2386 28.8569L21.5243 27.1426C21.5243 27.1426 20.8576 26.9521 19.7148 26.9521C18.2862 26.9521 16.8576 27.5236 16.8576 29.4283C16.8576 31.6188 19.2386 31.4283 19.2386 32.2855C19.2386 32.8569 18.5719 32.9521 18.0957 32.9521C17.2386 32.9521 16.3814 32.6664 16.3814 32.6664L16.0957 34.3807C16.1909 34.5712 16.6671 34.7617 18.2862 34.7617Z" fill="white"/>
<path d="M56.286 25.5237L55.905 28.0951C55.905 28.0951 55.1431 27.1427 54.0955 27.1427C52.3812 27.1427 50.8574 29.238 50.8574 31.7142C50.8574 33.238 51.6193 34.857 53.2384 34.857C54.3812 34.857 55.0479 34.0951 55.0479 34.0951L54.9527 34.7618H56.8574L58.286 25.6189L56.286 25.5237ZM55.4288 30.5713C55.4288 31.6189 54.9527 32.9523 53.905 32.9523C53.2384 32.9523 52.8574 32.3808 52.8574 31.4284C52.8574 29.9046 53.5241 28.9523 54.3812 28.9523C55.0479 28.9523 55.4288 29.4284 55.4288 30.5713Z" fill="white"/>
<path d="M3.52437 34.6665L4.66722 27.8094L4.8577 34.6665H6.19103L8.66722 27.8094L7.61961 34.6665H9.61961L11.1434 25.5237H8.00056L6.0958 31.1427L6.00056 25.5237H3.23865L1.71484 34.6665H3.52437Z" fill="white"/>
<path d="M33.0484 34.6666C33.6198 31.5237 33.715 28.9523 35.0484 29.4285C35.2388 28.1904 35.5246 27.7142 35.715 27.238C35.715 27.238 35.6198 27.238 35.3341 27.238C34.4769 27.238 33.8103 28.3809 33.8103 28.3809L34.0007 27.3333H32.1912L30.9531 34.7618H33.0484V34.6666Z" fill="white"/>
<path d="M44.8573 27.0476C43.524 27.0476 42.5716 27.4286 42.5716 27.4286L42.2859 29.0476C42.2859 29.0476 43.143 28.6667 44.3811 28.6667C45.0478 28.6667 45.6192 28.7619 45.6192 29.3333C45.6192 29.7143 45.524 29.8095 45.524 29.8095C45.524 29.8095 44.9526 29.8095 44.6669 29.8095C43.0478 29.8095 41.2383 30.4762 41.2383 32.6666C41.2383 34.3809 42.3811 34.7619 43.0478 34.7619C44.3811 34.7619 44.9526 33.9047 45.0478 33.9047L44.9526 34.6666H46.6669L47.4288 29.4286C47.524 27.1428 45.524 27.0476 44.8573 27.0476ZM45.3335 31.3333C45.3335 31.619 45.143 33.1428 44.0002 33.1428C43.4288 33.1428 43.2383 32.6666 43.2383 32.3809C43.2383 31.9047 43.524 31.2381 44.9526 31.2381C45.2383 31.3333 45.2383 31.3333 45.3335 31.3333Z" fill="white"/>
<path d="M49.0484 34.6666C49.6198 31.5237 49.715 28.9523 51.0484 29.4285C51.2388 28.1904 51.5246 27.7142 51.715 27.238C51.715 27.238 51.6198 27.238 51.3341 27.238C50.4769 27.238 49.8103 28.3809 49.8103 28.3809L50.0007 27.3333H48.1912L46.9531 34.7618H49.0484V34.6666Z" fill="white"/>
<path d="M21.4287 33.238C21.4287 34.3809 22.0954 34.8571 22.9525 34.8571C23.6192 34.8571 24.1906 34.6666 24.3811 34.5714L24.6668 32.9523C24.5716 32.9523 24.3811 33.0476 24.1906 33.0476C23.5239 33.0476 23.4287 32.6666 23.5239 32.4761L24.0954 29.1428H25.143L25.4287 27.3333H24.4763L24.6668 26.1904" fill="#DCE5E5"/>
<path d="M26.001 31.5238C26.001 34.1905 26.8581 34.8572 28.3819 34.8572C29.8105 34.8572 30.3819 34.5715 30.3819 34.5715L30.7629 32.7619C30.7629 32.7619 29.7153 33.2381 28.7629 33.2381C26.6676 33.2381 27.0486 31.7143 27.0486 31.7143H30.9534C30.9534 31.7143 31.2391 30.4762 31.2391 30C31.2391 28.7619 30.5724 27.2381 28.4772 27.2381C26.4772 27.0477 26.001 29.1429 26.001 31.5238ZM28.3819 28.7619C29.4295 28.7619 29.62 30 29.62 30.0953H27.1438C27.1438 30 27.3343 28.7619 28.3819 28.7619Z" fill="#DCE5E5"/>
<path d="M40.4771 34.5713L40.8581 32.4761C40.8581 32.4761 39.9057 32.9523 39.239 32.9523C37.9057 32.9523 37.3343 31.9047 37.3343 30.7618C37.3343 28.4761 38.4771 27.238 39.8105 27.238C40.7628 27.238 41.5247 27.8094 41.5247 27.8094L41.8105 25.8094C41.8105 25.8094 40.6676 25.3333 39.62 25.3333C37.4295 25.3333 36.1914 27.238 36.1914 30.8571C36.1914 33.238 36.3819 34.857 38.6676 34.857C39.4295 34.857 40.4771 34.5713 40.4771 34.5713Z" fill="#DCE5E5"/>
<path d="M11.3338 29.1428C11.3338 29.1428 12.1909 28.7618 13.429 28.7618C14.0957 28.7618 14.6671 28.8571 14.6671 29.4285C14.6671 29.8095 14.5718 29.9047 14.5718 29.9047C14.5718 29.9047 14.0004 29.9047 13.7147 29.9047C12.0957 29.9047 10.2861 30.5714 10.2861 32.7618C10.2861 34.4761 11.429 34.8571 12.0957 34.8571C13.429 34.8571 14.0004 33.9999 14.0957 33.9999L14.0004 34.7618H15.7147L16.4766 29.5237C16.4766 27.3333 14.5718 27.238 13.8099 27.238L11.3338 29.1428ZM15.2385 31.3333C15.2385 31.619 14.0957 33.1428 12.9528 33.1428C12.3814 33.1428 12.1909 32.6666 12.1909 32.3809C12.1909 31.9047 12.4766 31.238 13.9052 31.238C14.1909 31.3333 15.2385 31.3333 15.2385 31.3333Z" fill="#DCE5E5"/>
<path d="M16.1914 34.5712C16.1914 34.5712 16.7628 34.7617 18.3819 34.7617C18.8581 34.7617 21.239 34.8569 21.239 32.2855C21.239 29.9045 18.9533 30.3807 18.9533 29.4283C18.9533 28.9521 19.3343 28.7617 20.0009 28.7617C20.2866 28.7617 21.3343 28.8569 21.3343 28.8569L21.62 27.1426C21.62 27.1426 20.9533 26.9521 19.8105 26.9521C18.3819 26.9521 17.9057 27.5236 17.9057 29.4283C17.9057 31.6188 19.3343 31.4283 19.3343 32.2855C19.3343 32.8569 18.6676 32.9521 18.1914 32.9521" fill="#DCE5E5"/>
<path d="M55.9049 28.0953C55.9049 28.0953 55.143 27.1429 54.0954 27.1429C52.3811 27.1429 51.8096 29.2382 51.8096 31.7144C51.8096 33.2382 51.6192 34.8572 53.2382 34.8572C54.3811 34.8572 55.0477 34.0953 55.0477 34.0953L54.9525 34.762H56.8573L58.2858 25.6191L55.9049 28.0953ZM55.8096 30.5715C55.8096 31.6191 54.9525 32.9525 53.9049 32.9525C53.2382 32.9525 52.8573 32.381 52.8573 31.4287C52.8573 29.9048 53.5239 28.9525 54.3811 28.9525C55.0477 28.9525 55.8096 29.4287 55.8096 30.5715Z" fill="#DCE5E5"/>
<path d="M3.52437 34.6665L4.66722 27.8094L4.8577 34.6665H6.19103L8.66722 27.8094L7.61961 34.6665H9.61961L11.1434 25.5237H8.76246L6.0958 31.1427L6.00056 25.5237H4.95294L1.71484 34.6665H3.52437Z" fill="#DCE5E5"/>
<path d="M31.0479 34.6666H33.0479C33.6193 31.5237 33.7145 28.9523 35.0479 29.4285C35.2383 28.1904 35.524 27.7142 35.7145 27.238C35.7145 27.238 35.6193 27.238 35.3336 27.238C34.4764 27.238 33.8098 28.3809 33.8098 28.3809L34.0002 27.3333" fill="#DCE5E5"/>
<path d="M42.2859 29.1428C42.2859 29.1428 43.143 28.7618 44.3811 28.7618C45.0478 28.7618 45.6192 28.8571 45.6192 29.4285C45.6192 29.8095 45.524 29.9047 45.524 29.9047C45.524 29.9047 44.9526 29.9047 44.6669 29.9047C43.0478 29.9047 41.2383 30.5714 41.2383 32.7618C41.2383 34.4761 42.3811 34.8571 43.0478 34.8571C44.3811 34.8571 44.9526 33.9999 45.0478 33.9999L44.9526 34.7618H46.6669L47.4288 29.5237C47.4288 27.3333 45.524 27.238 44.7621 27.238L42.2859 29.1428ZM46.1907 31.3333C46.1907 31.619 45.0478 33.1428 43.9049 33.1428C43.3335 33.1428 43.143 32.6666 43.143 32.3809C43.143 31.9047 43.4288 31.238 44.8573 31.238C45.2383 31.3333 46.1907 31.3333 46.1907 31.3333Z" fill="#DCE5E5"/>
<path d="M47.0488 34.6666H49.0488C49.6203 31.5237 49.7155 28.9523 51.0488 29.4285C51.2393 28.1904 51.525 27.7142 51.7155 27.238C51.7155 27.238 51.6203 27.238 51.3345 27.238C50.4774 27.238 49.8107 28.3809 49.8107 28.3809L50.0012 27.3333" fill="#DCE5E5"/>
</g>
<defs>
<clipPath id="clip0_667_853">
<rect width="60" height="60" fill="white"/>
</clipPath>
</defs>
</svg>
