<svg width="90" height="90" viewBox="0 0 90 90" fill="none" xmlns="http://www.w3.org/2000/svg">
<path d="M69.5714 39.5H64.7143C64.4286 39.5 64.1429 39.7857 64 40.0714L62 52.6429C62 52.9286 62.1429 53.0714 62.4286 53.0714H65C65.2857 53.0714 65.4286 52.9286 65.4286 52.6429L66 49.0714C66 48.7857 66.2857 48.5 66.7143 48.5H68.2857C71.5714 48.5 73.4286 46.9286 73.8571 43.7857C74.1428 42.5 73.8571 41.3571 73.2857 40.6429C72.4286 39.9286 71.1428 39.5 69.5714 39.5ZM70.1428 44.2143C69.8571 45.9286 68.5714 45.9286 67.2857 45.9286H66.4286L67 42.6429C67 42.5 67.1429 42.3571 67.4286 42.3571H67.7143C68.5714 42.3571 69.4286 42.3571 69.8571 42.9286C70.1429 43.0714 70.1428 43.5 70.1428 44.2143Z" fill="#139AD6"/>
<path d="M34.5714 39.5H29.7143C29.4286 39.5 29.1429 39.7857 29 40.0714L27 52.6429C27 52.9286 27.1429 53.0714 27.4286 53.0714H29.7143C30 53.0714 30.2857 52.7857 30.4286 52.5L31 49.0714C31 48.7857 31.2857 48.5 31.7143 48.5H33.2857C36.5714 48.5 38.4286 46.9286 38.8571 43.7857C39.1428 42.5 38.8571 41.3571 38.2857 40.6429C37.4286 39.9286 36.2857 39.5 34.5714 39.5ZM35.1428 44.2143C34.8571 45.9286 33.5714 45.9286 32.2857 45.9286H31.5714L32.1429 42.6429C32.1429 42.5 32.2857 42.3571 32.5714 42.3571H32.8571C33.7143 42.3571 34.5714 42.3571 35 42.9286C35.1428 43.0714 35.2857 43.5 35.1428 44.2143Z" fill="#263B80"/>
<path d="M49.2858 44.0714H47.0001C46.8572 44.0714 46.5715 44.2142 46.5715 44.3571L46.4287 45.0714L46.2858 44.7856C45.7144 44.0714 44.7144 43.7856 43.5715 43.7856C41.0001 43.7856 38.7144 45.7857 38.2858 48.4999C38.0001 49.9285 38.4286 51.2142 39.1429 52.0714C39.8572 52.9285 40.8572 53.2142 42.1429 53.2142C44.2858 53.2142 45.4287 51.9285 45.4287 51.9285L45.2858 52.6428C45.2858 52.9285 45.4287 53.0714 45.7144 53.0714H47.8572C48.1429 53.0714 48.4287 52.7857 48.5715 52.5L49.8572 44.4999C49.7144 44.3571 49.4287 44.0714 49.2858 44.0714ZM46.0001 48.6428C45.7144 49.9285 44.7144 50.9285 43.2858 50.9285C42.5715 50.9285 42.0001 50.6428 41.7144 50.3571C41.4286 49.9285 41.2858 49.3571 41.2858 48.6428C41.4286 47.3571 42.5715 46.3571 43.8572 46.3571C44.5715 46.3571 45.0001 46.6428 45.4287 46.9285C45.8572 47.3571 46.0001 48.0714 46.0001 48.6428Z" fill="#263B80"/>
<path d="M84.1432 44.0714H81.8575C81.7146 44.0714 81.4289 44.2142 81.4289 44.3571L81.2861 45.0714L81.1432 44.7856C80.5718 44.0714 79.5718 43.7856 78.4289 43.7856C75.8575 43.7856 73.5718 45.7857 73.1432 48.4999C72.8575 49.9285 73.2861 51.2142 74.0003 52.0714C74.7146 52.9285 75.7146 53.2142 77.0003 53.2142C79.1432 53.2142 80.2861 51.9285 80.2861 51.9285L80.1432 52.6428C80.1432 52.9285 80.2861 53.0714 80.5718 53.0714H82.7146C83.0003 53.0714 83.286 52.7857 83.4289 52.4999L84.7146 44.4999C84.5718 44.3571 84.4289 44.0714 84.1432 44.0714ZM80.8575 48.6428C80.5718 49.9285 79.5718 50.9285 78.1432 50.9285C77.4289 50.9285 76.8575 50.6428 76.5718 50.3571C76.2861 49.9285 76.1432 49.3571 76.1432 48.6428C76.2861 47.3571 77.4289 46.3571 78.7146 46.3571C79.4289 46.3571 79.8575 46.6428 80.2861 46.9285C80.8575 47.3571 81.0003 48.0714 80.8575 48.6428Z" fill="#139AD6"/>
<path d="M61.7139 44.0713H59.2853C58.9996 44.0713 58.8567 44.2141 58.7139 44.357L55.571 49.2141L54.1424 44.6427C53.9996 44.357 53.8567 44.2141 53.4282 44.2141H51.1424C50.8567 44.2141 50.7139 44.4999 50.7139 44.7856L53.2853 52.357L50.8567 55.7856C50.7139 56.0713 50.8567 56.4998 51.1424 56.4998H53.4282C53.7139 56.4998 53.8567 56.357 53.9996 56.2141L61.8567 44.9284C62.2853 44.4999 61.9996 44.0713 61.7139 44.0713Z" fill="#263B80"/>
<path d="M86.8564 39.9287L84.8564 52.7858C84.8564 53.0715 84.9993 53.2144 85.285 53.2144H87.285C87.5707 53.2144 87.8564 52.9287 87.9993 52.643L89.9993 40.0715C89.9993 39.7858 89.8564 39.643 89.5707 39.643H87.285C87.1422 39.5001 86.9993 39.643 86.8564 39.9287Z" fill="#139AD6"/>
<path d="M16.4286 35.214C15.4286 34.0712 13.5714 33.4998 11 33.4998H3.85714C3.42857 33.4998 3 33.9283 2.85714 34.3569L0 53.0712C0 53.4998 0.285714 53.7855 0.571429 53.7855H5L6.14286 46.7855V47.0712C6.28571 46.6426 6.71429 46.214 7.14286 46.214H9.28571C13.4286 46.214 16.5714 44.4998 17.5714 39.7855C17.5714 39.6426 17.5714 39.4998 17.5714 39.3569C17.4286 39.3569 17.4286 39.3569 17.5714 39.3569C17.7143 37.4998 17.4286 36.3569 16.4286 35.214Z" fill="#263B80"/>
<path d="M17.4284 39.3574C17.4284 39.5003 17.4284 39.6431 17.4284 39.786C16.4284 44.6431 13.2856 46.2146 9.14272 46.2146H6.99986C6.57129 46.2146 6.14272 46.6431 5.99986 47.0717L4.57129 55.786C4.57129 56.0717 4.71415 56.3574 5.14272 56.3574H8.857C9.28557 56.3574 9.71415 56.0717 9.71415 55.6431V55.5003L10.4284 51.0717V50.786C10.4284 50.3574 10.857 50.0717 11.2856 50.0717H11.857C15.4284 50.0717 18.2856 48.6431 18.9999 44.3574C19.2856 42.6431 19.1427 41.0717 18.2856 40.0717C18.1427 39.786 17.857 39.5003 17.4284 39.3574Z" fill="#139AD6"/>
<path d="M16.4283 38.9283C16.2854 38.9283 16.1426 38.7855 15.9997 38.7855C15.8569 38.7855 15.714 38.7855 15.5711 38.6426C14.9997 38.4998 14.4283 38.4998 13.714 38.4998H8.14258C7.99972 38.4998 7.85686 38.4998 7.71401 38.6426C7.42829 38.7855 7.28543 39.0712 7.28543 39.3569L6.14258 46.7855V47.0712C6.28544 46.6426 6.71401 46.214 7.14258 46.214H9.28543C13.4283 46.214 16.5711 44.4998 17.5711 39.7855C17.5711 39.6426 17.5711 39.4998 17.714 39.3569C17.4283 39.214 17.2854 39.0712 16.9997 39.0712C16.5711 38.9283 16.5711 38.9283 16.4283 38.9283Z" fill="#232C65"/>
</svg>
