<svg width="477" height="589" viewBox="0 0 477 589" fill="none" xmlns="http://www.w3.org/2000/svg">
<path d="M55.2209 44.6936C35.0331 42.9796 12.9408 53.6448 -1.343 70.214C-16.3886 87.545 -9.91328 107.352 -20.1976 126.587C-39.6236 162.773 -101.33 166.201 -103.234 213.623C-103.805 229.05 -93.1402 236.097 -85.3318 247.714C-74.857 263.521 -67.2389 279.9 -67.6198 299.136C-68.1912 345.415 -117.708 385.41 -105.139 432.642C-100.568 449.782 -85.1413 466.351 -68.0007 471.113C-47.4321 476.826 -25.7207 462.923 -4.96156 470.16C16.7498 477.969 23.9869 499.68 31.605 518.725C41.3179 543.484 56.1731 569.766 80.9317 581.384C98.2627 589.573 126.64 590.716 144.161 582.145C159.969 574.337 166.063 555.673 180.918 548.436C215.39 531.486 263.003 565.957 298.236 567.862C324.899 569.195 360.704 562.339 373.654 536.628C384.129 515.488 383.367 494.729 381.272 471.875C378.987 445.973 381.463 427.69 404.888 412.073C430.028 395.504 460.881 382.363 471.356 351.319C478.783 328.846 480.307 297.231 463.928 278.758C449.835 262.76 421.267 258.189 411.935 237.62C401.46 214.195 409.459 177.438 409.459 152.679C409.459 126.778 403.555 98.5912 385.653 78.7843C354.228 43.7414 305.092 79.7366 267.192 68.3095C251.956 63.7387 247.766 45.6459 237.482 34.0284C223.96 18.7923 207.962 10.7934 188.917 4.88944C161.683 -3.49039 133.877 -0.443181 111.213 15.9356C92.9301 29.2671 76.7418 41.0751 56.7445 44.5032" fill="#EDF1F5"/>
</svg>
