<svg width="471" height="650" viewBox="0 0 471 650" fill="none" xmlns="http://www.w3.org/2000/svg">
<path d="M175.221 105.891C155.033 104.177 132.941 114.842 118.657 131.411C103.611 148.742 110.087 168.549 99.8024 187.784C80.3764 223.97 18.6704 227.398 16.7659 274.82C16.1945 290.247 26.8598 297.294 34.6682 308.911C45.143 324.719 52.7611 341.097 52.3802 360.333C51.8088 406.612 2.29163 446.607 14.8614 493.839C19.4322 510.979 34.8587 527.548 51.9993 532.31C72.5679 538.023 94.2793 524.12 115.038 531.358C136.75 539.166 143.987 560.877 151.605 579.922C161.318 604.681 176.173 630.963 200.932 642.581C218.263 650.77 246.64 651.913 264.161 643.342C279.969 635.534 286.063 616.87 300.918 609.633C335.39 592.683 383.003 627.154 418.236 629.059C444.899 630.392 480.704 623.536 493.654 597.825C504.129 576.685 503.367 555.926 501.272 533.072C498.987 507.17 501.463 488.887 524.888 473.27C550.028 456.701 580.881 443.56 591.356 412.516C598.783 390.043 600.307 358.428 583.928 339.955C569.835 323.957 541.267 319.386 531.935 298.817C521.46 275.392 529.459 238.635 529.459 213.876C529.459 187.975 523.555 159.788 505.653 139.981C474.228 104.938 425.092 140.934 387.192 129.507C371.956 124.936 367.766 106.843 357.482 95.2254C343.96 79.9894 327.962 71.9904 308.917 66.0865C281.683 57.7066 253.877 60.7538 231.213 77.1326C212.93 90.4641 196.742 102.272 176.744 105.7" fill="#EDF1F5"/>
<path d="M97.517 129.887C89.7085 160.74 84.1855 191.403 64.1882 186.261C44.1908 181.119 31.6211 169.311 39.4296 138.458C43.429 123.031 63.2359 110.461 72.3775 102.082C81.5192 93.7017 100.374 65.8959 110.277 68.5623C130.465 73.514 105.326 99.0344 97.517 129.887Z" fill="#EDF1F5"/>
<path d="M87.9948 597.634C63.6171 576.875 47.6192 572.304 60.9508 556.497C74.2823 540.689 105.707 541.642 130.084 562.21C142.273 572.495 144.749 595.92 148.368 607.919C151.986 619.917 152.748 631.153 146.082 638.962C132.751 654.769 112.372 618.203 87.9948 597.634Z" fill="#EDF1F5"/>
<path d="M410.428 48.184C402.81 78.6561 350.816 48.184 317.868 48.184C298.823 48.184 269.685 46.2795 269.685 29.7103C269.494 13.3315 299.204 0 335.58 0C371.956 0 414.427 32.1862 410.428 48.184Z" fill="#EDF1F5"/>
<path d="M347.388 623.916C338.817 623.916 323.962 626.202 324.534 637.819C324.914 646.58 346.055 648.675 352.911 649.246C361.862 650.008 377.86 646.58 371.575 634.01C367.575 625.44 355.387 623.916 347.388 623.916Z" fill="#EDF1F5"/>
<path d="M8.95735 544.499C5.33878 551.355 -3.9933 560.877 1.91067 569.257C7.43374 576.875 26.8597 579.351 33.5255 571.923C45.9048 558.021 23.2411 531.167 8.95735 544.499Z" fill="#EDF1F5"/>
<path d="M146.082 68.9431C138.464 68.7527 127.418 79.7988 130.275 88.5596C132.75 96.1776 145.701 99.7961 152.367 97.1298C158.08 94.8444 165.318 86.2741 163.603 79.7988C161.509 71.9903 151.034 68.7527 143.987 68.9431" fill="#EDF1F5"/>
<path d="M126.465 43.6132C119.99 50.6599 126.465 60.9442 135.416 56.7543C146.272 51.6121 138.273 41.8991 129.131 42.28" fill="#EDF1F5"/>
</svg>
