<svg width="49" height="64" viewBox="0 0 49 64" fill="none" xmlns="http://www.w3.org/2000/svg">
<path d="M44.5253 37.7501C43.3871 36.9273 42.7173 35.6174 42.7192 34.2129C42.7192 34.2046 42.7192 34.1963 42.7192 34.1879V28.8806C42.7192 18.7461 34.5036 10.5305 24.3692 10.5305C14.2347 10.5305 6.0191 18.7461 6.0191 28.8806V34.1879V34.2129C6.02098 35.6173 5.35122 36.9273 4.21302 37.7501C1.5899 39.6465 -0.0916031 42.7648 0.00386296 46.2707C0.150637 51.6581 4.55399 56.0312 9.94224 56.1431C11.7991 56.1816 13.5452 55.7216 15.0564 54.8879C17.8899 53.3245 21.0728 52.5275 24.3089 52.538C24.329 52.5381 24.3491 52.5381 24.3693 52.5381C24.3894 52.5381 24.4094 52.5381 24.4296 52.538C27.6658 52.5275 30.8487 53.3245 33.6822 54.8879C35.1933 55.7216 36.9394 56.1816 38.7963 56.1431C44.1844 56.0312 48.5879 51.6579 48.7347 46.2707C48.8299 42.7649 47.1484 39.6465 44.5253 37.7501Z" fill="url(#paint0_linear_667_23)"/>
<path d="M44.5257 37.7501C43.3875 36.9273 42.7178 35.6174 42.7196 34.2129C42.7196 34.2046 42.7196 34.1963 42.7196 34.1879V28.8806C42.7196 18.7461 34.504 10.5305 24.3696 10.5305C23.5179 10.5305 22.6802 10.5899 21.8594 10.7021C30.806 11.9263 37.6992 19.5978 37.6992 28.8806V34.1879V34.2129C37.6973 35.6173 38.3671 36.9273 39.5053 37.7501C42.1284 39.6465 43.8099 42.7648 43.7144 46.2707C43.5891 50.8719 40.3578 54.7309 36.0609 55.8296C36.9331 56.0524 37.8502 56.1628 38.7965 56.1432C44.1846 56.0313 48.5881 51.6581 48.7349 46.2708C48.8303 42.7649 47.1488 39.6465 44.5257 37.7501Z" fill="url(#paint1_linear_667_23)"/>
<path d="M42.8612 64H5.87748C3.9999 64 2.69185 62.1247 3.35208 60.367C4.17414 58.1786 5.35035 56.2066 6.79777 54.5453C9.74454 51.1635 13.8141 49.0715 18.3114 49.0715H30.4272C37.1299 49.0715 42.8857 53.7185 45.3831 60.3577C46.0457 62.119 44.7429 64 42.8612 64Z" fill="url(#paint2_linear_667_23)"/>
<path d="M45.3863 60.3671C43.4128 55.113 39.3989 51.105 34.4897 49.6581C34.441 49.6438 34.3888 49.6305 34.3342 49.618C33.0821 49.2637 31.7743 49.0718 30.4269 49.0718H18.3111C16.9074 49.0718 15.5454 49.2756 14.2461 49.6589C17.0191 51.8818 20.5384 53.2123 24.369 53.2123C26.319 53.2123 28.1884 52.8675 29.9196 52.2356C32.0328 51.4643 34.3988 51.9908 36.0019 53.5688C37.8712 55.4088 39.3727 57.7269 40.3624 60.3578C41.0249 62.1191 39.7221 64 37.8403 64H42.8607C44.7384 64.0001 46.0464 62.1248 45.3863 60.3671Z" fill="url(#paint3_linear_667_23)"/>
<path d="M28.1287 57.0736L25.5895 60.0916C24.9522 60.849 23.7859 60.849 23.1486 60.0916L20.6094 57.0736C19.5333 55.7946 18.9434 54.1768 18.9434 52.5054V48.1716H29.7946V52.5054C29.7947 54.1768 29.2046 55.7946 28.1287 57.0736Z" fill="url(#paint4_linear_667_23)"/>
<path d="M18.9434 52.2801C20.6397 52.883 22.4658 53.2123 24.369 53.2123C26.2722 53.2123 28.0982 52.883 29.7946 52.2801V48.1716H18.9434V52.2801Z" fill="url(#paint5_linear_667_23)"/>
<path d="M24.3688 50.0747C15.4229 50.0747 8.1709 42.8227 8.1709 33.877V29.1921C8.1709 20.2463 15.4229 12.9944 24.3686 12.9944C33.3145 12.9944 40.5664 20.2464 40.5664 29.1921V33.877C40.5665 42.8228 33.3145 50.0747 24.3688 50.0747Z" fill="url(#paint6_linear_667_23)"/>
<path d="M39.4963 23.3897C39.4963 23.3897 39.4949 23.3886 39.4946 23.3884C39.0695 22.2788 38.5253 21.2282 37.8782 20.2526C37.2773 19.3468 36.5874 18.5038 35.8221 17.7386C32.8917 14.8069 28.8422 12.9941 24.3687 12.9941C18.7273 12.9941 13.7596 15.8782 10.8592 20.2526C10.2119 21.2286 9.66746 22.2798 9.24219 23.39H29.7373C32.9189 23.39 35.5341 25.9492 35.5459 29.1308C35.546 29.1512 35.546 29.1717 35.546 29.1921V33.877C35.546 41.9689 29.6121 48.6746 21.8585 49.8809C22.6767 50.0082 23.5149 50.0747 24.3687 50.0747C33.3146 50.0747 40.5665 42.8227 40.5665 33.877V29.1921C40.5666 27.1473 40.1877 25.191 39.4963 23.3897Z" fill="url(#paint7_linear_667_23)"/>
<path d="M17.2981 35.8291C15.4488 35.8291 13.9443 34.3246 13.9443 32.4755C13.9443 31.9559 14.3656 31.5347 14.8852 31.5347C15.4048 31.5347 15.8261 31.9559 15.8261 32.4755C15.8261 33.2872 16.4864 33.9474 17.2981 33.9474C18.1097 33.9474 18.7699 33.2871 18.7699 32.4755C18.7699 31.9559 19.1912 31.5347 19.7108 31.5347C20.2304 31.5347 20.6517 31.9559 20.6517 32.4755C20.6518 34.3246 19.1473 35.8291 17.2981 35.8291Z" fill="url(#paint8_linear_667_23)"/>
<path d="M31.4405 35.8291C29.5913 35.8291 28.0869 34.3246 28.0869 32.4755C28.0869 31.9559 28.5082 31.5347 29.0278 31.5347C29.5474 31.5347 29.9686 31.9559 29.9686 32.4755C29.9686 33.2872 30.629 33.9474 31.4405 33.9474C32.2522 33.9474 32.9125 33.2871 32.9125 32.4755C32.9125 31.9559 33.3338 31.5347 33.8534 31.5347C34.373 31.5347 34.7943 31.9559 34.7943 32.4755C34.7943 34.3246 33.2898 35.8291 31.4405 35.8291Z" fill="url(#paint9_linear_667_23)"/>
<path d="M24.3693 45.8902C22.294 45.8902 20.2837 44.9192 18.7089 43.1562C18.3627 42.7687 18.3963 42.1739 18.7838 41.8278C19.1712 41.4817 19.7661 41.5151 20.1122 41.9027C21.3428 43.2803 22.8149 44.0085 24.3693 44.0085C25.9237 44.0085 27.3957 43.2803 28.6264 41.9027C28.9725 41.5151 29.5674 41.4817 29.9547 41.8278C30.3422 42.1739 30.3759 42.7687 30.0296 43.1562C28.4549 44.9192 26.4446 45.8902 24.3693 45.8902Z" fill="url(#paint10_linear_667_23)"/>
<path d="M42.719 29.3078V28.8808C42.719 18.7464 34.5034 10.5308 24.3689 10.5308C14.397 10.5308 6.28306 18.4851 6.02539 28.3947C8.44604 29.4693 11.1251 30.0674 13.9442 30.0674C21.2981 30.0674 27.7017 26.0037 31.0352 20C33.5182 24.4719 37.7052 27.8662 42.719 29.3078Z" fill="url(#paint11_linear_667_23)"/>
<path d="M42.7198 28.8808V29.3074C39.068 28.2573 35.8553 26.1724 33.4216 23.39C32.5109 22.3513 31.7105 21.2159 31.0356 20.0004C30.3607 21.2159 29.5603 22.3513 28.6521 23.39H6.85547C7.77375 20.457 9.40834 17.8414 11.5548 15.7464C14.8616 12.5186 19.384 10.5303 24.3693 10.5303C32.5886 10.5303 39.546 15.9333 41.8818 23.3824C41.8818 23.3849 41.8818 23.3875 41.8831 23.39C42.4275 25.1237 42.7198 26.9677 42.7198 28.8808Z" fill="url(#paint12_linear_667_23)"/>
<path d="M38.9857 4.8623H9.75352C8.88003 4.8623 8.17188 5.57046 8.17188 6.44396V18.6708C8.17188 19.5443 8.88003 20.2524 9.75352 20.2524H38.9857C39.8592 20.2524 40.5673 19.5443 40.5673 18.6708V6.44408C40.5673 5.57046 39.8592 4.8623 38.9857 4.8623Z" fill="url(#paint13_linear_667_23)"/>
<path d="M40.5666 6.44445V18.6706C40.5666 19.5442 39.8583 20.2525 38.9847 20.2525H33.9643C34.8374 20.2525 35.5462 19.5437 35.5462 18.6706V13.2633C35.5462 11.2862 33.9435 9.68352 31.9664 9.68352H8.1709V6.44445C8.1709 5.57008 8.87968 4.86255 9.7528 4.86255H38.9847C39.8578 4.86255 40.5666 5.57008 40.5666 6.44445Z" fill="url(#paint14_linear_667_23)"/>
<path d="M5.84909 3.70848V11.9563C5.84909 12.8224 5.14709 13.5244 4.28099 13.5244C3.4149 13.5244 2.71289 12.8224 2.71289 11.9563V3.70848C2.71289 2.84239 3.4149 2.14038 4.28099 2.14038C5.14696 2.14038 5.84909 2.84239 5.84909 3.70848Z" fill="url(#paint15_linear_667_23)"/>
<path d="M2.07741 12.2244C2.75358 11.5482 3.68578 11.2209 4.6555 11.3332C5.20973 11.3973 5.73949 11.6144 6.18057 11.9562C7.6931 13.1284 7.79471 15.3227 6.48516 16.6322L5.30971 17.8076C4.7418 18.3756 3.82089 18.3756 3.25299 17.8076L2.07754 16.6322C0.862196 15.4169 0.862196 13.4396 2.07741 12.2244Z" fill="url(#paint16_linear_667_23)"/>
<path d="M6.18033 11.9561C6.00659 11.8215 5.81866 11.707 5.62133 11.6128C5.76823 12.0011 5.84915 12.4216 5.84915 12.8613C5.84915 14.8111 4.2685 16.3917 2.31866 16.3917C2.15483 16.3917 1.99388 16.3797 1.83594 16.358C1.9107 16.4526 1.98986 16.5448 2.07717 16.6321L3.25262 17.8075C3.82053 18.3755 4.74144 18.3755 5.30935 17.8075L6.48479 16.6321C7.79447 15.3227 7.69286 13.1283 6.18033 11.9561Z" fill="url(#paint17_linear_667_23)"/>
<path d="M44.9623 6.54639H3.77515C1.96744 6.54639 0.501953 5.0809 0.501953 3.27319C0.501953 1.46549 1.96744 0 3.77515 0H44.9623C46.77 0 48.2355 1.46549 48.2355 3.27319C48.2355 5.0809 46.77 6.54639 44.9623 6.54639Z" fill="url(#paint18_linear_667_23)"/>
<path d="M44.9618 0H39.9414C41.7491 0 43.2146 1.46549 43.2146 3.27319C43.2146 5.0809 41.7491 6.54639 39.9414 6.54639H44.9618C46.7695 6.54639 48.235 5.0809 48.235 3.27319C48.235 1.46549 46.7695 0 44.9618 0Z" fill="url(#paint19_linear_667_23)"/>
<defs>
<linearGradient id="paint0_linear_667_23" x1="3.54476" y1="33.338" x2="54.4891" y2="33.338" gradientUnits="userSpaceOnUse">
<stop stop-color="#FE646F"/>
<stop offset="0.5725" stop-color="#FB2B3A"/>
<stop offset="1" stop-color="#C41926"/>
</linearGradient>
<linearGradient id="paint1_linear_667_23" x1="-19.1609" y1="33.338" x2="34.7936" y2="33.338" gradientUnits="userSpaceOnUse">
<stop stop-color="#FE646F"/>
<stop offset="0.5725" stop-color="#FB2B3A"/>
<stop offset="1" stop-color="#C41926"/>
</linearGradient>
<linearGradient id="paint2_linear_667_23" x1="3.45056" y1="56.5358" x2="45.7065" y2="56.5358" gradientUnits="userSpaceOnUse">
<stop stop-color="#537983"/>
<stop offset="1" stop-color="#3E5959"/>
</linearGradient>
<linearGradient id="paint3_linear_667_23" x1="1.85107" y1="56.5359" x2="43.64" y2="56.5359" gradientUnits="userSpaceOnUse">
<stop stop-color="#537983"/>
<stop offset="1" stop-color="#384949"/>
</linearGradient>
<linearGradient id="paint4_linear_667_23" x1="18.9435" y1="54.4157" x2="29.7947" y2="54.4157" gradientUnits="userSpaceOnUse">
<stop stop-color="#FFDCBD"/>
<stop offset="0.0028" stop-color="#FFDCBD"/>
<stop offset="1" stop-color="#FFA9B1"/>
</linearGradient>
<linearGradient id="paint5_linear_667_23" x1="18.9434" y1="50.692" x2="29.7946" y2="50.692" gradientUnits="userSpaceOnUse">
<stop stop-color="#FFC2B5"/>
<stop offset="1" stop-color="#FF89A8"/>
</linearGradient>
<linearGradient id="paint6_linear_667_23" x1="8.1709" y1="31.5346" x2="40.5665" y2="31.5346" gradientUnits="userSpaceOnUse">
<stop stop-color="#FFDCBD"/>
<stop offset="0.0028" stop-color="#FFDCBD"/>
<stop offset="1" stop-color="#FFA9B1"/>
</linearGradient>
<linearGradient id="paint7_linear_667_23" x1="21.3162" y1="31.5345" x2="47.9035" y2="31.5345" gradientUnits="userSpaceOnUse">
<stop stop-color="#FFC2B5"/>
<stop offset="1" stop-color="#FF89A8"/>
</linearGradient>
<linearGradient id="paint8_linear_667_23" x1="10.5699" y1="33.6818" x2="21.2337" y2="33.6818" gradientUnits="userSpaceOnUse">
<stop stop-color="#BFBFBF"/>
<stop offset="0.7584" stop-color="#5A5A5A"/>
<stop offset="1" stop-color="#444444"/>
</linearGradient>
<linearGradient id="paint9_linear_667_23" x1="24.8294" y1="33.6818" x2="35.1665" y2="33.6818" gradientUnits="userSpaceOnUse">
<stop stop-color="#BFBFBF"/>
<stop offset="0.7584" stop-color="#5A5A5A"/>
<stop offset="1" stop-color="#444444"/>
</linearGradient>
<linearGradient id="paint10_linear_667_23" x1="16.9678" y1="43.7394" x2="26.1859" y2="43.7394" gradientUnits="userSpaceOnUse">
<stop stop-color="#FFC2B5"/>
<stop offset="0.2441" stop-color="#FFBBB3"/>
<stop offset="0.6097" stop-color="#FFA6AF"/>
<stop offset="1" stop-color="#FF89A8"/>
</linearGradient>
<linearGradient id="paint11_linear_667_23" x1="3.54453" y1="20.2992" x2="54.4889" y2="20.2992" gradientUnits="userSpaceOnUse">
<stop stop-color="#FE646F"/>
<stop offset="0.5725" stop-color="#FB2B3A"/>
<stop offset="1" stop-color="#C41926"/>
</linearGradient>
<linearGradient id="paint12_linear_667_23" x1="-19.1612" y1="19.9188" x2="34.7933" y2="19.9188" gradientUnits="userSpaceOnUse">
<stop stop-color="#FE646F"/>
<stop offset="0.5725" stop-color="#FB2B3A"/>
<stop offset="1" stop-color="#C41926"/>
</linearGradient>
<linearGradient id="paint13_linear_667_23" x1="9.32938" y1="12.5574" x2="39.967" y2="12.5574" gradientUnits="userSpaceOnUse">
<stop stop-color="#537983"/>
<stop offset="1" stop-color="#3E5959"/>
</linearGradient>
<linearGradient id="paint14_linear_667_23" x1="2.03899" y1="12.5575" x2="48.8767" y2="12.5575" gradientUnits="userSpaceOnUse">
<stop stop-color="#537983"/>
<stop offset="1" stop-color="#384949"/>
</linearGradient>
<linearGradient id="paint15_linear_667_23" x1="1.3307" y1="7.83246" x2="9.87297" y2="7.83246" gradientUnits="userSpaceOnUse">
<stop stop-color="#FFE177"/>
<stop offset="0.5725" stop-color="#FEB137"/>
<stop offset="1" stop-color="#FE646F"/>
</linearGradient>
<linearGradient id="paint16_linear_667_23" x1="0.659597" y1="14.7726" x2="8.1634" y2="14.7726" gradientUnits="userSpaceOnUse">
<stop stop-color="#FFE177"/>
<stop offset="0.5725" stop-color="#FEB137"/>
<stop offset="1" stop-color="#FE646F"/>
</linearGradient>
<linearGradient id="paint17_linear_667_23" x1="-3.07849" y1="14.9232" x2="8.61478" y2="14.9232" gradientUnits="userSpaceOnUse">
<stop stop-color="#FFE177"/>
<stop offset="0.5725" stop-color="#FEB137"/>
<stop offset="1" stop-color="#FE646F"/>
</linearGradient>
<linearGradient id="paint18_linear_667_23" x1="3.57543" y1="3.27319" x2="45.4293" y2="3.27319" gradientUnits="userSpaceOnUse">
<stop stop-color="#537983"/>
<stop offset="1" stop-color="#3E5959"/>
</linearGradient>
<linearGradient id="paint19_linear_667_23" x1="22.3276" y1="3.27319" x2="48.0815" y2="3.27319" gradientUnits="userSpaceOnUse">
<stop stop-color="#537983"/>
<stop offset="1" stop-color="#384949"/>
</linearGradient>
</defs>
</svg>
