<svg width="18" height="20" viewBox="0 0 18 20" fill="none" xmlns="http://www.w3.org/2000/svg">
<path d="M11 0H7.00002C3.14015 0 0 3.14054 0 7.00089V10.0013C0 12.7115 1.56285 15.171 4 16.3279V19.6692C4 19.9593 4.36289 20.111 4.56903 19.9049L7.47136 17.0022H11C14.8598 17.0022 18 13.8616 18 10.0013V7.00089C18 3.14054 14.8598 0 11 0Z" fill="#665CAC"/>
<path d="M14.0326 12.4256L13.7329 10.802C13.7081 10.6678 13.6042 10.5623 13.4705 10.5356L11.1135 10.0641C11.004 10.0423 10.8912 10.0765 10.8123 10.1553L9.85477 11.113C8.24137 10.39 7.34594 9.49251 6.55807 7.80966L7.51256 6.85509C7.59134 6.77626 7.62555 6.66322 7.60372 6.55392L7.13233 4.19658C7.10558 4.06287 7.00008 3.95888 6.86596 3.93412L5.24249 3.63443C5.19804 3.62627 5.15226 3.62713 5.10813 3.63717C4.67947 3.73455 4.28835 3.95056 3.97702 4.26201C3.43794 4.80115 3.23191 5.58787 3.38127 6.53712C3.63198 8.1311 4.41282 10.3494 5.85347 11.796L5.87315 11.8155C7.31844 13.2553 9.53649 14.0363 11.1304 14.2871C11.3311 14.3188 11.5245 14.3344 11.71 14.3344C12.4011 14.3344 12.9801 14.1164 13.4053 13.6913C13.7166 13.3798 13.9327 12.9887 14.03 12.56C14.0399 12.5159 14.0408 12.4702 14.0326 12.4256Z" fill="white"/>
<path d="M7.18656 7.18076L7.51247 6.85521L7.51282 6.85486L7.18652 7.18072L7.18656 7.18076Z" fill="#E5E5E5"/>
<path d="M10.8122 10.1552L10.4834 10.4841L10.4835 10.4842L10.8123 10.1553L10.8122 10.1552Z" fill="#E5E5E5"/>
<path d="M9.66633 5.66711C9.48225 5.66711 9.33301 5.81637 9.33301 6.00047C9.33301 6.18457 9.48225 6.33383 9.66633 6.33383C10.4016 6.33383 10.9997 6.93203 10.9997 7.66734C10.9997 7.84898 11.1514 8.0007 11.333 8.0007C11.5146 8.0007 11.6663 7.84898 11.6663 7.66734C11.6664 6.56438 10.7692 5.66711 9.66633 5.66711Z" fill="white"/>
<path d="M9.66672 4.33374C9.54342 4.33374 9.41898 4.34058 9.29681 4.35405C9.11382 4.37425 8.98185 4.53897 9.00204 4.72202C9.02223 4.90507 9.18729 5.03671 9.36996 5.01683C9.46792 5.00601 9.56775 5.0005 9.66672 5.0005C11.1371 5.0005 12.3334 6.1969 12.3334 7.66749C12.3334 7.76651 12.3279 7.86635 12.3171 7.96432C12.2971 8.14483 12.4313 8.31241 12.6118 8.33229C12.7924 8.35217 12.9598 8.21807 12.9798 8.03748C12.9932 7.9153 13.0001 7.79084 13.0001 7.66749C13.0001 5.82928 11.5047 4.33374 9.66672 4.33374Z" fill="white"/>
<path d="M9.6667 3.00037C9.54758 3.00037 9.42693 3.0049 9.3082 3.01392C9.12462 3.02783 8.98706 3.18798 9.00097 3.37154C9.01483 3.55513 9.17552 3.69271 9.35854 3.6788C9.4606 3.67103 9.56429 3.66712 9.6667 3.66712C11.8723 3.66712 13.6667 5.46173 13.6667 7.66763C13.6667 7.97974 13.6307 8.29044 13.5597 8.59107C13.5189 8.76333 13.625 8.94239 13.7958 8.98919C13.9755 9.03841 14.1657 8.92571 14.2085 8.74442C14.2913 8.3936 14.3334 8.03134 14.3334 7.66763C14.3334 5.09408 12.2399 3.00037 9.6667 3.00037Z" fill="white"/>
</svg>
