<svg width="60" height="60" viewBox="0 0 60 60" fill="none" xmlns="http://www.w3.org/2000/svg">
<g clip-path="url(#clip0_667_836)">
<path d="M22 38.6192L25.0476 21.4763H29.8095L26.8571 38.6192H22Z" fill="#3C58BF"/>
<path d="M22 38.6192L25.9048 21.4763H29.8095L26.8571 38.6192H22Z" fill="#293688"/>
<path d="M44.0949 21.6667C43.1425 21.2857 41.6187 20.9048 39.7139 20.9048C34.952 20.9048 31.5234 23.2857 31.5234 26.7143C31.5234 29.2857 33.9044 30.6191 35.8092 31.4762C37.7139 32.3334 38.2853 32.9048 38.2853 33.6667C38.2853 34.8095 36.7615 35.381 35.4282 35.381C33.5234 35.381 32.4758 35.0953 30.8568 34.4286L30.1901 34.1429L29.5234 38.0476C30.6663 38.5238 32.7615 39 34.952 39C39.9996 39 43.333 36.6191 43.333 33C43.333 31 42.0949 29.4762 39.2377 28.2381C37.5234 27.381 36.4758 26.9048 36.4758 26.0476C36.4758 25.2857 37.333 24.5238 39.2377 24.5238C40.8568 24.5238 41.9996 24.8095 42.8568 25.1905L43.333 25.381L44.0949 21.6667Z" fill="#3C58BF"/>
<path d="M44.0949 21.6667C43.1425 21.2857 41.6187 20.9048 39.7139 20.9048C34.952 20.9048 32.3806 23.2857 32.3806 26.7143C32.3806 29.2857 33.9044 30.6191 35.8092 31.4762C37.7139 32.3334 38.2853 32.9048 38.2853 33.6667C38.2853 34.8095 36.7615 35.381 35.4282 35.381C33.5234 35.381 32.4758 35.0953 30.8568 34.4286L30.1901 34.1429L29.5234 38.0476C30.6663 38.5238 32.7615 39 34.952 39C39.9996 39 43.333 36.6191 43.333 33C43.333 31 42.0949 29.4762 39.2377 28.2381C37.5234 27.381 36.4758 26.9048 36.4758 26.0476C36.4758 25.2857 37.333 24.5238 39.2377 24.5238C40.8568 24.5238 41.9996 24.8095 42.8568 25.1905L43.333 25.381L44.0949 21.6667Z" fill="#293688"/>
<path d="M52.286 21.4763C51.1432 21.4763 50.286 21.5716 49.8099 22.7144L42.667 38.6192H47.8099L48.7622 35.762H54.8575L55.4289 38.6192H60.0003L56.0003 21.4763H52.286ZM50.0956 32.9049C50.3813 32.0477 52.0003 27.8573 52.0003 27.8573C52.0003 27.8573 52.3813 26.8097 52.667 26.143L52.9527 27.762C52.9527 27.762 53.9051 32.0477 54.0956 33.0001H50.0956V32.9049Z" fill="#3C58BF"/>
<path d="M53.4289 21.4763C52.286 21.4763 51.4289 21.5716 50.9527 22.7144L42.667 38.6192H47.8099L48.7622 35.762H54.8575L55.4289 38.6192H60.0003L56.0003 21.4763H53.4289ZM50.0956 32.9049C50.4765 31.9525 52.0003 27.8573 52.0003 27.8573C52.0003 27.8573 52.3813 26.8097 52.667 26.143L52.9527 27.762C52.9527 27.762 53.9051 32.0477 54.0956 33.0001H50.0956V32.9049Z" fill="#293688"/>
<path d="M13.2376 33.4763L12.7614 31.0001C11.9043 28.143 9.14235 25.0001 6.09473 23.4763L10.3804 38.7144H15.5233L23.2376 21.5715H18.0947L13.2376 33.4763Z" fill="#3C58BF"/>
<path d="M13.2376 33.4763L12.7614 31.0001C11.9043 28.143 9.14235 25.0001 6.09473 23.4763L10.3804 38.7144H15.5233L23.2376 21.5715H19.0471L13.2376 33.4763Z" fill="#293688"/>
<path d="M0 21.4763L0.857143 21.6668C6.95238 23.0954 11.1429 26.7144 12.7619 31.0001L11.0476 22.9049C10.7619 21.762 9.90476 21.4763 8.85714 21.4763H0Z" fill="#FFBC00"/>
<path d="M0 21.4763C6.09524 22.9049 11.1429 26.6192 12.7619 30.9049L11.1429 24.143C10.8571 23.0001 9.90476 22.3335 8.85714 22.3335L0 21.4763Z" fill="#F7981D"/>
<path d="M0 21.4763C6.09524 22.9049 11.1429 26.6192 12.7619 30.9049L11.619 27.1906C11.3333 26.0477 10.9524 24.9049 9.61905 24.4287L0 21.4763Z" fill="#ED7C00"/>
<path d="M18 32.9049L14.7619 29.6668L13.238 33.2859L12.8571 30.9049C12 28.0478 9.23805 24.9049 6.19043 23.3811L10.4761 38.6192H15.619L18 32.9049Z" fill="#051244"/>
<path d="M26.8571 38.6192L22.7619 34.4287L22 38.6192H26.8571Z" fill="#051244"/>
<path d="M37.8092 32.7146C38.1901 33.0956 38.3806 33.3813 38.2853 33.7622C38.2853 34.9051 36.7615 35.4765 35.4282 35.4765C33.5234 35.4765 32.4758 35.1908 30.8568 34.5241L30.1901 34.2384L29.5234 38.1432C30.6663 38.6194 32.7615 39.0956 34.952 39.0956C37.9996 39.0956 40.4758 38.2384 41.9044 36.7146L37.8092 32.7146Z" fill="#051244"/>
<path d="M43.333 38.6193H47.8092L48.7616 35.7621H54.8568L55.4282 38.6193H59.9997L58.3806 31.6669L52.6663 26.1431L52.9521 27.6669C52.9521 27.6669 53.9044 31.9526 54.0949 32.905H50.0949C50.4759 31.9526 51.9997 27.8574 51.9997 27.8574C51.9997 27.8574 52.3806 26.8097 52.6663 26.1431" fill="#051244"/>
</g>
<defs>
<clipPath id="clip0_667_836">
<rect width="60" height="60" fill="white"/>
</clipPath>
</defs>
</svg>
