<svg width="110" height="110" viewBox="0 0 110 110" fill="none" xmlns="http://www.w3.org/2000/svg">
<path d="M20 102.929C20 101.053 20.7453 99.255 22.071 97.9286L56.4646 63.5357C58.7285 61.2718 61.7983 60.0001 64.9996 60.0001C68.2009 60.0001 71.2714 61.2718 73.5353 63.5357L107.929 97.9286C109.255 99.255 110 101.053 110 102.929C110 106.834 106.834 110 102.929 110H27.0711C23.1659 110 20 106.834 20 102.929Z" fill="#FFBE00"/>
<path d="M84.9999 101.91C84.9999 100.654 84.7076 99.4152 84.1458 98.2916L67.5789 65.1577C66.434 62.8832 64.4083 61.1765 61.973 60.4352C59.8933 60.9589 57.9917 62.0298 56.4644 63.5357L22.0709 97.9286C19.3093 100.69 19.3099 105.168 22.0715 107.929C23.3973 109.255 25.1954 110 27.071 110H76.9092C81.3776 110 84.9999 106.378 84.9999 101.91Z" fill="#FFEA21"/>
<path d="M57.5001 65.0002H62.5002C63.8806 65.0002 65.0002 66.1192 65.0002 67.4996C65.0002 68.8808 63.8806 69.9997 62.5002 69.9997H57.5001C56.1196 69.9997 55 68.8808 55 67.4996C55 66.1192 56.1196 65.0002 57.5001 65.0002Z" fill="#FFFC74"/>
<path d="M62.5001 74.9998H67.5002C68.8806 74.9998 69.9995 76.1193 69.9995 77.4998C69.9995 78.8803 68.8806 79.9999 67.5002 79.9999H62.5001C61.1189 79.9999 60 78.8803 60 77.4998C60 76.1193 61.1189 74.9998 62.5001 74.9998Z" fill="#FFFC74"/>
<path d="M47.5001 74.9998H52.5002C53.8813 74.9998 55.0002 76.1193 55.0002 77.4998C55.0002 78.8803 53.8813 79.9999 52.5002 79.9999H47.5001C46.1196 79.9999 45 78.8803 45 77.4998C45 76.1193 46.1196 74.9998 47.5001 74.9998Z" fill="#FFFC74"/>
<path d="M52.5001 85H57.5002C58.8806 85 60.0002 86.1189 60.0002 87.5001C60.0002 88.8805 58.8806 89.9994 57.5002 89.9994H52.5001C51.1196 89.9994 50 88.8805 50 87.5001C50 86.1196 51.1196 85 52.5001 85Z" fill="#FFFC74"/>
<path d="M62.5001 94.9995H67.5002C68.8806 94.9995 69.9995 96.1191 69.9995 97.4996C69.9995 98.8807 68.8806 99.9996 67.5002 99.9996H62.5001C61.1189 99.9996 60 98.8807 60 97.4996C60 96.1191 61.1189 94.9995 62.5001 94.9995Z" fill="#FFFC74"/>
<path d="M77.5001 94.9995H82.5002C83.8813 94.9995 85.0002 96.1191 85.0002 97.4996C85.0002 98.8807 83.8813 99.9996 82.5002 99.9996H77.5001C76.1196 99.9996 75 98.8807 75 97.4996C75 96.1191 76.1196 94.9995 77.5001 94.9995Z" fill="#FFFC74"/>
<path d="M82.5001 79.9999H87.5002C88.8806 79.9999 90.0002 81.1195 90.0002 82.4999C90.0002 83.8804 88.8806 85 87.5002 85H82.5001C81.1196 85 80 83.8804 80 82.4999C80 81.1195 81.1196 79.9999 82.5001 79.9999Z" fill="#FFD700"/>
<path d="M87.5001 90.0001H92.5002C93.8806 90.0001 95.0002 91.119 95.0002 92.5002C95.0002 93.8806 93.8806 94.9996 92.5002 94.9996H87.5001C86.1196 94.9996 85 93.8806 85 92.5002C85 91.119 86.1196 90.0001 87.5001 90.0001Z" fill="#FFD700"/>
<path d="M72.5001 69.9996H77.5002C78.8813 69.9996 80.0002 71.1192 80.0002 72.4997C80.0002 73.8808 78.8813 74.9997 77.5002 74.9997H72.5001C71.1196 74.9997 70 73.8808 70 72.4997C70 71.1192 71.1196 69.9996 72.5001 69.9996Z" fill="#FFD700"/>
<path d="M47.5001 94.9995H52.5002C53.8813 94.9995 55.0002 96.1191 55.0002 97.4996C55.0002 98.8807 53.8813 99.9996 52.5002 99.9996H47.5001C46.1196 99.9996 45 98.8807 45 97.4996C45 96.1191 46.1196 94.9995 47.5001 94.9995Z" fill="#FFFC74"/>
<path d="M67.5001 85H72.5002C73.8806 85 74.9995 86.1189 74.9995 87.5001C74.9995 88.8805 73.8806 89.9994 72.5002 89.9994H67.5001C66.1189 89.9994 65 88.8805 65 87.5001C65 86.1196 66.1189 85 67.5001 85Z" fill="#FFFC74"/>
<path d="M30.0001 99.9996H74.9997C77.7613 99.9996 79.9998 102.238 79.9998 105C79.9998 107.761 77.7613 110 74.9997 110H30.0001C27.2385 110 25 107.761 25 105C25 102.238 27.2385 99.9996 30.0001 99.9996Z" fill="#FFD700"/>
<path d="M102.499 55C99.2973 55.0073 96.455 57.053 95.4315 60.0875C95.2814 60.0735 95.1526 60.0001 94.9991 60.0001C92.2382 60.0001 89.999 62.2386 89.999 65.0002C89.999 67.7618 92.2382 70.0003 94.9991 70.0003H102.499C106.641 70.0003 109.999 66.6422 109.999 62.5002C109.999 58.3581 106.641 55 102.499 55Z" fill="#BCE4FF"/>
<path d="M5 74.9997L9.82196 70.1778C19.5406 60.4591 32.7208 55 46.4641 55C48.7279 55 50.899 54.1006 52.4997 52.4999C54.1003 50.8993 54.9997 48.7282 54.9997 46.4643C54.9997 32.721 60.4589 19.5409 70.1775 9.8222L74.9995 5.00024L104.999 35.0002L100.177 39.8222C90.4588 49.5408 77.2787 55 63.5354 55C61.2715 55 59.1004 55.8994 57.4998 57.5C55.8991 59.1007 54.9997 61.2718 54.9997 63.5356C54.9997 77.2789 49.5406 90.4591 39.8219 100.178L35 105L5 74.9997Z" fill="#CCD4FF"/>
<path d="M73.4131 23.4134C71.4281 21.4478 68.2261 21.4638 66.2605 23.4488C65.9149 23.7984 65.6213 24.1967 65.3905 24.6304C65.0629 25.2336 64.7526 25.8448 64.459 26.4646L64.4584 26.4653C64.4524 26.4786 64.4457 26.4913 64.4397 26.5046L64.439 26.5066C64.4203 26.546 64.401 26.5867 64.3823 26.6267L64.381 26.6294C64.375 26.6421 64.3696 26.6541 64.3636 26.6661L64.3623 26.6701C64.3436 26.7095 64.3256 26.7488 64.3069 26.7889L64.3049 26.7929C64.2996 26.8049 64.2936 26.8169 64.2882 26.8289L64.2862 26.8329C64.2742 26.8596 64.2622 26.8856 64.2502 26.9123L64.2489 26.9143C64.2435 26.9263 64.2382 26.9383 64.2322 26.9503L64.2288 26.9577C64.2242 26.969 64.2188 26.9797 64.2142 26.991L64.2115 26.9964C64.1995 27.0231 64.1875 27.0484 64.1755 27.0744L64.1728 27.0811C64.1681 27.0911 64.1635 27.1025 64.1581 27.1125L64.1541 27.1218C64.1495 27.1325 64.1448 27.1425 64.1401 27.1532L64.1368 27.1605C64.1254 27.1859 64.1141 27.2112 64.1027 27.2366L64.0974 27.2472C64.0934 27.2566 64.0887 27.2659 64.0854 27.2753L64.0801 27.2866C64.0754 27.2966 64.0714 27.3066 64.0667 27.316L64.0634 27.324C64.0574 27.3367 64.0514 27.3493 64.046 27.362L64.0427 27.3693C64.0387 27.3794 64.034 27.3894 64.0294 27.3994L64.0233 27.4127C64.02 27.4207 64.016 27.4294 64.0127 27.4374C64.0107 27.4421 64.0087 27.4467 64.006 27.4514C64.0027 27.4601 63.9987 27.4688 63.9947 27.4774L63.9893 27.4888C63.9846 27.5008 63.9786 27.5128 63.9733 27.5255L63.9686 27.5368C63.9646 27.5455 63.9606 27.5542 63.9573 27.5622C63.9546 27.5682 63.9526 27.5715 63.9506 27.5769C63.9473 27.5849 63.9439 27.5929 63.9406 27.6009C63.9379 27.6055 63.9359 27.6109 63.9339 27.6156L63.9219 27.6416C63.9206 27.6456 63.9193 27.6482 63.9179 27.6529C63.9119 27.6649 63.9066 27.6763 63.9019 27.6883C63.8992 27.6936 63.8979 27.6976 63.8959 27.7023C63.8919 27.7103 63.8892 27.7183 63.8852 27.7256C63.8832 27.7316 63.8806 27.737 63.8786 27.7417C63.8752 27.749 63.8719 27.7563 63.8692 27.763L63.8619 27.7797C63.8585 27.7884 63.8552 27.7957 63.8512 27.8037C63.8485 27.811 63.8452 27.8184 63.8419 27.8257C63.8379 27.8344 63.8345 27.8424 63.8312 27.8511C63.8285 27.8571 63.8259 27.8638 63.8225 27.8698C63.8198 27.8764 63.8178 27.8818 63.8152 27.8878C63.8125 27.8944 63.8098 27.9005 63.8065 27.9071L63.7992 27.9258C63.7965 27.9318 63.7932 27.9385 63.7912 27.9445C63.7878 27.9512 63.7852 27.9572 63.7825 27.9638C63.7771 27.9752 63.7725 27.9872 63.7671 27.9985C63.7651 28.0045 63.7631 28.0092 63.7605 28.0145C63.7578 28.0219 63.7545 28.0286 63.7518 28.0359C63.7491 28.0412 63.7471 28.0459 63.7451 28.0512C63.7418 28.0586 63.7391 28.0653 63.7358 28.0726C63.7338 28.0779 63.7318 28.0826 63.7298 28.0873C63.7258 28.0946 63.7231 28.1026 63.7198 28.11L63.7171 28.1166C63.7104 28.1326 63.7031 28.15 63.6957 28.166C63.6944 28.17 63.6924 28.1747 63.6911 28.1787C63.6877 28.1867 63.6844 28.194 63.6811 28.202C63.6791 28.206 63.6777 28.2107 63.6757 28.2147C63.6724 28.2227 63.6691 28.2307 63.6657 28.2387L63.6611 28.2487C63.649 28.2768 63.637 28.3054 63.6257 28.3335C63.6244 28.3368 63.6237 28.3388 63.6224 28.3415L63.611 28.3675C63.6097 28.3708 63.6083 28.3742 63.607 28.3775C63.603 28.3875 63.6003 28.3949 63.5963 28.4042L63.5943 28.4089L63.5556 28.5009L63.5536 28.5049L63.5416 28.535L63.5396 28.539C63.5223 28.5817 63.5043 28.6237 63.4876 28.6664L63.4862 28.6691C63.4816 28.6798 63.4782 28.6891 63.4736 28.7004L63.4722 28.7024C63.4549 28.7458 63.4369 28.7892 63.4195 28.8319V28.8325C62.8571 30.2177 62.3627 31.6282 61.9356 33.0647C61.157 35.7135 62.6736 38.4925 65.3224 39.2718C67.9666 40.0484 70.7402 38.5405 71.5255 35.899C72.2147 33.6085 73.1395 31.3947 74.2858 29.2949C75.328 27.3573 74.973 24.9654 73.4131 23.4134Z" fill="#EFF2FF"/>
<path d="M48.6652 69.6213C46.3613 69.624 44.357 71.2006 43.8112 73.4385C42.5375 78.6834 40.2563 83.6308 37.0944 88.0051C35.479 90.2449 35.9855 93.3702 38.2253 94.9848C40.4598 96.5961 43.5764 96.0964 45.1957 93.8679C49.1142 88.4394 51.9439 82.3031 53.5292 75.7977C54.1764 73.1109 52.523 70.408 49.8362 69.7608C49.4525 69.668 49.0595 69.622 48.6652 69.6213ZM88.5426 37.7592C87.5985 37.7585 86.6738 38.0274 85.8764 38.5325C80.1611 42.1368 73.6597 44.3085 66.9249 44.8623C64.1726 45.0858 62.1229 47.4992 62.3464 50.2514C62.5573 52.8449 64.7224 54.8432 67.3245 54.8465C67.458 54.8465 67.5928 54.8412 67.7282 54.8298C67.7722 54.8265 67.8156 54.8232 67.8596 54.8192H67.8636L67.9003 54.8158H67.905C67.9704 54.8105 68.0351 54.8045 68.1005 54.7985H68.1012C70.0574 54.6257 72.0017 54.3421 73.9253 53.9478H73.9259C74.0687 53.9191 74.2102 53.8891 74.3523 53.859H74.3536C74.417 53.845 74.4817 53.831 74.5451 53.8177L74.5478 53.817C74.6112 53.803 74.6752 53.789 74.7386 53.775L74.7413 53.7743C74.754 53.7716 74.7666 53.769 74.7787 53.7663H74.7793C74.8307 53.7543 74.8814 53.7429 74.9334 53.7316H74.9341L74.9715 53.7229L74.9735 53.7223C75.0242 53.7109 75.0762 53.6989 75.1269 53.6876C75.1389 53.6849 75.1516 53.6816 75.1636 53.6789L75.167 53.6782C75.229 53.6642 75.2924 53.6495 75.3545 53.6349L75.3611 53.6335L75.3952 53.6255L75.3992 53.6242C75.4492 53.6128 75.4979 53.6008 75.5473 53.5895L75.5533 53.5875L75.5866 53.5795L75.594 53.5781C75.642 53.5661 75.6907 53.5548 75.7388 53.5428L75.7454 53.5414L75.7788 53.5334L75.7861 53.5314L75.8202 53.5234L75.8235 53.5228C75.8595 53.5134 75.8956 53.5048 75.9316 53.4961L75.9376 53.4947L75.969 53.4867L75.9796 53.4841L76.011 53.4767L76.0183 53.4747C76.0544 53.4661 76.0897 53.4567 76.1258 53.448L76.1284 53.4474L76.1618 53.4387L76.2018 53.4287L76.2112 53.4267C76.2579 53.4147 76.3052 53.4027 76.3519 53.3907L76.3619 53.388L76.3926 53.3807L76.402 53.378L76.434 53.37L76.4387 53.3686C76.4747 53.3593 76.5087 53.3506 76.5448 53.3413L76.5521 53.3393L76.5828 53.3313L76.5941 53.3279L76.6242 53.3206L76.6335 53.3179C76.6669 53.3093 76.7016 53.2999 76.7349 53.2912L76.7429 53.2892L76.7736 53.2812L76.7843 53.2779L76.8143 53.2706L76.8257 53.2672C76.8597 53.2586 76.8944 53.2492 76.9284 53.2399L76.9331 53.2385L76.9624 53.2312L76.9758 53.2272L77.0031 53.2199L77.0178 53.2165L77.0458 53.2085L77.0559 53.2058C77.0885 53.1972 77.1206 53.1885 77.1533 53.1798L77.1659 53.1758L77.1933 53.1685L77.2073 53.1651L77.2353 53.1571L77.2473 53.1538C77.2794 53.1451 77.3107 53.1365 77.3428 53.1278L77.3561 53.1238L77.3835 53.1164L77.3975 53.1124L77.4248 53.1051L77.4669 53.0931L77.4709 53.0924L77.5329 53.0744L77.5449 53.0711L77.5716 53.0637L77.587 53.0597L77.6136 53.0517L77.6283 53.0477L77.6557 53.0397L77.6677 53.0364C77.6864 53.031 77.7044 53.0264 77.7231 53.021L77.7344 53.0177L77.7604 53.0103L77.7764 53.0057L77.8018 52.9983L77.8191 52.9937L77.8438 52.9863L77.8598 52.9817C77.8892 52.973 77.9192 52.965 77.9486 52.9563L77.9659 52.951L77.9906 52.9436L78.008 52.939L78.032 52.9316L78.0513 52.9263L78.0747 52.9196L78.094 52.9136L78.1354 52.9016L78.1548 52.8956L78.1774 52.8889L78.1968 52.8829L78.2201 52.8762L78.2395 52.8702L78.2622 52.8636L78.2829 52.8576L78.3429 52.8395L78.3656 52.8329L78.3856 52.8269L78.4083 52.8202L78.4276 52.8142L78.451 52.8075L78.471 52.8015L78.5017 52.7922L78.5311 52.7835L78.5538 52.7768L78.5731 52.7708L78.5965 52.7635L78.6158 52.7575L78.6385 52.7508L78.6592 52.7441L78.6805 52.7381L78.7386 52.7201L78.7619 52.7128L78.7826 52.7068L78.8046 52.7001L78.8253 52.6934L78.8473 52.6861L78.868 52.6801L78.8954 52.6714L78.9234 52.6627L78.9494 52.6547L78.9694 52.6487L78.9921 52.6414L79.0121 52.6354L79.0348 52.628L79.0548 52.622L79.0815 52.6134L79.0969 52.6087C79.1102 52.604 79.1236 52.6 79.1369 52.596L79.1542 52.5907L79.1796 52.582L79.1983 52.576L79.2223 52.5687L79.241 52.5626L79.2663 52.5546L79.2837 52.5493L79.3237 52.5366L79.3404 52.5313L79.3664 52.5226L79.3851 52.5166L79.4091 52.5093L79.4278 52.5033L79.4532 52.4946L79.4705 52.4893C79.4832 52.4852 79.4972 52.4806 79.5099 52.4766L79.5225 52.4726L79.5532 52.4626L79.5706 52.4566C79.5793 52.4539 79.5873 52.4512 79.5959 52.4486L79.614 52.4425L79.6393 52.4339L79.6567 52.4285L79.6887 52.4179L79.6994 52.4145L79.7394 52.4012L79.7561 52.3958L79.8001 52.3812L79.8248 52.3732L79.8428 52.3672L79.8715 52.3571L79.8848 52.3531C79.8982 52.3485 79.9122 52.3438 79.9262 52.3391L79.9396 52.3351L79.9682 52.3251L79.9849 52.3198L80.0109 52.3111L80.0283 52.3051L80.057 52.2958L80.0703 52.2911L80.1117 52.2771L80.1224 52.2737L80.1551 52.2624L80.1691 52.2577L80.1984 52.2484L80.2131 52.2431L80.2425 52.233L80.2558 52.2284C80.2698 52.2237 80.2838 52.219 80.2972 52.2144H80.2985L80.3406 52.1997L80.3546 52.195L80.3833 52.185L80.3986 52.1797L80.4266 52.1703L80.4413 52.165L80.4747 52.1536L80.484 52.1503C80.498 52.145 80.512 52.1403 80.526 52.1356L80.538 52.1316L80.5681 52.1209L80.5834 52.1156L80.6114 52.1056L80.6268 52.1003L80.6568 52.0896L80.6688 52.0856L80.7109 52.0709L80.7189 52.0682L80.7536 52.0562L80.7669 52.0516L80.8109 52.0355L80.8403 52.0255L80.8536 52.0209L80.8957 52.0055L80.8977 52.0049C80.911 52.0002 80.9244 51.9955 80.9377 51.9908L80.9524 51.9855L80.9797 51.9755L80.9958 51.9702L81.0231 51.9602L81.0385 51.9548L81.0732 51.9421L81.0798 51.9395L81.1219 51.9248L81.1345 51.9201L81.1646 51.9094L81.1792 51.9041L81.2073 51.8934L81.2219 51.8881L81.254 51.8767L81.264 51.8727L81.306 51.8574L81.316 51.8541L81.3487 51.8421L81.3621 51.8374L81.3921 51.826L81.4054 51.8214L81.4481 51.8054C81.4621 51.8007 81.4762 51.7953 81.4902 51.79L81.4942 51.7887L81.5322 51.7747L81.5462 51.7693L81.5749 51.7587L81.6189 51.7426L81.6316 51.738L81.6703 51.7233L81.6743 51.722C81.6883 51.7166 81.7023 51.7113 81.7163 51.7066L81.7277 51.7019C81.7377 51.6986 81.7484 51.6946 81.7584 51.6906L81.7724 51.6853L81.8024 51.6739L81.8151 51.6692C81.8271 51.6646 81.8384 51.6606 81.8505 51.6559L81.8571 51.6532C81.8711 51.6486 81.8858 51.6426 81.8992 51.6372L81.9098 51.6332L81.9412 51.6219L81.9559 51.6159L81.9846 51.6052L81.9986 51.5999C82.0093 51.5959 82.0193 51.5918 82.0299 51.5878L82.0406 51.5838L82.0826 51.5678L82.0887 51.5658L82.1247 51.5518L82.138 51.5465L82.1674 51.5351L82.1814 51.5298L82.2108 51.5185L82.2234 51.5138C82.2515 51.5024 82.2795 51.4918 82.3075 51.4804L82.3188 51.4764L82.3495 51.4644L82.3635 51.4591L82.3922 51.4477L82.4056 51.4424C82.4176 51.4377 82.4296 51.4331 82.4409 51.4284L82.4476 51.4264L82.4897 51.4097L82.5003 51.4057L82.5317 51.393L82.545 51.3877L82.5751 51.3763L82.5877 51.371L82.6198 51.3583L82.6298 51.3543C82.6438 51.349 82.6578 51.343 82.6718 51.3376L82.6798 51.3343L82.7138 51.321L82.7265 51.3156L82.7559 51.3043L82.7699 51.2983L82.8006 51.2863L82.8112 51.2816L82.854 51.2649H82.8546C82.8686 51.2589 82.882 51.2536 82.896 51.2482L82.9067 51.2436C82.9173 51.2396 82.9273 51.2349 82.938 51.2309L82.9507 51.2255L82.9814 51.2135L82.9934 51.2089L83.0321 51.1929L83.0348 51.1915L83.0768 51.1748L83.0881 51.1702L83.1188 51.1575L83.1328 51.1522L83.1615 51.1401L83.1749 51.1348L83.2076 51.1215L83.2169 51.1175C83.2309 51.1115 83.2443 51.1061 83.2583 51.1001L83.267 51.0968L83.2996 51.0834L83.3137 51.0774C83.323 51.0734 83.3323 51.0694 83.3417 51.0661L83.3857 51.0481L83.3984 51.0427L83.4391 51.0254L83.4444 51.0234L83.4805 51.008L83.4945 51.0027C83.5038 50.9987 83.5132 50.9947 83.5225 50.9907L83.5365 50.9847L83.5659 50.9727L83.5792 50.9673C83.6066 50.9553 83.6339 50.944 83.6613 50.9326L83.674 50.9273L83.7026 50.9153L83.718 50.9086L83.7447 50.8973L83.76 50.8906L83.7907 50.8779L83.8007 50.8733C83.8141 50.8673 83.8281 50.8619 83.8414 50.8559L83.8528 50.8512L83.8828 50.8386L83.8975 50.8319L83.9248 50.8205L83.9395 50.8139L83.9689 50.8012L83.9809 50.7965L84.0216 50.7792L84.0302 50.7752L84.077 50.7552L84.1036 50.7432L84.1197 50.7365L84.147 50.7245L84.1604 50.7191L84.1984 50.7025L84.2051 50.6991L84.2564 50.6771C84.2658 50.6731 84.2738 50.6698 84.2831 50.6651L84.2991 50.6584L84.3252 50.6471L84.3712 50.6271L84.3812 50.6224C84.3952 50.6164 84.4079 50.6104 84.4212 50.605L84.4346 50.599L84.4626 50.587L84.478 50.5797L84.504 50.5683L84.52 50.561L84.5467 50.5497L84.5614 50.543L84.6 50.5256L84.6134 50.5196L84.6408 50.5076L84.6581 50.4996L84.6821 50.4889L84.6988 50.4816L84.7248 50.4703L84.7402 50.4629L84.7755 50.4476L84.8196 50.4276L84.8369 50.4196L84.8603 50.4089L84.8783 50.4009L84.9016 50.3902L84.919 50.3822L84.9463 50.3702L84.9623 50.3628L84.9977 50.3468L85.0157 50.3388L85.0391 50.3281L85.0571 50.3201L85.0791 50.3095L85.0978 50.3008L85.1211 50.2901L85.1385 50.2828L85.1765 50.2654L85.1932 50.2574L85.2166 50.2467L85.2359 50.2381L85.2566 50.2281L85.2766 50.2194L85.298 50.2094L85.3166 50.2007L85.3453 50.1874L85.3713 50.1747L85.394 50.1647L85.4134 50.1553L85.4347 50.146L85.4541 50.1367L85.4748 50.1266L85.4948 50.118L85.5168 50.1073L85.5482 50.0926L85.5715 50.0819L85.5915 50.0719L85.6115 50.0626L85.6322 50.0533L85.6516 50.0439L85.6729 50.0339L85.6916 50.0252L85.7183 50.0119L85.7483 49.9979L85.7697 49.9879L85.7884 49.9792L85.8104 49.9685L85.8271 49.9605L85.8497 49.9492L85.8671 49.9412L85.8898 49.9305L85.9025 49.9245C85.9185 49.9171 85.9331 49.9098 85.9485 49.9025L85.9645 49.8945L85.9879 49.8831L86.0039 49.8758L86.0279 49.8644L86.0426 49.8571C86.0506 49.8538 86.0592 49.8491 86.0673 49.8457L86.0793 49.8397C86.0959 49.8317 86.1126 49.8237 86.1286 49.8157L86.1413 49.8097L86.166 49.7977L86.18 49.791L86.2047 49.7784L86.2187 49.7717L86.2441 49.7597L86.2547 49.7543C86.2848 49.7397 86.3148 49.725 86.3441 49.7103L86.3562 49.705L86.3822 49.6923L86.4316 49.6676C86.4622 49.6529 86.4923 49.6376 86.523 49.6222L86.5316 49.6182L86.559 49.6049L86.5703 49.5989L86.597 49.5855L86.6084 49.5802C86.6411 49.5642 86.6717 49.5488 86.7044 49.5322L86.7365 49.5161L86.7451 49.5121L86.7825 49.4935C86.8265 49.4714 86.8706 49.4494 86.9146 49.4267L86.9206 49.4234L86.9506 49.4087L86.958 49.4047L86.9887 49.3894L86.9907 49.388C87.0254 49.3707 87.0594 49.3533 87.0941 49.3353H87.0954C87.1061 49.3293 87.1161 49.3247 87.1268 49.3186L87.1328 49.316L87.1642 49.2993L87.1668 49.298C87.2122 49.2746 87.2589 49.2506 87.3043 49.2272L87.3063 49.2266L87.3403 49.2086H87.341C87.3997 49.1779 87.4577 49.1478 87.5164 49.1178V49.1172C88.7822 48.4566 90.0198 47.744 91.2308 46.9787C93.5607 45.4955 94.2466 42.4043 92.7634 40.0744C91.846 38.6312 90.2534 37.7578 88.5426 37.7592Z" fill="#A4B1FF"/>
<path d="M44.9994 65.0002C47.761 65.0002 49.9995 67.2387 49.9995 69.9996C48.6197 80.0552 43.5869 89.3428 36.2862 96.6428L34.9998 97.9292L12.0703 74.9997L13.3567 73.7133C16.1537 70.881 19.2802 68.3943 22.6697 66.3073C24.1883 65.4239 25.9184 64.9715 27.6745 65.0002H44.9994Z" fill="#FFEA21"/>
<path d="M30.1567 69.9996H30.0639C30.0499 70.0003 30.0352 70.0003 30.0212 70.0003H29.9845C29.9505 70.001 29.9158 70.0016 29.8818 70.003C29.8057 70.0043 29.731 70.007 29.6549 70.0103C26.9934 70.1571 24.931 72.3949 25.0018 75.0598C25.0745 77.804 27.3163 79.9932 30.0619 80.0005C30.0813 80.0005 30.102 79.9998 30.122 79.9998H30.1567C32.9243 79.9605 35.1494 77.7086 35.1561 74.941C35.1634 72.2328 32.9843 70.0263 30.2768 69.9996H30.1567Z" fill="#FFFC74"/>
<path d="M44.5045 67.3108C42.1626 67.3141 40.1362 68.9415 39.6278 71.2267C38.5256 76.1874 36.2811 80.9193 32.9577 85.2909C31.2863 87.4894 31.7133 90.6259 33.9111 92.2973C36.1049 93.9653 39.2348 93.5437 40.9095 91.3545C44.0481 87.2612 46.4981 82.6821 48.1621 77.7994C48.2002 77.6873 48.2369 77.5752 48.2736 77.4631L48.2742 77.4625L48.2829 77.4351L48.2836 77.4331L48.3096 77.3524L48.3109 77.349C48.3136 77.341 48.3163 77.3324 48.3189 77.3243L48.3209 77.319C48.329 77.293 48.3376 77.2663 48.3463 77.2396L48.347 77.2369L48.355 77.2123L48.357 77.2056C48.3656 77.1796 48.3743 77.1529 48.3823 77.1262L48.383 77.1249L48.391 77.1002L48.393 77.0935C48.3957 77.0855 48.3983 77.0775 48.401 77.0688V77.0681C48.4097 77.0408 48.4177 77.0154 48.4264 76.9881L48.429 76.9807L48.4364 76.9567L48.4377 76.9527C48.4424 76.936 48.4477 76.9187 48.4531 76.9027L48.4544 76.8993L48.4611 76.8773L48.4644 76.8673L48.4711 76.8453L48.4737 76.8373C48.4811 76.8133 48.4891 76.7892 48.4964 76.7659L48.4998 76.7545L48.5058 76.7339L48.5091 76.7232C48.5164 76.7005 48.5231 76.6778 48.5305 76.6551L48.5345 76.6411L48.5405 76.6224L48.5445 76.6084L48.5498 76.5904L48.5551 76.5744C48.5578 76.5644 48.5611 76.5537 48.5645 76.543L48.5691 76.529L48.5745 76.5103L48.5792 76.4957L48.5845 76.4783L48.5892 76.461C48.5918 76.4516 48.5952 76.441 48.5978 76.4316L48.6025 76.4163L48.6078 76.3983L48.6125 76.3829L48.6232 76.3482L48.6312 76.3215L48.6365 76.3035L48.6419 76.2862L48.6465 76.2701L48.6512 76.2535L48.6566 76.2355L48.6632 76.2121L48.6699 76.1901L48.6746 76.1741L48.6799 76.1574L48.6846 76.1407L48.6899 76.124L48.6953 76.104L48.7033 76.078L48.7073 76.0626L48.7126 76.0446L48.7173 76.0286L48.7226 76.0099L48.7273 75.9953L48.736 75.9646L48.74 75.9512L48.7453 75.9312L48.75 75.9165L48.756 75.8965L48.7593 75.8832C48.7626 75.8725 48.7653 75.8625 48.7686 75.8518L48.772 75.8405L48.778 75.8184L48.782 75.8044L48.788 75.7831L48.7913 75.7704C48.7947 75.7597 48.798 75.7491 48.8007 75.7384L48.8027 75.731L48.81 75.7044L48.8133 75.693L48.82 75.6697L48.8234 75.6583C48.826 75.6476 48.8294 75.637 48.832 75.6263L48.8327 75.625L48.842 75.5909L48.8447 75.5816L48.852 75.5556L48.8547 75.5462L48.8627 75.5155L48.8641 75.5122C48.8667 75.5002 48.8701 75.4895 48.8734 75.4775L48.8754 75.4702L48.8834 75.4421L48.8854 75.4335C48.8881 75.4235 48.8907 75.4134 48.8934 75.4034L48.8947 75.3994C48.8981 75.3881 48.9014 75.3761 48.9041 75.3647L48.9061 75.3581L48.9141 75.3294L48.9161 75.3214L48.9241 75.29L48.9254 75.2867L48.9354 75.2506L48.9361 75.248C48.9388 75.2373 48.9415 75.2266 48.9441 75.216L48.9461 75.2086L48.9548 75.1773L48.9561 75.1739C48.9621 75.1499 48.9688 75.1252 48.9748 75.1012L48.9761 75.0972C48.9795 75.0858 48.9822 75.0752 48.9848 75.0638L48.9862 75.0612C48.9922 75.0365 48.9988 75.0124 49.0048 74.9884L49.0062 74.9838L49.0148 74.9517L49.0162 74.9477L49.0349 74.875L49.0355 74.8717L49.0442 74.8383L49.0455 74.835C49.0515 74.8103 49.0582 74.7856 49.0642 74.7609V74.7602L49.0736 74.7242L49.0742 74.7222C49.0836 74.6855 49.0929 74.6482 49.1023 74.6115L49.1029 74.6088C49.205 74.2065 49.3004 73.8028 49.3905 73.3978C49.9883 70.6989 48.2842 68.0274 45.586 67.4302C45.2297 67.3508 44.8674 67.3108 44.5045 67.3108Z" fill="#FFD700"/>
<path d="M2.0712 67.0712C4.8328 64.3096 9.30981 64.3096 12.0714 67.0712L42.9288 97.9285C45.6904 100.69 45.6904 105.167 42.9288 107.929C40.1678 110.69 35.6901 110.69 32.9292 107.929L2.0712 77.0707C-0.6904 74.3091 -0.6904 69.8321 2.0712 67.0712Z" fill="#33527D"/>
<path d="M67.0712 2.0712C69.8321 -0.6904 74.3098 -0.6904 77.0707 2.0712L107.929 32.9292C110.69 35.6901 110.69 40.1678 107.929 42.9288C105.167 45.6904 100.69 45.6904 97.9285 42.9288L67.0712 12.0714C64.3096 9.30981 64.3096 4.8328 67.0712 2.0712Z" fill="#33527D"/>
<path d="M22.0707 87.071C24.8323 84.3094 29.3093 84.3094 32.0709 87.071L42.9285 97.9285C45.6901 100.69 45.6901 105.167 42.9285 107.929C40.1676 110.69 35.6899 110.69 32.929 107.929L22.0707 97.0712C19.3098 94.3096 19.3098 89.8326 22.0707 87.071Z" fill="#163969"/>
<path d="M87.0712 22.0709C89.8328 19.31 94.3098 19.31 97.0714 22.0709L107.929 32.9292C110.691 35.6901 110.691 40.1678 107.929 42.9287C105.167 45.6903 100.69 45.6903 97.9288 42.9287L87.0712 32.0712C84.3096 29.3096 84.3096 24.8325 87.0712 22.0709Z" fill="#163969"/>
<path d="M50.0007 25.0008C50.0007 38.8082 38.8082 50.0007 25.0008 50.0007C11.1942 50.0007 0.000976562 38.8082 0.000976562 25.0008C0.000976562 11.1942 11.1942 0.000976562 25.0008 0.000976562C38.8082 0.000976562 50.0007 11.1942 50.0007 25.0008Z" fill="#FFEA21"/>
<path d="M24.9998 5.00024C13.954 5.00024 5 13.9543 5 25V25.2762L5.00067 25.2849V25.3269L5.00133 25.3343V25.351L5.002 25.3603V25.3943L5.00267 25.4017V25.427L5.00334 25.435V25.4517L5.004 25.4684V25.4937L5.00467 25.5017V25.5271L5.00534 25.5351V25.5511L5.006 25.5611V25.5845L5.00667 25.5945V25.6105L5.00734 25.6178V25.6352L5.00801 25.6439V25.6605L5.00867 25.6672V25.6772L5.00934 25.6819L5.01001 25.7039V25.7199L5.01068 25.7259V25.7433L5.01134 25.752V25.76L5.01201 25.768V25.7766L5.01268 25.7846V25.7927L5.01334 25.802V25.8093L5.01401 25.8187V25.8354L5.01468 25.842V25.852L5.01535 25.858V25.8687L5.01601 25.8754L5.01668 25.8847V25.8921L5.01735 25.9014V25.9094C5.01801 25.9214 5.01868 25.9334 5.01935 25.9454V25.9501L5.02002 25.9615V25.9668L5.02068 25.9775V25.9835L5.02135 25.9928L5.02202 26.0002V26.0095L5.02269 26.0168V26.0255L5.02335 26.0335L5.02402 26.0429L5.02469 26.0502V26.0589L5.02535 26.0662L5.02602 26.0762V26.0816L5.02669 26.0929V26.0976L5.02736 26.1102C5.02869 26.1356 5.03002 26.161 5.03203 26.1863V26.1903L5.03269 26.203V26.207L5.03336 26.2177L5.03403 26.2237L5.0347 26.2343V26.2397L5.03536 26.251L5.03603 26.2557L5.0367 26.2664V26.273L5.03736 26.2824L5.03803 26.2904L5.0387 26.2991V26.3051L5.03937 26.3164L5.04003 26.3204L5.0407 26.3324V26.3364L5.04137 26.3484V26.3498C5.0427 26.3698 5.04404 26.3905 5.04604 26.4105V26.4132L5.04671 26.4265L5.04737 26.4292L5.04804 26.4425V26.4452L5.04871 26.4579L5.04937 26.4619L5.05004 26.4732L5.05071 26.4785L5.05138 26.4899V26.4946L5.05271 26.5066V26.5106L5.05404 26.5233V26.5266L5.05471 26.5386L5.05538 26.5439L5.05605 26.5553V26.5579C5.05872 26.594 5.06205 26.6293 5.06472 26.666V26.6674L5.06739 26.6981V26.6987L5.06872 26.7134V26.7147L5.07006 26.7288V26.7321L5.07139 26.7454V26.7468L5.07273 26.7614V26.7628C5.27022 29.036 5.85737 31.2585 6.80882 33.3328C7.98045 35.8336 10.9569 36.9111 13.4576 35.7402C15.933 34.5812 17.0185 31.6488 15.8949 29.1567C15.2985 27.853 14.9915 26.4352 14.9962 25.0013C15.0022 19.4808 19.4759 15.0078 24.9964 15.0011C27.7574 15.0011 29.9965 12.7626 29.9965 10.001C29.9965 7.24008 27.7614 5.00024 24.9998 5.00024Z" fill="#FFFC74"/>
<path d="M25.0002 49.9999C25.0603 49.9999 25.1197 49.9999 25.1797 49.9992H25.187C25.2091 49.9992 25.2311 49.9992 25.2524 49.9985H25.2831L25.3118 49.9979H25.3652L25.4246 49.9965L25.4593 49.9958H25.4719L25.4853 49.9952H25.486C25.4993 49.9952 25.512 49.9952 25.5253 49.9945H25.528C25.5473 49.9939 25.566 49.9939 25.5854 49.9932H25.5914C25.6094 49.9925 25.6274 49.9925 25.6461 49.9918H25.6481L25.6661 49.9912H25.6734L25.6861 49.9905H25.6915C25.7435 49.9892 25.7955 49.9878 25.8469 49.9858L25.8669 49.9852H25.8689L25.907 49.9838H25.9083C28.022 49.9098 30.1171 49.5668 32.1441 48.9643H32.1461L32.1621 48.959L32.1648 48.9583L32.1808 48.9537L32.1835 48.953L32.1995 48.9483L32.2015 48.9477L32.2168 48.943L32.2222 48.9417L32.2355 48.937L32.2542 48.9316L32.2582 48.9303L32.2729 48.9256L32.2762 48.925L32.2909 48.9203L32.2962 48.919L32.3089 48.915L32.3142 48.9136L32.3276 48.9096L32.3329 48.9076L32.3456 48.9036L32.3516 48.9023L32.3636 48.8983L32.3703 48.8963L32.3823 48.8929L32.4003 48.8869L32.4083 48.8849L32.4263 48.8789L32.437 48.8756L32.4457 48.8729L32.455 48.8703L32.4637 48.8676L32.473 48.8643L32.483 48.8616L32.4917 48.8589L32.5011 48.8556L32.5097 48.8529L32.5204 48.8496L32.5277 48.8476L32.5384 48.8436L32.5458 48.8416L32.5571 48.8376L32.5644 48.8356L32.5758 48.8322L32.5825 48.8302L32.5958 48.8256L32.6005 48.8242L32.6138 48.8202L32.6185 48.8182L32.6332 48.8135L32.6365 48.8129L32.6518 48.8075L32.6545 48.8069L32.6725 48.8009L32.6892 48.7955L32.6912 48.7949L32.7079 48.7889H32.7086L32.7266 48.7829H32.7272C33.4138 48.56 34.0864 48.3085 34.7462 48.0289C36.0153 47.4865 36.6044 46.0172 36.062 44.7475C35.5202 43.4812 34.0563 42.8907 32.788 43.4285C30.3239 44.4713 27.6751 45.0057 25.0002 44.9997C23.6191 44.9997 22.5002 46.1193 22.5002 47.4998C22.5002 48.8803 23.6198 49.9999 25.0002 49.9999ZM41.1395 43.1769C41.8154 43.1782 42.4626 42.9047 42.9323 42.419C44.7104 40.5895 46.199 38.4997 47.3466 36.2212L47.3472 36.2199L47.3552 36.2045L47.3633 36.1885L47.3639 36.1865C47.3693 36.1758 47.3746 36.1652 47.3799 36.1545L47.3806 36.1538L47.3886 36.1378V36.1371L47.3966 36.1211V36.1205C47.4026 36.1098 47.4073 36.0991 47.4133 36.0878V36.0871L47.4213 36.0711V36.0704L47.4293 36.0551L47.43 36.0531L47.438 36.0377L47.446 36.021L47.4467 36.0204C47.4627 35.987 47.4794 35.9536 47.4954 35.9203C47.5374 35.8329 47.5801 35.7448 47.6215 35.6567L47.6241 35.6514L47.6301 35.6387L47.6321 35.6354L47.6381 35.622L47.6401 35.618L47.6462 35.6047L47.6482 35.6014L47.6535 35.5887L47.6562 35.584L47.6628 35.5687L47.6702 35.554L47.6715 35.55L47.6775 35.5373L47.6795 35.5333L47.6849 35.522L47.6875 35.5153L47.6929 35.5039L47.6955 35.4993L47.7009 35.4873L47.7035 35.4819L47.7082 35.4713L47.7109 35.4646L47.7155 35.4546L47.7189 35.4472L47.7269 35.4312L47.7322 35.4199L47.7349 35.4139L47.7396 35.4032L47.7429 35.3965L47.7469 35.3872L47.7509 35.3785L47.7549 35.3692L47.7582 35.3625L47.7629 35.3525L47.7663 35.3451L47.7709 35.3345L47.7736 35.3285L47.7783 35.3178L47.7809 35.3111L47.7863 35.2998L47.7883 35.2951L47.7943 35.2831L47.7963 35.2771L47.8016 35.2664L47.8043 35.2604L47.809 35.2497L47.8123 35.2431L47.817 35.2324L47.8196 35.2264L47.8243 35.215L47.8276 35.209L47.8323 35.1984L47.835 35.1917L47.8396 35.181L47.843 35.1743L47.8477 35.1637L47.8503 35.1577L47.855 35.1463L47.8577 35.1403L47.8623 35.1296L47.8657 35.1223L47.8697 35.113L47.8777 35.0956L47.881 35.0883L47.885 35.0776L47.8884 35.0709L47.8924 35.0609L47.8964 35.0529L47.8997 35.0436L47.9037 35.0362L47.9077 35.0256L47.9104 35.0209L47.915 35.0082L47.9177 35.0029L47.923 34.9915L47.9264 34.9842L47.9304 34.9742L47.9337 34.9662L47.9377 34.9568L47.9404 34.9508L47.9451 34.9402L47.9484 34.9328L47.9524 34.9228L47.9557 34.9148L47.9597 34.9055L47.9631 34.8988C47.9704 34.8814 47.9778 34.8641 47.9851 34.8467C47.9891 34.8374 47.9931 34.8287 47.9971 34.8194L48.0004 34.8107L48.0044 34.8014L48.0085 34.7927L48.0118 34.7847L48.0158 34.776L48.0191 34.7673L48.0238 34.756L48.0265 34.75L48.0318 34.7373L48.0338 34.7333L48.0385 34.722L48.0411 34.7146L48.0445 34.708L48.0485 34.6973L48.0512 34.6906L48.0558 34.6799L48.0585 34.6733L48.0632 34.6626L48.0665 34.6546L48.0705 34.6452L48.0732 34.6379L48.0778 34.6272L48.0805 34.6212L48.0852 34.6099L48.0879 34.6039L48.0925 34.5925L48.0945 34.5865L48.0999 34.5745L48.1012 34.5705L48.1072 34.5572L48.1085 34.5532L48.1139 34.5398L48.1159 34.5345L48.1239 34.5165L48.1286 34.5045L48.1306 34.4998L48.1352 34.4871L48.1379 34.4818L48.1426 34.4698L48.1446 34.4644L48.1492 34.4531L48.1519 34.4464L48.1572 34.4351L48.1586 34.4304L48.1639 34.4171L48.1659 34.4117L48.1713 34.3997L48.1733 34.395L48.1779 34.3824L48.1806 34.377L48.1853 34.3643L48.1873 34.3597L48.1926 34.347L48.1946 34.3423L48.1993 34.3297L48.2013 34.3243L48.2066 34.3123L48.2086 34.307L48.2153 34.2903L48.2206 34.2763L48.2226 34.2716L48.2273 34.2589L48.2293 34.2543L48.2346 34.2422L48.2366 34.2362L48.2413 34.2236L48.2433 34.2196L48.248 34.2069L48.2507 34.2009L48.2553 34.1889L48.2573 34.1835L48.2613 34.1722L48.2647 34.1655L48.2693 34.1535L48.2713 34.1482L48.276 34.1355L48.278 34.1308L48.2833 34.1168L48.29 34.1001L48.292 34.0955L48.3047 34.0608H48.3054C48.3354 33.9834 48.3647 33.9066 48.3941 33.8292V33.8286L48.4008 33.8119L48.4014 33.8092L48.4074 33.7932L48.4141 33.7765L48.4155 33.7719L48.4208 33.7578L48.4215 33.7552L48.4275 33.7405L48.4288 33.7372L48.4341 33.7218L48.4408 33.7045L48.4415 33.7025L48.4475 33.6865L48.4481 33.6831L48.4535 33.6698L48.4555 33.6644L48.4602 33.6511L48.4615 33.6471L48.4668 33.6337L48.4688 33.6284L48.4735 33.6157L48.4755 33.6104L48.4802 33.5984L48.4822 33.5924L48.4868 33.5797L48.4929 33.5617L48.4949 33.5583L48.4995 33.5437L48.5009 33.5403L48.5062 33.5263L48.5075 33.5223L48.5129 33.5076L48.5135 33.5043L48.5189 33.4903L48.5202 33.487L48.5262 33.4716L48.5322 33.4536L48.5336 33.4509L48.5389 33.4349L48.5396 33.4336L48.5456 33.4176L48.5522 33.3976L48.5576 33.3822L48.5589 33.3789L48.5642 33.3635L48.5649 33.3615L48.5702 33.3468L48.5716 33.3428L48.5769 33.3282L48.5776 33.3248L48.5829 33.3108L48.5843 33.3068L48.5896 33.2915L48.5956 33.2734L48.5969 33.2714L48.6029 33.2534L48.6083 33.2368L48.6089 33.2354L48.615 33.2181V33.2174L48.621 33.2007L48.6216 33.1994C48.6717 33.0546 48.7204 32.9098 48.7684 32.7637L48.7744 32.7457V32.745C48.7764 32.739 48.7784 32.7337 48.7798 32.7277L48.7804 32.7263L48.7858 32.7097L48.7924 32.6896L48.7978 32.673L48.7984 32.6723L48.8038 32.6549L48.8044 32.6536L48.8091 32.6369L48.8158 32.6169L48.8211 32.6002L48.8218 32.5989L48.8271 32.5822L48.8278 32.5802L48.8325 32.5642L48.8331 32.5615L48.8385 32.5462L48.8391 32.5428L48.8445 32.5275L48.8451 32.5248L48.8498 32.5095L48.8511 32.5062L48.8558 32.4908L48.8565 32.4881L48.8612 32.4728L48.8625 32.4695L48.8672 32.4541L48.8678 32.4514L48.8725 32.4368L48.8738 32.4328L48.8785 32.4181L48.8798 32.4147L48.8838 32.4001L48.8852 32.3961L48.8898 32.3807L48.8905 32.378L48.8965 32.36L48.9019 32.3427C48.9072 32.324 48.9125 32.306 48.9185 32.2873C48.9632 32.1399 49.0066 31.9931 49.0486 31.8449L49.0493 31.8416L49.054 31.8256V31.8249C49.056 31.8183 49.0573 31.8129 49.0593 31.8069V31.8062C49.0627 31.7942 49.066 31.7822 49.0693 31.7702L49.07 31.7689C49.0767 31.7442 49.0833 31.7208 49.09 31.6962L49.0907 31.6942L49.0953 31.6775L49.096 31.6755L49.1 31.6588L49.1007 31.6568L49.1054 31.6401L49.106 31.6381L49.1107 31.6221L49.1114 31.6188L49.1154 31.6034L49.116 31.6007L49.1207 31.5847L49.1254 31.566L49.126 31.564L49.1307 31.5487L49.132 31.544L49.1354 31.53L49.1367 31.526L49.1407 31.5113L49.1414 31.5073L49.1461 31.492L49.1467 31.4893L49.1507 31.474L49.1514 31.47L49.1561 31.4546L49.1567 31.452L49.1607 31.4353L49.1614 31.4339L49.1661 31.4173L49.1667 31.4146L49.1707 31.3992L49.1714 31.3959L49.1754 31.3792L49.1761 31.3772L49.1807 31.3599V31.3592L49.1854 31.3412L49.1861 31.3405L49.1908 31.3225V31.3212L49.1954 31.3038V31.3032C49.1988 31.2905 49.2021 31.2785 49.2054 31.2658L49.2101 31.2471C49.2468 31.103 49.2828 30.9595 49.3169 30.8148L49.3215 30.7967V30.7947L49.3262 30.7774V30.7767L49.3302 30.7587V30.7581L49.3389 30.7214L49.3395 30.7194L49.3435 30.702V30.7013L49.3476 30.6833L49.3482 30.682C49.3496 30.6753 49.3509 30.6713 49.3522 30.6653L49.3529 30.6626L49.3562 30.6473L49.3576 30.6426L49.3609 30.6273L49.3616 30.6253L49.3656 30.6053L49.3696 30.5892L49.3702 30.5872L49.3736 30.5706L49.3742 30.5679L49.3782 30.5505V30.5499L49.3822 30.5325L49.3829 30.5305L49.3869 30.5138V30.5112L49.3909 30.4952L49.3916 30.4918L49.3949 30.4758L49.3956 30.4738L49.3996 30.4571L49.4003 30.4545L49.4036 30.4378L49.4043 30.4358L49.4076 30.4191L49.4083 30.4164L49.4123 30.3991V30.3984L49.4163 30.3811L49.4169 30.3791L49.4203 30.3617L49.4209 30.3604L49.4243 30.3444L49.4249 30.341L49.429 30.323C49.4603 30.1769 49.491 30.0315 49.5197 29.8847L49.5204 29.8833L49.527 29.8466L49.5277 29.8453L49.531 29.8273V29.8266L49.5344 29.8093L49.5384 29.7893V29.7879L49.5417 29.7706L49.5424 29.7672L49.5457 29.7512L49.5464 29.7486L49.549 29.7332L49.5504 29.7285L49.5531 29.7132L49.5537 29.7099L49.5564 29.6952L49.5577 29.6905L49.5604 29.6752L49.5611 29.6725L49.5637 29.6558L49.5644 29.6531L49.5677 29.6365V29.6345L49.5717 29.6144L49.5744 29.5984L49.5751 29.5958L49.5784 29.5798L49.5791 29.5757L49.5817 29.5604L49.5824 29.5571L49.5851 29.5424L49.5857 29.5377L49.5884 29.5224L49.5891 29.519L49.5924 29.503V29.5004L49.5958 29.483V29.4817L49.5991 29.4643L49.5998 29.4617L49.6024 29.4463L49.6031 29.4423L49.6058 29.4276L49.6064 29.4223L49.6091 29.4076L49.6098 29.4043L49.6124 29.3869L49.6131 29.3849L49.6198 29.3476L49.6264 29.3089L49.6291 29.2908L49.6298 29.2895L49.6325 29.2715V29.2702C49.6491 29.1741 49.6651 29.0773 49.6805 28.9813L49.6812 28.9793L49.6838 28.9619V28.9592L49.6872 28.9426V28.9399L49.6898 28.9232L49.6905 28.9205L49.6932 28.9039V28.9012L49.6958 28.8845L49.6965 28.8818L49.6992 28.8652L49.6998 28.8618L49.7018 28.8465L49.7032 28.8411L49.7078 28.8084L49.7092 28.8024L49.7119 28.7838L49.7139 28.7691L49.7145 28.7644L49.7165 28.7497L49.7172 28.7457L49.7199 28.7304L49.7205 28.7264L49.7225 28.711L49.7232 28.707L49.7252 28.6924L49.7259 28.687L49.7285 28.673L49.7312 28.6543L49.7319 28.6477L49.7339 28.635L49.7345 28.629L49.7365 28.6156L49.7372 28.609L49.7392 28.5963L49.7399 28.5903L49.7419 28.5769L49.7432 28.5703L49.7445 28.5576L49.7459 28.5509L49.7472 28.5389L49.7485 28.5316L49.7505 28.5189L49.7512 28.5129L49.7532 28.4995L49.7539 28.4929L49.7559 28.4802L49.7566 28.4742L49.7586 28.4602L49.7592 28.4548L49.7612 28.4401L49.7619 28.4361L49.7639 28.4215L49.7646 28.4161L49.7666 28.4021L49.7672 28.3968L49.7686 28.3828L49.7692 28.3774L49.7712 28.3628L49.7719 28.3581L49.7739 28.3447L49.7746 28.3381L49.7766 28.3254L49.7772 28.3187L49.7792 28.3054L49.7799 28.2994L49.7819 28.2847L49.7826 28.2807L49.7846 28.266L49.7852 28.2607L49.7872 28.246L49.7879 28.2413L49.7892 28.226L49.7899 28.222L49.7926 28.2046V28.2026L49.7946 28.1879L49.7953 28.1826C49.8019 28.1306 49.8079 28.0799 49.8146 28.0271L49.8153 28.0238C49.8166 28.0111 49.8179 28.0005 49.8193 27.9878V27.9851L49.8213 27.9684L49.8219 27.9658L49.8239 27.9491L49.8246 27.9437L49.8266 27.9297V27.9251L49.8286 27.9104L49.8293 27.9037L49.8306 27.891L49.832 27.8824L49.8333 27.8723L49.834 27.863L49.8353 27.8523L49.8366 27.8443L49.838 27.833L49.8386 27.8263L49.84 27.8123L49.8406 27.807L49.844 27.7736L49.8446 27.7676L49.846 27.7549L49.8473 27.7469L49.8486 27.7356L49.8493 27.7269L49.8506 27.7162L49.8513 27.7082L49.8526 27.6962L49.8533 27.6889L49.8546 27.6769L49.8553 27.6695L49.8566 27.6575L49.8573 27.6495L49.8586 27.6382L49.86 27.6301L49.8606 27.6188L49.862 27.6101L49.8626 27.5995L49.864 27.5908L49.8646 27.5794L49.866 27.5714L49.8673 27.5601L49.868 27.5514L49.87 27.5334L49.8713 27.5194V27.5141L49.8733 27.5V27.494L49.8747 27.4814L49.8753 27.474L49.8767 27.4613L49.8773 27.4547L49.8787 27.442L49.8793 27.4353L49.8807 27.4226L49.8813 27.4153L49.8827 27.404L49.8833 27.3953L49.884 27.3839L49.8847 27.3759L49.886 27.3626L49.8867 27.3573L49.888 27.3426L49.8887 27.3372L49.89 27.3246L49.8907 27.3172L49.8913 27.3039L49.892 27.2979L49.8933 27.2832L49.894 27.2785L49.8953 27.2632L49.896 27.2592L49.8967 27.2458L49.8973 27.2392L49.8987 27.2251L49.8993 27.2198L49.9007 27.2018V27.2005L49.9027 27.1818V27.1811L49.904 27.1624V27.1611C49.9087 27.1084 49.9127 27.0557 49.9174 27.003L49.918 26.9976L49.9187 26.983L49.9194 26.9789L49.9207 26.9636V26.9563L49.922 26.9443L49.9227 26.9362L49.9234 26.9249L49.924 26.9162L49.9247 26.9042L49.9254 26.8989L49.9267 26.8849V26.8789L49.928 26.8649V26.8588L49.9294 26.8455V26.8382L49.9307 26.8255L49.9314 26.8195L49.932 26.8061L49.9327 26.7988L49.9334 26.7861L49.934 26.7788L49.9347 26.7674L49.9354 26.7588L49.936 26.7474L49.9367 26.7401L49.9374 26.7274L49.938 26.7201L49.9387 26.7074L49.9394 26.7001L49.94 26.688L49.9407 26.68L49.9414 26.6687L49.942 26.66L49.9427 26.6487L49.9434 26.64L49.944 26.6293L49.9447 26.6207L49.9454 26.6093L49.946 26.6006L49.9467 26.5893V26.5826L49.9474 26.5693L49.948 26.5619L49.9487 26.5499L49.9494 26.5419L49.95 26.5306L49.9507 26.5219L49.9514 26.5106L49.952 26.5032L49.9527 26.4905V26.4825L49.9534 26.4712L49.9541 26.4625L49.9554 26.4425L49.9561 26.4318L49.9567 26.4232L49.9574 26.4118V26.4038L49.9581 26.3918L49.9587 26.3838L49.9594 26.3731L49.9601 26.3631V26.3531L49.9607 26.3438L49.9614 26.3331L49.9621 26.3237L49.9627 26.3131V26.3044L49.9634 26.2944L49.9647 26.273V26.265L49.9654 26.2523L49.9661 26.245L49.9667 26.233V26.225L49.9674 26.2143L49.9681 26.205L49.9687 26.193V26.1856L49.9694 26.173L49.9701 26.1656L49.9707 26.1536V26.1456L49.9721 26.1256L49.9727 26.1116V26.1062L49.9734 26.0922V26.0862L49.9747 26.0662V26.0649L49.9754 26.0382C49.9761 26.0275 49.9761 26.0182 49.9767 26.0075L49.9774 25.9975V25.9875L49.9781 25.9735V25.9674L49.9787 25.9568V25.9474L49.9794 25.9374V25.9281L49.9801 25.9174V25.9081L49.9814 25.8881V25.878L49.9821 25.868V25.8587L49.9827 25.848V25.8387L49.9834 25.828V25.818L49.9841 25.8087V25.7986L49.9847 25.788V25.7793L49.9854 25.7686V25.7593L49.9861 25.7479V25.7286L49.9867 25.7192V25.7079L49.9874 25.6992V25.6886L49.9881 25.6792V25.6592L49.9887 25.6485V25.6285L49.9894 25.6185V25.5991L49.9901 25.5885V25.5591L49.9907 25.5484V25.5191L49.9914 25.5091V25.4797L49.9921 25.4684V25.4397L49.9927 25.4297V25.3997L49.9934 25.389V25.3596L49.9941 25.3496V25.2902L49.9948 25.2796V24.7198L49.9941 24.7077V24.6364L49.9934 24.6163V24.5743L49.9927 24.5656V24.5329L49.9921 24.5243V24.4916L49.9914 24.4822V24.4615L49.9907 24.4495V24.4282L49.9901 24.4195V24.3988L49.9894 24.3868V24.3661L49.9887 24.3581V24.3368L49.9881 24.3268V24.3154L49.9874 24.3048V24.2954L49.9867 24.2821V24.2747L49.9861 24.2567V24.254L49.9854 24.2334V24.224L49.9847 24.2127V24.2047L49.9841 24.1913V24.1847L49.9834 24.1706V24.1626L49.9827 24.1506V24.1406L49.9821 24.1299V24.1206L49.9814 24.1093V24.0999L49.9807 24.0886V24.0792L49.9801 24.0672V24.0592L49.9794 24.0465L49.9787 24.0385V24.0252L49.9781 24.0178L49.9774 24.0045V23.9972L49.9767 23.9852V23.9758L49.9761 23.9645L49.9754 23.9558V23.9425L49.9747 23.9351L49.9741 23.9191V23.9151L49.9734 23.8984L49.9727 23.8937L49.9714 23.8524L49.9707 23.8457L49.9701 23.8317L49.9694 23.823V23.8117L49.9687 23.8023L49.9681 23.7903V23.7817L49.9674 23.7703L49.9667 23.761L49.9661 23.7496L49.9654 23.7396L49.9647 23.7289V23.7196L49.9641 23.7083L49.9634 23.6989L49.9627 23.6882L49.9621 23.6782V23.6676L49.9607 23.6475L49.9601 23.6369L49.9594 23.6269V23.6162L49.9581 23.6062V23.5962L49.9574 23.5848L49.9567 23.5755L49.9561 23.5635L49.9554 23.5555L49.9547 23.5415V23.5348L49.9534 23.5188V23.5141L49.952 23.4941L49.9514 23.4861L49.9507 23.4734L49.95 23.4647L49.9494 23.4527V23.444L49.9487 23.432L49.948 23.4234L49.9474 23.4114L49.9467 23.404L49.946 23.3907L49.9454 23.3833L49.9447 23.3707L49.944 23.3626L49.9434 23.35L49.9427 23.342L49.942 23.3293L49.9414 23.3206L49.94 23.2993L49.9394 23.2899L49.9387 23.2792L49.938 23.2692L49.9374 23.2586L49.936 23.2385L49.9354 23.2279L49.9334 23.1978L49.9327 23.1872L49.932 23.1772L49.9314 23.1665L49.9307 23.1571L49.9294 23.1438L49.9287 23.1311L49.9274 23.1158L49.9267 23.1111L49.926 23.0958L49.9254 23.0898L49.924 23.0744V23.0697L49.9227 23.0551L49.922 23.0464L49.9207 23.0344L49.92 23.0257L49.9194 23.0144L49.9187 23.0044L49.918 22.9937L49.9167 22.9837L49.916 22.9743L49.9154 22.963L49.9147 22.9536L49.914 22.943L49.9127 22.933L49.912 22.9236L49.9114 22.9116L49.9107 22.9029L49.91 22.8923L49.9087 22.8822L49.908 22.8716L49.9073 22.8616L49.9067 22.8509L49.9053 22.8415L49.9047 22.8295L49.904 22.8209L49.9033 22.8102L49.902 22.8008L49.9007 22.7862L49.9 22.7808L49.8967 22.7401L49.8953 22.7201L49.894 22.7088L49.8933 22.6994L49.892 22.6901L49.8913 22.6787L49.8907 22.6687L49.8893 22.6587L49.8887 22.6481L49.888 22.638L49.8867 22.6274L49.886 22.6174L49.8847 22.6087L49.884 22.5967L49.8827 22.588L49.882 22.5767L49.8807 22.5673L49.88 22.5566L49.8787 22.546L49.878 22.536L49.8767 22.5266L49.876 22.5153L49.8747 22.5059L49.874 22.4953L49.8727 22.4859L49.872 22.4759L49.8706 22.4652L49.8693 22.4526L49.8686 22.4459L49.8673 22.4279L49.8666 22.4259L49.8626 22.3845L49.862 22.3805L49.8606 22.3638L49.86 22.3585L49.8586 22.3438L49.8573 22.3365L49.856 22.3238L49.8553 22.3144L49.854 22.3038L49.8533 22.2938L49.852 22.2831L49.8513 22.2744L49.85 22.2631L49.8486 22.2537L49.848 22.2424L49.8466 22.233L49.8453 22.223L49.8446 22.213L49.8433 22.2024L49.842 22.193L49.8413 22.1823L49.84 22.173L49.8386 22.1617L49.838 22.153L49.8366 22.141L49.8353 22.1323L49.834 22.1203L49.8333 22.1123L49.832 22.1003L49.8306 22.0916L49.8293 22.0796L49.8286 22.0716L49.8273 22.0596L49.8259 22.0516L49.8213 22.0115L49.8199 22.0015L49.8193 21.9915L49.8179 21.9822L49.8166 21.9715L49.8153 21.9615L49.8139 21.9508L49.8126 21.9421L49.8113 21.9308L49.8106 21.9215L49.8093 21.9101L49.8079 21.9014L49.8066 21.8901L49.8053 21.8814L49.8039 21.8694L49.8033 21.8614L49.8019 21.8494L49.8006 21.8414L49.7993 21.8287L49.7979 21.8214L49.7966 21.8087L49.7959 21.8007L49.7939 21.7887L49.7933 21.7807L49.7912 21.7687L49.7906 21.76L49.7886 21.7467L49.7879 21.7406L49.7866 21.7266L49.7852 21.72L49.7839 21.7066L49.7826 21.6999L49.7806 21.6846L49.7799 21.6793L49.7746 21.6399L49.7732 21.6299L49.7719 21.6192L49.7706 21.6119L49.7692 21.5992L49.7679 21.5912L49.7666 21.5785L49.7652 21.5698L49.7639 21.5592L49.7626 21.5498L49.7606 21.5385L49.7599 21.5305L49.7579 21.5185L49.7572 21.5105L49.7552 21.4978L49.7539 21.4904L49.7526 21.4791L49.7512 21.4698L49.7492 21.4584L49.7479 21.4497L49.7465 21.4384L49.7452 21.4304L49.7439 21.4177L49.7425 21.4104L49.7405 21.3977L49.7392 21.3897L49.7379 21.3763L49.7365 21.3697L49.7345 21.3563L49.7339 21.3503L49.7319 21.335L49.7312 21.3296L49.7292 21.3156L49.7279 21.3096L49.7252 21.2896L49.7245 21.2856L49.7225 21.2689L49.7219 21.2656L49.7192 21.2489L49.7185 21.2442L49.7165 21.2296L49.7152 21.2222L49.7132 21.2095L49.7125 21.2035L49.7099 21.1889L49.7092 21.1822L49.7072 21.1695L49.7058 21.1622L49.7038 21.1495L49.7025 21.1408L49.7012 21.1295L49.6978 21.1095L49.6965 21.1008L49.6945 21.0894L49.6932 21.0814L49.6912 21.0701L49.6898 21.0608L49.6885 21.0501L49.6872 21.0414L49.6852 21.0301L49.6832 21.0207L49.6805 21.0007L49.6792 20.9927L49.6772 20.98L49.6758 20.9754L49.6738 20.9613L49.6718 20.9487L49.6692 20.9347L49.6671 20.922L49.6658 20.9146L49.6638 20.9026L49.6625 20.894L49.6591 20.8739L49.6571 20.8626L49.6558 20.8533L49.6538 20.8426L49.6525 20.8332L49.6511 20.8232L49.6491 20.8132L49.6471 20.8025L49.6458 20.7939L49.6445 20.7832L49.6425 20.7739L49.6405 20.7632L49.6391 20.7538L49.6371 20.7432L49.6358 20.7345L49.6325 20.7145L49.6305 20.7038L49.6291 20.6938L49.6271 20.6838L49.6258 20.6744L49.6218 20.6544L49.6204 20.6437L49.6184 20.6344L49.6164 20.6237L49.6151 20.6151C49.6111 20.595 49.6078 20.575 49.6044 20.5557L49.6031 20.5497L49.6011 20.5363L49.5991 20.525L49.5971 20.517L49.5951 20.5056L49.5938 20.497L49.5918 20.4856L49.5898 20.4776L49.5877 20.4663L49.5864 20.4576L49.5844 20.4462L49.5824 20.4376L49.5804 20.4276L49.5791 20.4182L49.5771 20.4069L49.5751 20.3989L49.5731 20.3875L49.5717 20.3789L49.5697 20.3669L49.5677 20.3602L49.5624 20.3282L49.5604 20.3201L49.5584 20.3088L49.5564 20.2995L49.5544 20.2888L49.5524 20.2788L49.5511 20.2694L49.549 20.2601L49.5471 20.2488L49.5464 20.2474C49.5437 20.2321 49.5404 20.2167 49.5377 20.2014L49.5337 20.18L49.5317 20.1714L49.5297 20.16L49.5277 20.1513L49.5257 20.1413L49.5217 20.1227L49.5197 20.112L49.5177 20.102L49.5157 20.0926L49.5137 20.082L49.5117 20.0726L49.5097 20.0626L49.5077 20.0533L49.5063 20.0433L49.5037 20.0326L49.4997 20.0139L49.4977 20.0039L49.4957 19.9932L49.4937 19.9845L49.4917 19.9732L49.4903 19.9659L49.4877 19.9532L49.4863 19.9452L49.4837 19.9345L49.4817 19.9258L49.4797 19.9145L49.4777 19.9058L49.475 19.8931L49.4737 19.8865L49.4703 19.8704L49.4683 19.8591L49.4656 19.8478L49.4636 19.8371L49.4616 19.8277L49.4596 19.8191L49.4576 19.8077L49.4556 19.7991L49.453 19.789L49.451 19.779L49.449 19.7697L49.447 19.7584L49.445 19.7497L49.443 19.7397L49.441 19.7303L49.4383 19.7197L49.437 19.711L49.4343 19.6996L49.433 19.6923L49.4296 19.6796L49.4283 19.6723L49.4263 19.6616L49.4236 19.6523L49.4216 19.6416L49.4203 19.6336L49.4176 19.6222L49.4156 19.6142L49.4129 19.6022L49.4116 19.5949L49.4089 19.5835L49.4069 19.5749L49.4049 19.5635L49.4029 19.5549L49.4003 19.5442L49.3983 19.5355L49.3949 19.5188L49.3916 19.5055V19.5035L49.3856 19.4775L49.3829 19.4668L49.3809 19.4574L49.3789 19.4474L49.3762 19.4381L49.3742 19.4274L49.3716 19.4181L49.3696 19.4087L49.3676 19.3987L49.3649 19.3887L49.3609 19.37L49.3582 19.36L49.3562 19.3493L49.3542 19.3407L49.3516 19.3307L49.3496 19.3207L49.3476 19.3113L49.3449 19.3013L49.3429 19.2926L49.3402 19.282L49.3382 19.2726L49.3355 19.2619L49.3335 19.2533L49.3315 19.2433L49.3289 19.2333L49.3269 19.2232L49.3249 19.2152L49.3222 19.2039L49.3202 19.1952L49.3175 19.1852L49.3155 19.1765C49.3122 19.1612 49.3089 19.1492 49.3055 19.1338L49.3042 19.1278L49.3008 19.1158L49.2995 19.1085L49.2968 19.0978L49.2942 19.0885L49.2922 19.0785L49.2902 19.0698L49.2875 19.0591L49.2848 19.0504L49.2828 19.0398L49.2802 19.0304L49.2782 19.0211L49.2755 19.0111L49.2728 19.0017L49.2708 18.9917L49.2688 18.983L49.2662 18.9724L49.2635 18.963L49.2608 18.953L49.2588 18.9437L49.2561 18.9337L49.2541 18.9243L49.2508 18.9137L49.2488 18.9057L49.2461 18.8943L49.2441 18.8856L49.2415 18.8756L49.2395 18.867L49.2368 18.8556L49.2348 18.8469L49.2308 18.8323L49.2301 18.8283L49.2234 18.8016L49.2201 18.7896L49.2208 18.7829L49.2181 18.7702L49.2161 18.7622L49.2128 18.7502L49.2108 18.7442L49.2074 18.7315L49.2054 18.7228L49.2028 18.7122L49.2001 18.7035L49.1981 18.6935L49.1954 18.6841L49.1928 18.6741L49.1901 18.6648L49.1881 18.6548L49.1854 18.6454L49.1828 18.6354L49.1807 18.6261L49.1774 18.6161L49.1754 18.6074L49.1727 18.5967L49.1701 18.5881L49.1681 18.5787L49.1654 18.568L49.1627 18.5594L49.1574 18.5393L49.1547 18.53L49.1521 18.5187L49.1501 18.5107L49.1474 18.5013L49.1447 18.4913L49.1421 18.4806L49.1394 18.4726L49.1347 18.4533L49.1294 18.4346L49.126 18.4206L49.1247 18.4159L49.1207 18.4032L49.1187 18.3959L49.116 18.3866L49.1134 18.3765L49.108 18.3579L49.1054 18.3479L49.1027 18.3385L49.1 18.3285L49.0947 18.3098L49.092 18.2998L49.0867 18.2811L49.084 18.2711L49.082 18.2631L49.0787 18.2511L49.076 18.2431L49.0707 18.2231L49.068 18.2144L49.0653 18.2037L49.0627 18.1957L49.06 18.1851L49.0573 18.1757L49.054 18.165L49.052 18.1577L49.0486 18.1464L49.0466 18.1377L49.0446 18.1323L49.032 18.0883L49.0306 18.081L49.0273 18.0703L49.0253 18.0623L49.0219 18.0516L49.0193 18.0429L49.0166 18.0329L49.0139 18.0249L49.0113 18.0143L49.0059 17.9956L49.0033 17.9869L48.9999 17.9756L48.9973 17.9675L48.9946 17.9562L48.9919 17.9489L48.9886 17.9382L48.9866 17.9288L48.9833 17.9188L48.9806 17.9102L48.9779 17.9002L48.9746 17.8902L48.9726 17.8815L48.9692 17.8715L48.9666 17.8621L48.9639 17.8521L48.9606 17.8434L48.9586 17.8348L48.9552 17.8241L48.9532 17.8168L48.9492 17.8047L48.9479 17.8001C48.9412 17.7787 48.9352 17.7574 48.9285 17.736L48.9272 17.73L48.9239 17.72L48.9212 17.7113L48.9179 17.7007L48.9152 17.692L48.9125 17.682L48.9099 17.6733L48.9065 17.6633L48.9039 17.6546L48.9012 17.6453L48.8979 17.6359L48.8952 17.6259L48.8925 17.6166L48.8892 17.6073L48.8865 17.5972L48.8838 17.5886L48.8805 17.5786L48.8778 17.5699L48.8745 17.5592L48.8718 17.5505L48.8692 17.5412L48.8632 17.5232L48.8598 17.5118L48.8578 17.5052L48.8538 17.4932L48.8525 17.4878L48.8425 17.4558V17.4551L48.8318 17.4224L48.8305 17.4191L48.8198 17.3857L48.8191 17.3824L48.8144 17.3684L48.8131 17.3637L48.8091 17.351L48.8071 17.3444L48.8024 17.3317L48.8011 17.3264L48.7964 17.313L48.7951 17.3077L48.7911 17.295L48.7884 17.2883L48.7851 17.2776L48.7824 17.269L48.7791 17.2583L48.7764 17.2516L48.7724 17.2389L48.7704 17.2329L48.7664 17.2203L48.7644 17.2149L48.7604 17.2016L48.7584 17.1969L48.7537 17.1822L48.7531 17.1802L48.7477 17.1636V17.1622L48.7417 17.1455V17.1442L48.7357 17.1269L48.7351 17.1262C48.7277 17.1028 48.7204 17.0808 48.7124 17.0575L48.711 17.0541L48.7057 17.0374L48.705 17.0361L48.6997 17.0214L48.6984 17.0174L48.6943 17.0041L48.6923 16.9981L48.6883 16.9874L48.6857 16.9787L48.6823 16.9694L48.6797 16.9601L48.6757 16.95L48.673 16.942L48.6697 16.9314L48.667 16.9234L48.663 16.9133L48.6603 16.9047L48.6563 16.8933L48.6483 16.8693L48.6436 16.8566L48.6376 16.8386L48.635 16.8313L48.631 16.8199L48.629 16.8139L48.625 16.8013L48.623 16.7966C48.6129 16.7679 48.6029 16.7392 48.5929 16.7105L48.5889 16.6978L48.5863 16.6912L48.5823 16.6805L48.5796 16.6732L48.5756 16.6618L48.5729 16.6545L48.5669 16.6365L48.5622 16.6244L48.5602 16.6178L48.5556 16.6058L48.5536 16.5998L48.5489 16.5877L48.5469 16.5811L48.5422 16.5691L48.5402 16.5637L48.5356 16.5511L48.5336 16.5444L48.5275 16.5264L48.5229 16.5144L48.5202 16.5077L48.5162 16.4963L48.5135 16.4897L48.5095 16.4777L48.5075 16.4723L48.5029 16.459L48.5022 16.457C48.4962 16.4403 48.4895 16.4229 48.4835 16.4063L48.4828 16.4049L48.4788 16.3943L48.4762 16.3862L48.4722 16.3762L48.4695 16.3676L48.4655 16.3569L48.4628 16.3496L48.4588 16.3389L48.4555 16.3309L48.4515 16.3202L48.4488 16.3129L48.4448 16.3015L48.4421 16.2948L48.4375 16.2828L48.4315 16.2648L48.4288 16.2581L48.4241 16.2455L48.4221 16.2401L48.4175 16.2281L48.4155 16.2214L48.4108 16.2094L48.4088 16.2034L48.4041 16.1914L48.4014 16.1847L48.3968 16.1727L48.3954 16.1681L48.3901 16.1547L48.3881 16.1494L48.3834 16.136L48.3814 16.1314L48.3768 16.1187L48.3748 16.114L48.3501 16.0486L48.3487 16.0466L48.3367 16.0139L48.3354 16.0106L48.3301 15.9966L48.328 15.9919L48.3234 15.9799L48.3207 15.9732L48.316 15.9606L48.314 15.9559L48.3087 15.9426L48.3074 15.9379L48.302 15.9245L48.3 15.9199L48.2954 15.9079L48.2927 15.9005L48.2887 15.8892L48.286 15.8832L48.2813 15.8718L48.2787 15.8638L48.2747 15.8538L48.2707 15.8451L48.264 15.8265L48.26 15.8171L48.2573 15.8111L48.2527 15.7984L48.2507 15.7944L48.2453 15.7804L48.2446 15.7784C48.236 15.7571 48.2273 15.7344 48.2186 15.713L48.2166 15.709L48.2126 15.6977L48.2093 15.691L48.2046 15.679L48.2026 15.673L48.1973 15.661L48.1953 15.655L48.1899 15.6423L48.1879 15.637L48.1833 15.6256L48.1806 15.619L48.1759 15.6076L48.1733 15.6003L48.1686 15.5896L48.1659 15.5823L48.1612 15.5709L48.1586 15.5636L48.1466 15.5356L48.1439 15.5282L48.1392 15.5169L48.1366 15.5109L48.1319 15.4982L48.1306 15.4942L48.1245 15.4808L48.1225 15.4755L48.1172 15.4622L48.1165 15.4615C48.1092 15.4435 48.1025 15.4281 48.0952 15.4101V15.4094L48.0818 15.3781L48.0805 15.3741L48.0745 15.3607L48.0725 15.3561L48.0678 15.3441L48.0652 15.3374L48.0605 15.3267L48.0578 15.3194L48.0532 15.3094L48.0498 15.3014L48.0458 15.2913L48.0425 15.2833L48.0385 15.274L48.0338 15.264L48.0311 15.2567L48.0265 15.2466L48.0231 15.238L48.0191 15.2286L48.0151 15.22L48.0118 15.2113L48.0071 15.2013L48.0044 15.1939L47.9998 15.1833L47.9964 15.1753L47.9924 15.1652L47.9891 15.1579L47.9844 15.1472L47.9818 15.1406L47.9764 15.1292L47.9751 15.1245C47.9631 15.0979 47.9511 15.0705 47.9397 15.0438L47.9384 15.0411L47.9324 15.0271L47.9304 15.0238L47.925 15.0105L47.923 15.0058L47.9177 14.9938L47.915 14.9871L47.9097 14.9758L47.9017 14.9577L47.8997 14.9524L47.8937 14.9391L47.8917 14.9351L47.8864 14.9224L47.8843 14.917L47.8783 14.9037L47.8763 14.9004L47.871 14.887L47.8683 14.8817L47.863 14.869L47.861 14.8643L47.855 14.851L47.8537 14.8477L47.847 14.833C47.829 14.7936 47.8116 14.7542 47.7943 14.7149L47.7916 14.7109L47.7856 14.6962L47.7843 14.6935L47.7776 14.6795L47.7763 14.6755L47.7696 14.6615L47.7683 14.6588L47.7622 14.6448L47.7603 14.6408L47.7536 14.6261L47.7522 14.6235L47.7456 14.6088L47.7442 14.6061L47.7382 14.5921L47.7356 14.5874L47.7302 14.5748L47.7276 14.5694L47.7222 14.5567L47.7202 14.5534L47.7135 14.5394L47.7122 14.5367L47.7055 14.5214L47.7049 14.52L47.6975 14.504C47.6795 14.4647 47.6608 14.4253 47.6422 14.3859L47.6408 14.3833L47.6348 14.3699L47.6328 14.3653L47.6241 14.3479L47.6181 14.3352L47.6161 14.3306L47.6101 14.3172L47.6021 14.3012L47.5941 14.2832L47.5854 14.2658L47.5834 14.2612L47.5748 14.2438L47.5688 14.2311L47.5668 14.2258L47.5601 14.2131L47.5588 14.2098L47.5521 14.1958L47.5507 14.1931C47.5461 14.1824 47.5407 14.1718 47.5354 14.1611L47.5347 14.1598C47.5247 14.1384 47.5134 14.1151 47.5034 14.0937L47.4954 14.0777L47.494 14.0757L47.488 14.063L47.4854 14.0577L47.4794 14.045L47.4773 14.0403L47.4713 14.029L47.468 14.0223L47.4633 14.0116L47.46 14.005L47.454 13.9936L47.4513 13.9883L47.4453 13.9756L47.4433 13.9716L47.4373 13.9589L47.4346 13.9536L47.4286 13.9409L47.426 13.9369L47.42 13.9242L47.4173 13.9196L47.4113 13.9062L47.4093 13.9029L47.4026 13.8895L47.4006 13.8849L47.3939 13.8722L47.3853 13.8548L47.3846 13.8528C47.3686 13.8201 47.3512 13.7868 47.3352 13.7541L47.3192 13.7221L47.3166 13.7174L47.3105 13.7047L47.3085 13.7007L47.3019 13.688L47.2999 13.6834L47.2932 13.6707L47.2912 13.666L47.2845 13.6533L47.2825 13.6487L47.2759 13.636L47.2732 13.6313L47.2672 13.6193L47.2645 13.6146L47.2578 13.6013L47.2565 13.5993L47.2492 13.5853L47.2472 13.5813L47.2405 13.5673L47.2398 13.5659L47.2318 13.5506L47.2305 13.5479C47.2138 13.5159 47.1971 13.4832 47.1798 13.4512L47.1791 13.4492L47.1718 13.4358L47.1698 13.4318L47.1644 13.4205L47.1604 13.4138L47.1551 13.4031L47.1517 13.3971L47.1464 13.3858L47.1424 13.3798L47.1337 13.3624L47.1284 13.3531L47.1244 13.3451L47.1191 13.3351L47.1164 13.3291L47.1097 13.3177L47.1064 13.3117L47.101 13.301L47.0977 13.295L47.0917 13.2837L47.0884 13.2777L47.0824 13.2664L47.0804 13.2617L47.0737 13.2497L47.071 13.2443L47.0643 13.2323L47.0617 13.2277L47.0557 13.2156L47.053 13.211L47.0223 13.1536L47.019 13.1483L47.013 13.1376L47.0103 13.1316L47.0043 13.1202L47.001 13.1142L46.995 13.1036L46.9916 13.0975L46.9863 13.0875L46.9823 13.0795L46.9769 13.0695L46.9729 13.0635L46.9669 13.0522L46.9643 13.0468L46.9576 13.0342L46.9556 13.0308L46.9489 13.0181L46.9456 13.0128L46.9396 13.0015L46.9369 12.9968L46.9302 12.9848L46.9276 12.9795L46.9209 12.9674L46.9189 12.9634L46.9116 12.9508L46.9089 12.9461L46.9022 12.9334V12.9327C46.8835 12.9001 46.8662 12.868 46.8475 12.8347L46.8468 12.834L46.8402 12.8213L46.8375 12.8167L46.8302 12.8033L46.8282 12.8006L46.8215 12.7873L46.8188 12.7833L46.8115 12.7699L46.8101 12.7673L46.8021 12.7539L46.8001 12.7499L46.7928 12.7373L46.7908 12.7332L46.7841 12.7206L46.7808 12.7159L46.7741 12.7039L46.7721 12.6999L46.7648 12.6872L46.7621 12.6825L46.7554 12.6705L46.7528 12.6665L46.7461 12.6539L46.7441 12.6498L46.7361 12.6365L46.7347 12.6345L46.7267 12.6198L46.7261 12.6185C46.7074 12.5865 46.6894 12.5544 46.6707 12.5224L46.67 12.5211L46.6613 12.5057L46.6607 12.5051L46.652 12.4897L46.6513 12.489L46.642 12.473V12.4724L46.6333 12.4584L46.632 12.4557L46.624 12.4423L46.622 12.4383L46.6146 12.4263L46.612 12.4217L46.6046 12.409L46.6026 12.4056L46.5953 12.393L46.5933 12.389L46.5853 12.3763L46.5833 12.373L46.5759 12.3603L46.5733 12.3556L46.5659 12.3429L46.5646 12.3409L46.5566 12.3269L46.5539 12.3229L46.5466 12.3102L46.5459 12.3089L46.5372 12.2942L46.5352 12.2909C46.5232 12.2709 46.5119 12.2509 46.4992 12.2308L46.4979 12.2288C46.4919 12.2182 46.4859 12.2088 46.4805 12.1988L46.4785 12.1955L46.4712 12.1835L46.4685 12.1788L46.4625 12.1681L46.4578 12.1614L46.4525 12.1514L46.4485 12.1454L46.4425 12.1348L46.4385 12.1288L46.4225 12.1021L46.4178 12.0947L46.4125 12.0854L46.4085 12.0794L46.4025 12.0694L46.3978 12.062L46.3925 12.0527L46.3831 12.0367L46.3771 12.0273L46.3724 12.02L46.3684 12.0133L46.3618 12.0026L46.3604 12C46.3444 11.9746 46.3297 11.9493 46.3137 11.9239L46.3124 11.9219L46.3057 11.9106L46.3024 11.9052L46.295 11.8932L46.2924 11.8892L46.285 11.8772L46.2824 11.8725L46.275 11.8612L46.2717 11.8559L46.2657 11.8459L46.261 11.8392L46.255 11.8292L46.2517 11.8232L46.241 11.8072L46.2343 11.7965L46.2303 11.7898L46.225 11.7811L46.2203 11.7738L46.2143 11.7638L46.2103 11.7584L46.2036 11.7478L46.201 11.7424L46.1936 11.7311L46.191 11.7271L46.1836 11.7151L46.1803 11.7104L46.1729 11.6984L46.1723 11.6971L46.1443 11.653L46.1429 11.6504L46.1329 11.635L46.1256 11.6237L46.1222 11.6177L46.1116 11.6017L46.1056 11.5916L46.1009 11.5856L46.0909 11.569L46.0849 11.5596L46.0802 11.5529L46.0742 11.5429L46.0702 11.5369L46.0642 11.5276L46.0595 11.5196L46.0542 11.5109L46.0495 11.5042L46.0435 11.4949L46.0388 11.4876L46.0328 11.4782L46.0222 11.4622L46.0175 11.4555L46.0115 11.4462L46.0075 11.4395L45.9968 11.4235L45.9908 11.4135L45.9875 11.4088C45.9748 11.3895 45.9621 11.3695 45.9494 11.3501V11.3494L45.9414 11.3381L45.9388 11.3334L45.9314 11.3228L45.9281 11.3174L45.9174 11.3014L45.9114 11.2921L45.9067 11.2847L45.896 11.2687L45.89 11.26L45.8854 11.2527L45.8794 11.244L45.8747 11.2367L45.8687 11.2273L45.864 11.2207L45.8587 11.212L45.8427 11.188L45.8367 11.18L45.832 11.172L45.8267 11.164L45.8207 11.1553L45.816 11.1479L45.8106 11.1399L45.8046 11.1313L45.8006 11.1246L45.794 11.1153L45.7579 11.0612L45.7506 11.0505L45.7479 11.0472L45.7399 11.0345L45.7366 11.0305L45.7286 11.0185L45.7252 11.0132L45.7186 11.0032L45.7132 10.9958L45.7072 10.9871L45.7026 10.9798L45.6966 10.9711L45.6919 10.9645L45.6852 10.9545L45.6812 10.9478L45.6752 10.9391L45.6699 10.9318L45.6639 10.9231L45.6592 10.9158L45.6532 10.9071L45.6478 10.8997L45.6425 10.8911L45.6372 10.8831L45.6325 10.8771L45.6152 10.851L45.6105 10.8444L45.5985 10.827L45.5938 10.8197L45.5885 10.8123L45.5825 10.8037L45.5818 10.8023L45.5698 10.7856L45.5498 10.7563L45.5451 10.7496L45.5384 10.7409L45.5331 10.7329L45.5271 10.7243L45.5164 10.7083L45.5117 10.7016L45.5051 10.6929L45.5004 10.6849L45.4884 10.6689L45.483 10.6609L45.4784 10.6535L45.4717 10.6449L45.4664 10.6375L45.4604 10.6295L45.455 10.6215L45.4497 10.6142L45.4437 10.6048L45.433 10.5902L45.427 10.5815L45.4217 10.5741L45.4157 10.5661L45.4103 10.5581L45.4043 10.5495L45.3996 10.5421L45.389 10.5274H45.3883L45.3796 10.5148L45.3743 10.5074L45.3656 10.4954L45.3596 10.4867L45.3549 10.4801L45.3496 10.4721L45.3429 10.4634L45.3383 10.4574L45.3262 10.44L45.3209 10.4327L45.3156 10.4247L45.3096 10.4167L45.3042 10.4093L45.2982 10.4007L45.2929 10.3933L45.2809 10.3773L45.2762 10.37L45.2695 10.3613L45.2649 10.3553L45.2582 10.346L45.2535 10.3386L45.2475 10.3306L45.2415 10.3233L45.2362 10.3153L45.2295 10.3066L45.2248 10.2999L45.2188 10.2912L45.2135 10.2839L45.2062 10.2746L45.2021 10.2686L45.1948 10.2586L45.1908 10.2525L45.1828 10.2419L45.1788 10.2372L45.1708 10.2259L45.1655 10.2185L45.1561 10.2058L45.1534 10.2018L45.1448 10.1898L45.1414 10.1865L45.1328 10.1745L45.1301 10.1705L45.1214 10.1591L45.1174 10.1538L45.1101 10.1431L45.1061 10.1378L45.0987 10.1278L45.0941 10.1218L45.0867 10.1124L45.0821 10.1058L45.0754 10.0971L45.07 10.0897L45.0634 10.0811L45.0594 10.0751L45.0514 10.0644L45.048 10.0597L45.0393 10.0477L45.0367 10.045L45.0273 10.0324L45.0247 10.029L45.0153 10.0164L45.0133 10.0137L45.004 10.001L45.0013 9.99767L44.9906 9.98299L44.99 9.98232L44.978 9.96631C44.962 9.94563 44.9466 9.92494 44.9306 9.90426L44.9286 9.90092L44.9186 9.88825L44.9172 9.88624L44.9072 9.8729L44.9039 9.8689L44.8952 9.85755L44.8912 9.85288L44.8839 9.84288L44.8792 9.8362L44.8719 9.82686L44.8599 9.81085L44.8572 9.80685L44.8472 9.79484L44.8452 9.79217L44.8358 9.78016L44.8325 9.77615L44.8238 9.76414L44.8212 9.76081L44.8112 9.74813L44.8092 9.74546L44.7985 9.73145L44.7978 9.73012L44.7871 9.7161L44.7858 9.7141C44.7571 9.67807 44.7291 9.64204 44.7004 9.60535V9.60468L44.6891 9.59067L44.6864 9.58733L44.6764 9.57466L44.675 9.57332L44.6644 9.55931L44.663 9.55798L44.6517 9.5433L44.651 9.54263L44.6404 9.52862L44.6384 9.52595L44.6277 9.5126L44.6263 9.51127L44.6157 9.49726L44.6137 9.49526L44.603 9.48191L44.6017 9.47991L44.591 9.46657L44.589 9.46457C44.5563 9.4232 44.5236 9.3825 44.4909 9.3418L44.4896 9.3398C44.4816 9.32979 44.4742 9.32045 44.4655 9.31044L44.4649 9.30977L44.4535 9.29509L44.4529 9.29376L44.4422 9.28041L44.4395 9.27775L44.4288 9.2644L44.4275 9.26307L44.4168 9.24972L44.4148 9.24772L44.4042 9.23371L44.4028 9.23237L44.3915 9.21903L44.3901 9.21703C44.3321 9.14564 44.2734 9.07491 44.2147 9.00419L44.214 9.00352L44.1893 8.97416L44.1886 8.97283L44.176 8.95815L44.164 8.94347L44.1633 8.9428C44.1039 8.87141 44.0445 8.80202 43.9845 8.7313L43.9838 8.73063C43.3306 7.96867 42.632 7.24674 41.8921 6.56819C40.8746 5.63542 39.2933 5.70348 38.3599 6.72098C37.4264 7.73915 37.4952 9.32045 38.5127 10.2532C46.656 17.716 47.2078 30.3677 39.745 38.5111C39.6142 38.6539 39.4815 38.7947 39.3467 38.9334C38.3846 39.9236 38.4072 41.5062 39.3974 42.469C39.8638 42.9234 40.4889 43.1769 41.1395 43.1769ZM18.6964 49.1058C20.0768 49.1051 21.1958 47.9849 21.1951 46.6037C21.1944 45.4928 20.4605 44.516 19.3943 44.2051C16.8262 43.4585 14.4362 42.2001 12.3665 40.5061C11.297 39.6327 9.72235 39.7921 8.84963 40.8623C7.97625 41.9319 8.13571 43.5065 9.20592 44.3792C11.7961 46.4956 14.7852 48.0689 17.9958 49.0057C18.2233 49.0718 18.4595 49.1058 18.6964 49.1058Z" fill="#FFBE00"/>
<path d="M24.9997 10.0004C22.0139 10.0004 19.3631 11.9106 18.419 14.7436L15.0001 25L12.015 21.2036C10.4104 19.5989 7.80824 19.5989 6.20359 21.2036C4.95323 22.4546 4.64298 24.3648 5.43363 25.9475L8.61357 32.252C9.4636 33.9374 11.1904 35.0002 13.0779 35.0002H36.9215C38.8097 35.0002 40.5358 33.9374 41.3858 32.252L44.5658 25.9475C45.3571 24.3648 45.0468 22.4546 43.7965 21.2036C42.1911 19.5989 39.5897 19.5989 37.985 21.2036L34.9999 25L31.5811 14.7436C30.6363 11.9106 27.9855 10.0004 24.9997 10.0004Z" fill="#FFD700"/>
<path d="M25.0005 10.0004H24.8944L24.8784 10.0011H24.8604L24.845 10.0018H24.8243L24.809 10.0024H24.8083L24.793 10.0031H24.7749L24.7723 10.0038L24.7569 10.0044H24.7389L24.7236 10.0051H24.7209L24.7062 10.0058L24.7029 10.0064L24.6875 10.0071H24.6855L24.6709 10.0078H24.6689L24.6542 10.0084H24.6508L24.6362 10.0091H24.6328L24.6182 10.0098H24.6168L24.6021 10.0111H24.5995L24.5848 10.0118L24.5815 10.0124L24.5668 10.0131H24.5641L24.5501 10.0138L24.5481 10.0144L24.5334 10.0151H24.5301L24.5154 10.0164H24.5121L24.4974 10.0178H24.4947L24.4814 10.0191H24.4787L24.464 10.0204H24.4614L24.4467 10.0218H24.4433L24.4287 10.0231H24.4267L24.4127 10.0244H24.41L24.3953 10.0258L24.392 10.0264L24.3773 10.0278H24.3746L24.3439 10.0304L24.3413 10.0311L24.3266 10.0324L24.3239 10.0331L24.3086 10.0345H24.3059L24.2919 10.0358H24.2906L24.2752 10.0378H24.2725L24.2572 10.0391L24.2545 10.0398L24.2398 10.0418H24.2385L24.2238 10.0431H24.2218L24.2065 10.0451H24.2038L24.1891 10.0471L24.1865 10.0478L24.1725 10.0491L24.1698 10.0498L24.1558 10.0511L24.1531 10.0518L24.1384 10.0531L24.1351 10.0538L24.1204 10.0558H24.1184L24.1037 10.0578H24.1024L24.0877 10.0598L24.085 10.0605L24.0704 10.0625H24.067L24.0524 10.0645L24.051 10.0651L24.0363 10.0671H24.0343L24.0197 10.0691L24.0163 10.0698L24.0023 10.0718L23.9996 10.0725L23.9843 10.0745H23.983L23.969 10.0772H23.9663L23.9523 10.0798H23.9489L23.9349 10.0825H23.9309L23.9176 10.0852H23.9162L23.9016 10.0872L23.8982 10.0878L23.8842 10.0905H23.8809L23.8662 10.0932H23.8642L23.8502 10.0958H23.8489L23.8342 10.0985L23.8308 10.0992L23.8162 10.1018H23.8135L23.7988 10.1045H23.7975L23.7828 10.1072L23.7808 10.1078L23.7661 10.1098L23.7635 10.1105L23.7488 10.1132L23.7468 10.1138C23.7368 10.1152 23.7261 10.1172 23.7154 10.1192L23.7134 10.1199L23.6987 10.1225L23.6961 10.1232L23.6814 10.1259H23.6794L23.6647 10.1285L23.6634 10.1292L23.6487 10.1319L23.646 10.1325L23.632 10.1352L23.6287 10.1359L23.614 10.1392H23.6133L23.598 10.1425H23.5966L23.582 10.1459H23.5793L23.5646 10.1492L23.5626 10.1499L23.5319 10.1559L23.5299 10.1566L23.5152 10.1599L23.5126 10.1606L23.4979 10.1639H23.4966L23.4812 10.1672H23.4806L23.4659 10.1706L23.4632 10.1712L23.4485 10.1746L23.4465 10.1752L23.4312 10.1786L23.4305 10.1792L23.4152 10.1826H23.4145L23.3998 10.1866L23.3972 10.1872L23.3825 10.1906H23.3805L23.3651 10.1946H23.3645L23.3498 10.1979L23.3484 10.1986L23.3331 10.2019L23.3311 10.2026L23.3164 10.2066H23.3151L23.2844 10.2146L23.2824 10.2153L23.267 10.2186L23.2657 10.2193L23.2504 10.2233L23.2343 10.2273H23.2337L23.2183 10.2313L23.217 10.2319L23.2017 10.2359L23.2003 10.2366C23.1896 10.2393 23.1796 10.242 23.169 10.2446L23.1683 10.2453L23.1523 10.2493L23.1516 10.25L23.1363 10.254H23.1356L23.1042 10.2633H23.1029L23.0876 10.268H23.0862L23.0709 10.2726H23.0702C23.0595 10.276 23.0495 10.2787 23.0389 10.282H23.0375L23.0228 10.2867L23.0215 10.2873C23.0055 10.2913 22.9895 10.2967 22.9741 10.3013H22.9728L22.9575 10.306V10.3067L22.9254 10.3167L22.9094 10.3214L22.9081 10.322C22.8927 10.3267 22.8767 10.332 22.8607 10.3367L22.8454 10.342H22.8447C22.8287 10.3474 22.8127 10.3527 22.7973 10.3581C21.9199 10.6523 21.1106 11.1187 20.416 11.7298C20.3833 11.7585 20.352 11.7879 20.3213 11.8179C20.2866 11.8473 20.2526 11.878 20.2192 11.91C19.568 12.5285 19.0436 13.2684 18.6746 14.0878C18.6679 14.1038 18.6606 14.1198 18.6533 14.1365V14.1372L18.6479 14.1492C18.6406 14.1652 18.6332 14.1819 18.6266 14.1979V14.1985C18.6192 14.2152 18.6126 14.2312 18.6059 14.2472L18.6052 14.2486L18.6005 14.2599L18.5999 14.2613L18.5845 14.298L18.5805 14.3086L18.5792 14.312L18.5745 14.3226L18.5739 14.324C18.5692 14.3353 18.5652 14.3467 18.5605 14.3587L18.5592 14.3613L18.5552 14.372L18.5538 14.3753C18.5492 14.386 18.5452 14.3974 18.5405 14.4087L18.5398 14.4114L18.5358 14.4214L18.5338 14.4254L18.5292 14.4394L18.5165 14.4714L18.5151 14.4754L18.5111 14.4848L18.5098 14.4894L18.5065 14.4988L18.5045 14.5035L18.4985 14.5195L18.4958 14.5261L18.4931 14.5341L18.4905 14.5408L18.4878 14.5488L18.4851 14.5555L18.4824 14.5628L18.4778 14.5762L18.4644 14.6129L18.4611 14.6216L18.4578 14.6322L18.4544 14.6416L18.4524 14.6482L18.4491 14.6562L18.4471 14.6629L18.4437 14.6723L18.4417 14.6776L18.4371 14.6923L18.4357 14.6963L18.4317 14.707L18.4304 14.713L18.4264 14.723L18.4251 14.7276L18.4204 14.743L18.2729 15.1833C18.1795 15.4642 18.0461 15.8646 17.886 16.3456C17.7258 16.8267 17.539 17.3872 17.3382 17.9883C17.138 18.5895 16.9245 19.23 16.711 19.8712C16.4968 20.5124 16.2833 21.1536 16.0831 21.7541C15.883 22.3552 15.6955 22.9164 15.5354 23.3968C15.3752 23.8778 15.2418 24.2781 15.1484 24.559C15.0636 24.8133 15.0116 24.9687 15.0023 24.9954L15.0009 24.9994L14.9889 24.9841V24.9834L14.9849 24.9787L14.9822 24.9761L14.9782 24.9707L14.9776 24.97L14.9769 24.9687L14.9749 24.9667C14.8735 24.8373 14.5079 24.3716 14.5079 24.3716C13.6538 23.2867 12.0819 23.0992 10.997 23.9532C9.91274 24.8066 9.72459 26.3772 10.5773 27.4621L11.0704 28.0899C12.7778 30.2604 15.921 30.6367 18.0915 28.93C18.8608 28.3255 19.4352 27.5088 19.7448 26.5807L23.1636 16.3243C23.263 16.0234 23.4352 15.7518 23.6647 15.5343C23.6747 15.525 23.6834 15.5163 23.6927 15.5069C23.7027 15.4989 23.7121 15.4903 23.7221 15.4823C24.0757 15.1713 24.5301 14.9999 25.0011 14.9999C26.3823 15.0012 27.5025 13.8829 27.5039 12.5025C27.5052 11.1213 26.3876 10.0011 25.0065 9.99976C25.0038 10.0004 25.0025 10.0004 25.0005 10.0004Z" fill="#FFBE00"/>
<path d="M40.0001 22.4999C40.0001 23.8804 38.8805 25 37.5001 25C36.1189 25 35 23.8804 35 22.4999C35 21.1195 36.1189 19.9999 37.5001 19.9999C38.8805 19.9999 40.0001 21.1195 40.0001 22.4999Z" fill="#FFBE00"/>
<path d="M17.4994 35.0002H37.4998C38.8803 35.0002 39.9999 36.1192 39.9999 37.5003C39.9999 38.8808 38.8803 40.0004 37.4998 40.0004H17.4994C16.1189 40.0004 15 38.8808 15 37.5003C15 36.1192 16.1189 35.0002 17.4994 35.0002Z" fill="#FFFC74"/>
<path d="M11.0359 71.0359C12.4163 69.6547 14.6548 69.6547 16.036 71.0359L23.9645 78.9644C25.3456 80.3455 25.3456 82.584 23.9645 83.9645C22.584 85.3449 20.3455 85.3449 18.965 83.9645L11.0359 76.0353C9.65472 74.6548 9.65472 72.4163 11.0359 71.0359Z" fill="#5E7599"/>
<path d="M76.0354 6.03585C77.4165 4.65472 79.655 4.65472 81.0355 6.03585L88.9646 13.9644C90.3451 15.3455 90.3451 17.584 88.9646 18.9645C87.5842 20.3449 85.345 20.3449 83.9645 18.9645L76.0354 11.036C74.6549 9.65482 74.6549 7.41632 76.0354 6.03585Z" fill="#5E7599"/>
<path d="M96.0359 26.0356C97.4163 24.6551 99.6548 24.6551 101.035 26.0356L103.964 28.9647C105.345 30.3451 105.345 32.5836 103.964 33.9641C102.584 35.3452 100.345 35.3452 98.9643 33.9641L96.0359 31.0357C94.6547 29.6546 94.6547 27.4161 96.0359 26.0356Z" fill="#33527D"/>
<path d="M31.0359 91.0356C32.4163 89.6551 34.6548 89.6551 36.036 91.0356L38.965 93.9647C40.3455 95.3451 40.3455 97.5836 38.965 98.9641C37.5839 100.345 35.3454 100.345 33.9649 98.9641L31.0359 96.0357C29.6547 94.6546 29.6547 92.4161 31.0359 91.0356Z" fill="#33527D"/>
<path d="M90.0001 99.9996H99.9997C102.761 99.9996 105 102.238 105 105C105 107.761 102.761 110 99.9997 110H90.0001C87.2385 110 85 107.761 85 105C85 102.238 87.2385 99.9996 90.0001 99.9996Z" fill="#FFA300"/>
</svg>
