<svg width="19" height="19" viewBox="0 0 19 19" fill="none" xmlns="http://www.w3.org/2000/svg">
<path d="M4.19582 17.3375L4.55207 17.5354C6.01665 18.4458 7.71876 19 9.5 19C14.6854 19 19 14.6854 19 9.42081C19 4.15622 14.6854 0 9.46041 0C4.23541 0 0 4.19582 0 9.42081C0 11.2417 0.51459 13.0229 1.46458 14.5271L1.7021 14.8833L0.791704 18.2083L4.19582 17.3375Z" fill="#55CD6C"/>
<path d="M6.41234 4.11662L5.66028 4.07703C5.42275 4.07703 5.18528 4.15621 5.02695 4.31455C4.67069 4.63121 4.07695 5.22495 3.91862 6.01665C3.64155 7.20416 4.07695 8.62915 5.10613 10.0541C6.13532 11.4791 8.11449 13.775 11.5978 14.7646C12.7061 15.0812 13.577 14.8833 14.2895 14.4479C14.8437 14.0916 15.1999 13.5375 15.3187 12.9437L15.4374 12.3895C15.477 12.2312 15.3978 12.0333 15.2395 11.9541L12.7457 10.8062C12.5874 10.727 12.3895 10.7666 12.2707 10.9249L11.2811 12.1916C11.202 12.2708 11.0832 12.3103 10.9645 12.2708C10.2916 12.0333 8.03531 11.0833 6.8082 8.7083C6.7686 8.58956 6.7686 8.47078 6.84779 8.39163L7.79778 7.3229C7.87697 7.20416 7.91652 7.04583 7.87697 6.92705L6.72905 4.35414C6.68941 4.23536 6.57068 4.11662 6.41234 4.11662Z" fill="#FEFEFE"/>
</svg>
