<svg width="70" height="30" viewBox="0 0 70 30" fill="none" xmlns="http://www.w3.org/2000/svg">
<path d="M6.76328 4.15459L0.41285 4.09614V8.30918H10.9372L0 22.3285V25.8937H6.76328V30H10.8213V25.8937H17.7198C17.7778 25.7295 17.7981 25.2866 17.4309 24.8808C16.8222 24.2044 16.3382 23.4976 15.8937 22.6087C15.6908 22.2126 15.5367 21.7382 15.4787 21.6995C14.1203 21.6372 6.30493 21.6533 6.30918 21.6039L17.256 7.49855V4.15459H10.8213V0H6.76328V4.15459ZM36.0676 2.19324C35.971 2.23188 35.942 4.36715 35.942 12.4541C35.942 23.3816 35.9324 23.1981 36.4155 24.1353C36.8502 24.9758 37.913 25.7295 39.1014 26.0386C39.7585 26.2126 41.6908 26.2319 42.4348 26.0773C43.3913 25.8744 43.5749 25.5845 43.1981 24.8406C42.9565 24.3768 42.6377 23.3623 42.5604 22.8019C42.4541 22.1353 42.3188 22.029 41.5072 22.0483C41.1208 22.058 40.7536 22.029 40.686 21.9903C40.2899 21.7391 40.2899 21.6715 40.2899 11.8841C40.2899 5.5942 40.2609 2.43478 40.1932 2.30918C40.0966 2.13527 39.971 2.1256 38.1353 2.13527C37.0628 2.13527 36.1256 2.16425 36.0676 2.19324ZM44.9275 2.22222C44.8019 2.29952 44.7826 3.53623 44.7826 12.3865C44.7826 21.9227 44.7923 22.5024 44.9662 23.1691C45.2947 24.4831 46.0386 25.285 47.4493 25.8744C47.9903 26.0966 48.2319 26.1353 49.3237 26.1642C50.7826 26.2029 51.5266 26.0966 52.2705 25.7198C53.0048 25.3623 53.0242 25.1111 52.3961 24.1932C52.1449 23.8261 51.7585 23.1981 51.5459 22.8019L51.1594 22.0773L50.4541 22.0676C49.5749 22.0483 49.4879 22.0097 49.3237 21.5942C49.1981 21.314 49.1787 19.8744 49.1787 11.8841C49.1787 5.5942 49.1498 2.43478 49.0821 2.30918C48.9855 2.13527 48.8599 2.1256 47.0242 2.1256C45.9517 2.1256 45.0048 2.17391 44.9275 2.22222Z" fill="#6D1ED4"/>
<path d="M23.9128 8.26103C23.8645 8.28035 23.4877 8.36731 23.0916 8.45426C20.6085 9.02431 18.4152 10.9277 17.4877 13.3432C16.9756 14.6765 16.792 15.7103 16.7824 17.2465C16.7727 19.4011 17.2075 20.9857 18.2027 22.4929C19.3234 24.1837 20.966 25.3335 23.0916 25.9132C23.8162 26.1064 24.135 26.1354 25.7969 26.1354C27.4394 26.1354 27.7776 26.1064 28.4635 25.9229C30.164 25.4494 31.6133 24.6668 32.7824 23.5557C33.5263 22.8601 33.5167 22.6668 32.7631 22.0871C32.4539 21.8456 31.8935 21.3238 31.5263 20.918C31.0626 20.4253 30.7824 20.1934 30.6375 20.1934C30.5022 20.1934 30.193 20.3866 29.8935 20.6765C28.8597 21.6137 27.5553 22.0581 25.8452 22.0485C24.28 22.0388 23.1399 21.633 22.4152 20.8021C22.0481 20.3866 21.5843 19.4398 21.4877 18.9084L21.4297 18.5509H27.4491C30.7631 18.5509 33.536 18.5122 33.6036 18.4639C33.9225 18.261 33.9998 16.8601 33.7679 15.3335C33.2172 11.6813 31.0336 9.22721 27.6036 8.40595C26.9949 8.26103 26.4925 8.21272 25.4104 8.22238C24.6375 8.22238 23.9708 8.2417 23.9128 8.26103ZM26.4925 11.9905C27.1978 12.1354 28.0674 12.6185 28.4732 13.0823C28.85 13.5074 29.2365 14.2707 29.3331 14.7634L29.4007 15.0726H21.5263L21.594 14.7634C21.8838 13.4591 23.0046 12.3673 24.3959 12.0195C25.0143 11.8649 25.8452 11.8552 26.4925 11.9905ZM59.0336 8.34798C55.6036 9.11127 53.2848 11.5267 52.5602 15.0919C52.1254 17.1982 52.3669 19.6523 53.1882 21.4108C54.309 23.8456 56.3476 25.4204 59.1302 25.9905C60.0094 26.1741 60.3573 26.1934 61.7389 26.1547C62.908 26.1161 63.536 26.0485 64.0771 25.9035C65.7292 25.4688 67.1785 24.6765 68.2896 23.6137C69.1399 22.7924 69.1399 22.7538 68.222 21.9905C67.7969 21.6427 67.2268 21.0919 66.9563 20.7731C66.3283 20.0485 66.164 20.0388 65.4587 20.6765C64.4056 21.633 63.1495 22.0581 61.4007 22.0485C58.9466 22.0388 57.5167 20.9857 57.0529 18.8601L56.9853 18.6093H69.2268C69.6423 18.3098 69.4877 15.1403 68.9853 13.6717C68.8887 13.3818 68.6278 12.8021 68.4152 12.3963C67.2848 10.232 65.478 8.88904 62.966 8.35764C62.164 8.18373 59.7969 8.18373 59.0336 8.34798ZM62.0481 11.9905C62.7051 12.1354 63.3814 12.4736 63.8645 12.9084C64.2703 13.2852 64.9273 14.4736 64.9273 14.8407V15.0726H57.0819L57.1495 14.8021C57.652 12.7345 59.7776 11.5074 62.0481 11.9905Z" fill="#6D1ED4"/>
</svg>
